<?xml version="1.0" encoding="UTF-8" standalone="no"?>
<!DOCTYPE svg PUBLIC "-//W3C//DTD SVG 1.1//EN"
 "http://www.w3.org/Graphics/SVG/1.1/DTD/svg11.dtd">
<!-- Generated by graphviz version 2.40.1 (20161225.0304)
 -->
<!-- Title: %3 Pages: 1 -->
<svg width="3519pt" height="3128pt"
 viewBox="0.00 0.00 3518.82 3127.59" xmlns="http://www.w3.org/2000/svg" xmlns:xlink="http://www.w3.org/1999/xlink">
<g id="graph0" class="graph" transform="scale(1 1) rotate(0) translate(4 3123.5921)">
<title>%3</title>
<polygon fill="#ffffff" stroke="transparent" points="-4,4 -4,-3123.5921 3514.8177,-3123.5921 3514.8177,4 -4,4"/>
<!-- [root] aws_ebs_volume.ebs&#45;volume&#45;1 -->
<g id="node1" class="node">
<title>[root] aws_ebs_volume.ebs&#45;volume&#45;1</title>
<polygon fill="none" stroke="#000000" points="3166.3275,-1141.6391 2977.3275,-1141.6391 2977.3275,-1105.6391 3166.3275,-1105.6391 3166.3275,-1141.6391"/>
<text text-anchor="middle" x="3071.8275" y="-1119.9391" font-family="Times,serif" font-size="14.00" fill="#000000">aws_ebs_volume.ebs&#45;volume&#45;1</text>
</g>
<!-- [root] provider.aws -->
<g id="node18" class="node">
<title>[root] provider.aws</title>
<polygon fill="none" stroke="#000000" points="2873.8207,-730.4738 2793.8873,-712.4738 2873.8207,-694.4738 2953.7541,-712.4738 2873.8207,-730.4738"/>
<text text-anchor="middle" x="2873.8207" y="-708.7738" font-family="Times,serif" font-size="14.00" fill="#000000">provider.aws</text>
</g>
<!-- [root] aws_ebs_volume.ebs&#45;volume&#45;1&#45;&gt;[root] provider.aws -->
<g id="edge1" class="edge">
<title>[root] aws_ebs_volume.ebs&#45;volume&#45;1&#45;&gt;[root] provider.aws</title>
<path fill="none" stroke="#000000" d="M3063.0639,-1105.4414C3031.4758,-1039.848 2923.3742,-815.3728 2886.3661,-738.5247"/>
<polygon fill="#000000" stroke="#000000" points="2889.3169,-736.5853 2881.8247,-729.0942 2883.0102,-739.6225 2889.3169,-736.5853"/>
</g>
<!-- [root] aws_instance.example -->
<g id="node2" class="node">
<title>[root] aws_instance.example</title>
<polygon fill="none" stroke="#000000" points="2237.6992,-167.7594 2098.6992,-167.7594 2098.6992,-131.7594 2237.6992,-131.7594 2237.6992,-167.7594"/>
<text text-anchor="middle" x="2168.1992" y="-146.0594" font-family="Times,serif" font-size="14.00" fill="#000000">aws_instance.example</text>
</g>
<!-- [root] aws_key_pair.mykeypair -->
<g id="node4" class="node">
<title>[root] aws_key_pair.mykeypair</title>
<polygon fill="none" stroke="#000000" points="2640.4177,-395.939 2486.4177,-395.939 2486.4177,-359.939 2640.4177,-359.939 2640.4177,-395.939"/>
<text text-anchor="middle" x="2563.4177" y="-374.239" font-family="Times,serif" font-size="14.00" fill="#000000">aws_key_pair.mykeypair</text>
</g>
<!-- [root] aws_instance.example&#45;&gt;[root] aws_key_pair.mykeypair -->
<g id="edge2" class="edge">
<title>[root] aws_instance.example&#45;&gt;[root] aws_key_pair.mykeypair</title>
<path fill="none" stroke="#000000" d="M2199.5416,-167.855C2270.7399,-208.9614 2444.575,-309.3251 2523.3938,-354.8311"/>
<polygon fill="#000000" stroke="#000000" points="2521.6617,-357.8726 2532.072,-359.8415 2525.1617,-351.8104 2521.6617,-357.8726"/>
</g>
<!-- [root] aws_security_group.allow&#45;ssh -->
<g id="node9" class="node">
<title>[root] aws_security_group.allow&#45;ssh</title>
<polygon fill="none" stroke="#000000" points="1358.699,-100.3137 1177.699,-100.3137 1177.699,-64.3137 1358.699,-64.3137 1358.699,-100.3137"/>
<text text-anchor="middle" x="1268.199" y="-78.6137" font-family="Times,serif" font-size="14.00" fill="#000000">aws_security_group.allow&#45;ssh</text>
</g>
<!-- [root] aws_instance.example&#45;&gt;[root] aws_security_group.allow&#45;ssh -->
<g id="edge3" class="edge">
<title>[root] aws_instance.example&#45;&gt;[root] aws_security_group.allow&#45;ssh</title>
<path fill="none" stroke="#000000" d="M2098.3265,-144.5232C1940.0402,-132.6613 1553.5872,-103.7006 1369.2436,-89.886"/>
<polygon fill="#000000" stroke="#000000" points="1369.2415,-86.3761 1359.0079,-89.1189 1368.7183,-93.3565 1369.2415,-86.3761"/>
</g>
<!-- [root] aws_subnet.main&#45;public&#45;1 -->
<g id="node13" class="node">
<title>[root] aws_subnet.main&#45;public&#45;1</title>
<polygon fill="none" stroke="#000000" points="923.8863,-267.0404 762.8863,-267.0404 762.8863,-231.0404 923.8863,-231.0404 923.8863,-267.0404"/>
<text text-anchor="middle" x="843.3863" y="-245.3404" font-family="Times,serif" font-size="14.00" fill="#000000">aws_subnet.main&#45;public&#45;1</text>
</g>
<!-- [root] aws_instance.example&#45;&gt;[root] aws_subnet.main&#45;public&#45;1 -->
<g id="edge4" class="edge">
<title>[root] aws_instance.example&#45;&gt;[root] aws_subnet.main&#45;public&#45;1</title>
<path fill="none" stroke="#000000" d="M2098.3725,-154.9922C1875.8473,-171.6682 1183.4129,-223.559 934.0401,-242.2469"/>
<polygon fill="#000000" stroke="#000000" points="933.6384,-238.7671 923.928,-243.0047 934.1616,-245.7475 933.6384,-238.7671"/>
</g>
<!-- [root] var.AMIS -->
<g id="node19" class="node">
<title>[root] var.AMIS</title>
<ellipse fill="none" stroke="#000000" cx="2219.9109" cy="-18" rx="69.5877" ry="18"/>
<text text-anchor="middle" x="2219.9109" y="-14.3" font-family="Times,serif" font-size="14.00" fill="#000000">[root] var.AMIS</text>
</g>
<!-- [root] aws_instance.example&#45;&gt;[root] var.AMIS -->
<g id="edge5" class="edge">
<title>[root] aws_instance.example&#45;&gt;[root] var.AMIS</title>
<path fill="none" stroke="#000000" d="M2175.281,-131.7151C2183.9744,-109.5647 2198.8113,-71.761 2208.974,-45.8669"/>
<polygon fill="#000000" stroke="#000000" points="2212.3532,-46.8367 2212.7486,-36.2492 2205.8371,-44.2792 2212.3532,-46.8367"/>
</g>
<!-- [root] aws_internet_gateway.main&#45;gw -->
<g id="node3" class="node">
<title>[root] aws_internet_gateway.main&#45;gw</title>
<polygon fill="none" stroke="#000000" points="190,-1821.0806 0,-1821.0806 0,-1785.0806 190,-1785.0806 190,-1821.0806"/>
<text text-anchor="middle" x="95" y="-1799.3806" font-family="Times,serif" font-size="14.00" fill="#000000">aws_internet_gateway.main&#45;gw</text>
</g>
<!-- [root] aws_vpc.main -->
<g id="node17" class="node">
<title>[root] aws_vpc.main</title>
<polygon fill="none" stroke="#000000" points="534.0904,-551.5757 439.0904,-551.5757 439.0904,-515.5757 534.0904,-515.5757 534.0904,-551.5757"/>
<text text-anchor="middle" x="486.5904" y="-529.8757" font-family="Times,serif" font-size="14.00" fill="#000000">aws_vpc.main</text>
</g>
<!-- [root] aws_internet_gateway.main&#45;gw&#45;&gt;[root] aws_vpc.main -->
<g id="edge6" class="edge">
<title>[root] aws_internet_gateway.main&#45;gw&#45;&gt;[root] aws_vpc.main</title>
<path fill="none" stroke="#000000" d="M100.6866,-1784.6451C144.2617,-1643.3782 424.9589,-733.3802 477.9631,-561.5447"/>
<polygon fill="#000000" stroke="#000000" points="481.3856,-562.3235 480.9887,-551.7361 474.6965,-560.2601 481.3856,-562.3235"/>
</g>
<!-- [root] aws_key_pair.mykeypair&#45;&gt;[root] provider.aws -->
<g id="edge7" class="edge">
<title>[root] aws_key_pair.mykeypair&#45;&gt;[root] provider.aws</title>
<path fill="none" stroke="#000000" d="M2580.5485,-396.4015C2633.5671,-453.5421 2794.8756,-627.3913 2852.8173,-689.8376"/>
<polygon fill="#000000" stroke="#000000" points="2850.3005,-692.2709 2859.668,-697.2208 2855.4319,-687.5097 2850.3005,-692.2709"/>
</g>
<!-- [root] var.PATH_TO_PUBLIC_KEY -->
<g id="node20" class="node">
<title>[root] var.PATH_TO_PUBLIC_KEY</title>
<ellipse fill="none" stroke="#000000" cx="2697.8653" cy="-209.347" rx="143.7746" ry="18"/>
<text text-anchor="middle" x="2697.8653" y="-205.647" font-family="Times,serif" font-size="14.00" fill="#000000">[root] var.PATH_TO_PUBLIC_KEY</text>
</g>
<!-- [root] aws_key_pair.mykeypair&#45;&gt;[root] var.PATH_TO_PUBLIC_KEY -->
<g id="edge8" class="edge">
<title>[root] aws_key_pair.mykeypair&#45;&gt;[root] var.PATH_TO_PUBLIC_KEY</title>
<path fill="none" stroke="#000000" d="M2577.8059,-359.8967C2601.6617,-329.9826 2649.4984,-269.9972 2677.0421,-235.4585"/>
<polygon fill="#000000" stroke="#000000" points="2680.082,-237.2601 2683.5805,-227.2595 2674.6092,-232.8957 2680.082,-237.2601"/>
</g>
<!-- [root] aws_route_table.main&#45;public -->
<g id="node5" class="node">
<title>[root] aws_route_table.main&#45;public</title>
<polygon fill="none" stroke="#000000" points="574.0904,-2634.2265 399.0904,-2634.2265 399.0904,-2598.2265 574.0904,-2598.2265 574.0904,-2634.2265"/>
<text text-anchor="middle" x="486.5904" y="-2612.5265" font-family="Times,serif" font-size="14.00" fill="#000000">aws_route_table.main&#45;public</text>
</g>
<!-- [root] aws_route_table.main&#45;public&#45;&gt;[root] aws_internet_gateway.main&#45;gw -->
<g id="edge9" class="edge">
<title>[root] aws_route_table.main&#45;public&#45;&gt;[root] aws_internet_gateway.main&#45;gw</title>
<path fill="none" stroke="#000000" d="M477.8625,-2598.1027C427.0501,-2492.5897 169.5033,-1957.7883 108.1385,-1830.3629"/>
<polygon fill="#000000" stroke="#000000" points="111.2413,-1828.7392 103.749,-1821.2481 104.9345,-1831.7764 111.2413,-1828.7392"/>
</g>
<!-- [root] aws_route_table_association.main&#45;public&#45;1&#45;a -->
<g id="node6" class="node">
<title>[root] aws_route_table_association.main&#45;public&#45;1&#45;a</title>
<polygon fill="none" stroke="#000000" points="361.0142,-2257.1649 98.0142,-2257.1649 98.0142,-2221.1649 361.0142,-2221.1649 361.0142,-2257.1649"/>
<text text-anchor="middle" x="229.5142" y="-2235.4649" font-family="Times,serif" font-size="14.00" fill="#000000">aws_route_table_association.main&#45;public&#45;1&#45;a</text>
</g>
<!-- [root] aws_route_table_association.main&#45;public&#45;1&#45;a&#45;&gt;[root] aws_route_table.main&#45;public -->
<g id="edge10" class="edge">
<title>[root] aws_route_table_association.main&#45;public&#45;1&#45;a&#45;&gt;[root] aws_route_table.main&#45;public</title>
<path fill="none" stroke="#000000" d="M241.9135,-2257.3514C283.6569,-2318.5777 419.2145,-2517.4042 468.4817,-2589.6658"/>
<polygon fill="#000000" stroke="#000000" points="465.7904,-2591.9317 474.3155,-2598.2225 471.5741,-2587.9884 465.7904,-2591.9317"/>
</g>
<!-- [root] aws_route_table_association.main&#45;public&#45;1&#45;a&#45;&gt;[root] aws_subnet.main&#45;public&#45;1 -->
<g id="edge11" class="edge">
<title>[root] aws_route_table_association.main&#45;public&#45;1&#45;a&#45;&gt;[root] aws_subnet.main&#45;public&#45;1</title>
<path fill="none" stroke="#000000" d="M235.1036,-2221.0445C291.9583,-2036.7261 764.838,-503.6877 834.7608,-277.0035"/>
<polygon fill="#000000" stroke="#000000" points="838.1795,-277.7944 837.7826,-267.207 831.4905,-275.7311 838.1795,-277.7944"/>
</g>
<!-- [root] aws_route_table_association.main&#45;public&#45;2&#45;a -->
<g id="node7" class="node">
<title>[root] aws_route_table_association.main&#45;public&#45;2&#45;a</title>
<polygon fill="none" stroke="#000000" points="1399.699,-3085.4884 1136.699,-3085.4884 1136.699,-3049.4884 1399.699,-3049.4884 1399.699,-3085.4884"/>
<text text-anchor="middle" x="1268.199" y="-3063.7884" font-family="Times,serif" font-size="14.00" fill="#000000">aws_route_table_association.main&#45;public&#45;2&#45;a</text>
</g>
<!-- [root] aws_route_table_association.main&#45;public&#45;2&#45;a&#45;&gt;[root] aws_route_table.main&#45;public -->
<g id="edge12" class="edge">
<title>[root] aws_route_table_association.main&#45;public&#45;2&#45;a&#45;&gt;[root] aws_route_table.main&#45;public</title>
<path fill="none" stroke="#000000" d="M1236.5909,-3049.2395C1113.3313,-2978.0755 664.9649,-2719.211 527.1616,-2639.6503"/>
<polygon fill="#000000" stroke="#000000" points="528.5726,-2636.4234 518.1623,-2634.4545 525.0725,-2642.4856 528.5726,-2636.4234"/>
</g>
<!-- [root] aws_subnet.main&#45;public&#45;2 -->
<g id="node14" class="node">
<title>[root] aws_subnet.main&#45;public&#45;2</title>
<polygon fill="none" stroke="#000000" points="175.5,-1364.7215 14.5,-1364.7215 14.5,-1328.7215 175.5,-1328.7215 175.5,-1364.7215"/>
<text text-anchor="middle" x="95" y="-1343.0215" font-family="Times,serif" font-size="14.00" fill="#000000">aws_subnet.main&#45;public&#45;2</text>
</g>
<!-- [root] aws_route_table_association.main&#45;public&#45;2&#45;a&#45;&gt;[root] aws_subnet.main&#45;public&#45;2 -->
<g id="edge13" class="edge">
<title>[root] aws_route_table_association.main&#45;public&#45;2&#45;a&#45;&gt;[root] aws_subnet.main&#45;public&#45;2</title>
<path fill="none" stroke="#000000" d="M1255.8172,-3049.3277C1140.2325,-2879.796 251.2944,-1575.9633 113.0462,-1373.1905"/>
<polygon fill="#000000" stroke="#000000" points="115.9084,-1371.1753 107.3833,-1364.8845 110.1247,-1375.1185 115.9084,-1371.1753"/>
</g>
<!-- [root] aws_route_table_association.main&#45;public&#45;3&#45;a -->
<g id="node8" class="node">
<title>[root] aws_route_table_association.main&#45;public&#45;3&#45;a</title>
<polygon fill="none" stroke="#000000" points="974.8863,-2918.7617 711.8863,-2918.7617 711.8863,-2882.7617 974.8863,-2882.7617 974.8863,-2918.7617"/>
<text text-anchor="middle" x="843.3863" y="-2897.0617" font-family="Times,serif" font-size="14.00" fill="#000000">aws_route_table_association.main&#45;public&#45;3&#45;a</text>
</g>
<!-- [root] aws_route_table_association.main&#45;public&#45;3&#45;a&#45;&gt;[root] aws_route_table.main&#45;public -->
<g id="edge14" class="edge">
<title>[root] aws_route_table_association.main&#45;public&#45;3&#45;a&#45;&gt;[root] aws_route_table.main&#45;public</title>
<path fill="none" stroke="#000000" d="M820.7964,-2882.7469C759.1189,-2833.5607 587.7696,-2696.9142 517.3807,-2640.7809"/>
<polygon fill="#000000" stroke="#000000" points="519.3119,-2637.8443 509.3114,-2634.3458 514.9475,-2643.3172 519.3119,-2637.8443"/>
</g>
<!-- [root] aws_subnet.main&#45;public&#45;3 -->
<g id="node15" class="node">
<title>[root] aws_subnet.main&#45;public&#45;3</title>
<polygon fill="none" stroke="#000000" points="310.0142,-928.6372 149.0142,-928.6372 149.0142,-892.6372 310.0142,-892.6372 310.0142,-928.6372"/>
<text text-anchor="middle" x="229.5142" y="-906.9372" font-family="Times,serif" font-size="14.00" fill="#000000">aws_subnet.main&#45;public&#45;3</text>
</g>
<!-- [root] aws_route_table_association.main&#45;public&#45;3&#45;a&#45;&gt;[root] aws_subnet.main&#45;public&#45;3 -->
<g id="edge15" class="edge">
<title>[root] aws_route_table_association.main&#45;public&#45;3&#45;a&#45;&gt;[root] aws_subnet.main&#45;public&#45;3</title>
<path fill="none" stroke="#000000" d="M837.7969,-2882.6413C780.9422,-2698.3228 308.0625,-1165.2844 238.1396,-938.6002"/>
<polygon fill="#000000" stroke="#000000" points="241.41,-937.3279 235.1178,-928.8038 234.721,-939.3912 241.41,-937.3279"/>
</g>
<!-- [root] aws_security_group.allow&#45;ssh&#45;&gt;[root] aws_vpc.main -->
<g id="edge16" class="edge">
<title>[root] aws_security_group.allow&#45;ssh&#45;&gt;[root] aws_vpc.main</title>
<path fill="none" stroke="#000000" d="M1236.5909,-100.5627C1113.3313,-171.7267 664.9649,-430.5911 527.1616,-510.1519"/>
<polygon fill="#000000" stroke="#000000" points="525.0725,-507.3165 518.1623,-515.3476 528.5726,-513.3787 525.0725,-507.3165"/>
</g>
<!-- [root] aws_subnet.main&#45;private&#45;1 -->
<g id="node10" class="node">
<title>[root] aws_subnet.main&#45;private&#45;1</title>
<polygon fill="none" stroke="#000000" points="2645.4177,-2789.8631 2481.4177,-2789.8631 2481.4177,-2753.8631 2645.4177,-2753.8631 2645.4177,-2789.8631"/>
<text text-anchor="middle" x="2563.4177" y="-2768.1631" font-family="Times,serif" font-size="14.00" fill="#000000">aws_subnet.main&#45;private&#45;1</text>
</g>
<!-- [root] aws_subnet.main&#45;private&#45;1&#45;&gt;[root] aws_vpc.main -->
<g id="edge17" class="edge">
<title>[root] aws_subnet.main&#45;private&#45;1&#45;&gt;[root] aws_vpc.main</title>
<path fill="none" stroke="#000000" d="M2546.7004,-2753.8462C2363.1779,-2556.056 726.2638,-791.8821 510.1152,-558.9293"/>
<polygon fill="#000000" stroke="#000000" points="512.6716,-556.5387 503.3042,-551.5888 507.5402,-561.2999 512.6716,-556.5387"/>
</g>
<!-- [root] aws_subnet.main&#45;private&#45;2 -->
<g id="node11" class="node">
<title>[root] aws_subnet.main&#45;private&#45;2</title>
<polygon fill="none" stroke="#000000" points="2250.1992,-3018.0427 2086.1992,-3018.0427 2086.1992,-2982.0427 2250.1992,-2982.0427 2250.1992,-3018.0427"/>
<text text-anchor="middle" x="2168.1992" y="-2996.3427" font-family="Times,serif" font-size="14.00" fill="#000000">aws_subnet.main&#45;private&#45;2</text>
</g>
<!-- [root] aws_subnet.main&#45;private&#45;2&#45;&gt;[root] aws_vpc.main -->
<g id="edge18" class="edge">
<title>[root] aws_subnet.main&#45;private&#45;2&#45;&gt;[root] aws_vpc.main</title>
<path fill="none" stroke="#000000" d="M2155.8667,-2981.9543C2013.1893,-2772.6849 677.3715,-813.4001 504.9017,-560.4334"/>
<polygon fill="#000000" stroke="#000000" points="507.5702,-558.1341 499.0451,-551.8433 501.7865,-562.0773 507.5702,-558.1341"/>
</g>
<!-- [root] aws_subnet.main&#45;private&#45;3 -->
<g id="node12" class="node">
<title>[root] aws_subnet.main&#45;private&#45;3</title>
<polygon fill="none" stroke="#000000" points="2955.8207,-2455.3283 2791.8207,-2455.3283 2791.8207,-2419.3283 2955.8207,-2419.3283 2955.8207,-2455.3283"/>
<text text-anchor="middle" x="2873.8207" y="-2433.6283" font-family="Times,serif" font-size="14.00" fill="#000000">aws_subnet.main&#45;private&#45;3</text>
</g>
<!-- [root] aws_subnet.main&#45;private&#45;3&#45;&gt;[root] aws_vpc.main -->
<g id="edge19" class="edge">
<title>[root] aws_subnet.main&#45;private&#45;3&#45;&gt;[root] aws_vpc.main</title>
<path fill="none" stroke="#000000" d="M2850.959,-2419.0967C2624.03,-2238.1269 778.6674,-766.4993 517.3246,-558.0854"/>
<polygon fill="#000000" stroke="#000000" points="519.376,-555.2446 509.3754,-551.7461 515.0115,-560.7175 519.376,-555.2446"/>
</g>
<!-- [root] aws_subnet.main&#45;public&#45;1&#45;&gt;[root] aws_vpc.main -->
<g id="edge20" class="edge">
<title>[root] aws_subnet.main&#45;public&#45;1&#45;&gt;[root] aws_vpc.main</title>
<path fill="none" stroke="#000000" d="M820.7964,-267.0552C759.1189,-316.2414 587.7696,-452.888 517.3807,-509.0212"/>
<polygon fill="#000000" stroke="#000000" points="514.9475,-506.485 509.3114,-515.4563 519.3119,-511.9578 514.9475,-506.485"/>
</g>
<!-- [root] aws_subnet.main&#45;public&#45;2&#45;&gt;[root] aws_vpc.main -->
<g id="edge21" class="edge">
<title>[root] aws_subnet.main&#45;public&#45;2&#45;&gt;[root] aws_vpc.main</title>
<path fill="none" stroke="#000000" d="M103.728,-1328.5977C154.5403,-1223.0848 412.0871,-688.2834 473.4519,-560.858"/>
<polygon fill="#000000" stroke="#000000" points="476.6559,-562.2715 477.8414,-551.7432 470.3491,-559.2343 476.6559,-562.2715"/>
</g>
<!-- [root] aws_subnet.main&#45;public&#45;3&#45;&gt;[root] aws_vpc.main -->
<g id="edge22" class="edge">
<title>[root] aws_subnet.main&#45;public&#45;3&#45;&gt;[root] aws_vpc.main</title>
<path fill="none" stroke="#000000" d="M241.9135,-892.4507C283.6569,-831.2244 419.2145,-632.3979 468.4817,-560.1363"/>
<polygon fill="#000000" stroke="#000000" points="471.5741,-561.8137 474.3155,-551.5796 465.7904,-557.8704 471.5741,-561.8137"/>
</g>
<!-- [root] aws_volume_attachment.ebs&#45;volume&#45;1&#45;attachment -->
<g id="node16" class="node">
<title>[root] aws_volume_attachment.ebs&#45;volume&#45;1&#45;attachment</title>
<polygon fill="none" stroke="#000000" points="1871.282,-66.21 1575.282,-66.21 1575.282,-30.21 1871.282,-30.21 1871.282,-66.21"/>
<text text-anchor="middle" x="1723.282" y="-44.51" font-family="Times,serif" font-size="14.00" fill="#000000">aws_volume_attachment.ebs&#45;volume&#45;1&#45;attachment</text>
</g>
<!-- [root] aws_volume_attachment.ebs&#45;volume&#45;1&#45;attachment&#45;&gt;[root] aws_ebs_volume.ebs&#45;volume&#45;1 -->
<g id="edge23" class="edge">
<title>[root] aws_volume_attachment.ebs&#45;volume&#45;1&#45;attachment&#45;&gt;[root] aws_ebs_volume.ebs&#45;volume&#45;1</title>
<path fill="none" stroke="#000000" d="M1746.1227,-66.4248C1906.0773,-193.9844 2857.3803,-952.6233 3041.1186,-1099.1497"/>
<polygon fill="#000000" stroke="#000000" points="3039.0403,-1101.9689 3049.0409,-1105.4674 3043.4047,-1096.4961 3039.0403,-1101.9689"/>
</g>
<!-- [root] aws_volume_attachment.ebs&#45;volume&#45;1&#45;attachment&#45;&gt;[root] aws_instance.example -->
<g id="edge24" class="edge">
<title>[root] aws_volume_attachment.ebs&#45;volume&#45;1&#45;attachment&#45;&gt;[root] aws_instance.example</title>
<path fill="none" stroke="#000000" d="M1802.3116,-66.248C1883.0122,-84.6674 2007.6129,-113.1067 2088.5407,-131.5779"/>
<polygon fill="#000000" stroke="#000000" points="2088.1498,-135.0786 2098.678,-133.8917 2089.7075,-128.2541 2088.1498,-135.0786"/>
</g>
<!-- [root] aws_vpc.main&#45;&gt;[root] provider.aws -->
<g id="edge25" class="edge">
<title>[root] aws_vpc.main&#45;&gt;[root] provider.aws</title>
<path fill="none" stroke="#000000" d="M534.2762,-537.1492C833.0397,-559.5384 2445.9313,-680.408 2803.5616,-707.2086"/>
<polygon fill="#000000" stroke="#000000" points="2803.5401,-710.7168 2813.7737,-707.9739 2804.0632,-703.7363 2803.5401,-710.7168"/>
</g>
<!-- [root] var.AWS_REGION -->
<g id="node24" class="node">
<title>[root] var.AWS_REGION</title>
<ellipse fill="none" stroke="#000000" cx="3019.7681" cy="-612.9686" rx="104.7816" ry="18"/>
<text text-anchor="middle" x="3019.7681" y="-609.2686" font-family="Times,serif" font-size="14.00" fill="#000000">[root] var.AWS_REGION</text>
</g>
<!-- [root] provider.aws&#45;&gt;[root] var.AWS_REGION -->
<g id="edge41" class="edge">
<title>[root] provider.aws&#45;&gt;[root] var.AWS_REGION</title>
<path fill="none" stroke="#000000" d="M2893.808,-698.8467C2917.4385,-682.7357 2957.1522,-655.6594 2985.6738,-636.2136"/>
<polygon fill="#000000" stroke="#000000" points="2987.8451,-638.9694 2994.1359,-630.4443 2983.9018,-633.1857 2987.8451,-638.9694"/>
</g>
<!-- [root] meta.count&#45;boundary (count boundary fixup) -->
<g id="node21" class="node">
<title>[root] meta.count&#45;boundary (count boundary fixup)</title>
<ellipse fill="none" stroke="#000000" cx="3139.8443" cy="-1574.9011" rx="193.0657" ry="18"/>
<text text-anchor="middle" x="3139.8443" y="-1571.2011" font-family="Times,serif" font-size="14.00" fill="#000000">[root] meta.count&#45;boundary (count boundary fixup)</text>
</g>
<!-- [root] meta.count&#45;boundary (count boundary fixup)&#45;&gt;[root] aws_route_table_association.main&#45;public&#45;1&#45;a -->
<g id="edge26" class="edge">
<title>[root] meta.count&#45;boundary (count boundary fixup)&#45;&gt;[root] aws_route_table_association.main&#45;public&#45;1&#45;a</title>
<path fill="none" stroke="#000000" d="M3066.8127,-1591.57C2668.0058,-1682.5951 755.4042,-2119.1339 318.5166,-2218.8507"/>
<polygon fill="#000000" stroke="#000000" points="317.4428,-2215.5057 308.4724,-2221.1432 319.0005,-2222.3302 317.4428,-2215.5057"/>
</g>
<!-- [root] meta.count&#45;boundary (count boundary fixup)&#45;&gt;[root] aws_route_table_association.main&#45;public&#45;2&#45;a -->
<g id="edge27" class="edge">
<title>[root] meta.count&#45;boundary (count boundary fixup)&#45;&gt;[root] aws_route_table_association.main&#45;public&#45;2&#45;a</title>
<path fill="none" stroke="#000000" d="M3117.1891,-1592.9679C2921.8915,-1748.7126 1524.4201,-2863.1588 1298.8938,-3043.0101"/>
<polygon fill="#000000" stroke="#000000" points="1296.4165,-3040.509 1290.7803,-3049.4803 1300.7809,-3045.9818 1296.4165,-3040.509"/>
</g>
<!-- [root] meta.count&#45;boundary (count boundary fixup)&#45;&gt;[root] aws_route_table_association.main&#45;public&#45;3&#45;a -->
<g id="edge28" class="edge">
<title>[root] meta.count&#45;boundary (count boundary fixup)&#45;&gt;[root] aws_route_table_association.main&#45;public&#45;3&#45;a</title>
<path fill="none" stroke="#000000" d="M3108.6875,-1592.8894C2857.5931,-1737.8589 1166.386,-2714.2777 883.4883,-2877.6088"/>
<polygon fill="#000000" stroke="#000000" points="881.6846,-2874.6087 874.7743,-2882.6398 885.1846,-2880.6708 881.6846,-2874.6087"/>
</g>
<!-- [root] meta.count&#45;boundary (count boundary fixup)&#45;&gt;[root] aws_subnet.main&#45;private&#45;1 -->
<g id="edge29" class="edge">
<title>[root] meta.count&#45;boundary (count boundary fixup)&#45;&gt;[root] aws_subnet.main&#45;private&#45;1</title>
<path fill="none" stroke="#000000" d="M3131.0206,-1593.2235C3065.6052,-1729.0601 2656.3837,-2578.8172 2576.8149,-2744.0436"/>
<polygon fill="#000000" stroke="#000000" points="2573.4423,-2742.9803 2572.2568,-2753.5086 2579.7491,-2746.0175 2573.4423,-2742.9803"/>
</g>
<!-- [root] meta.count&#45;boundary (count boundary fixup)&#45;&gt;[root] aws_subnet.main&#45;private&#45;2 -->
<g id="edge30" class="edge">
<title>[root] meta.count&#45;boundary (count boundary fixup)&#45;&gt;[root] aws_subnet.main&#45;private&#45;2</title>
<path fill="none" stroke="#000000" d="M3127.5591,-1592.9201C3024.8349,-1743.5888 2309.5394,-2792.7346 2186.2693,-2973.5387"/>
<polygon fill="#000000" stroke="#000000" points="2183.2796,-2971.7106 2180.5382,-2981.9447 2189.0633,-2975.6539 2183.2796,-2971.7106"/>
</g>
<!-- [root] meta.count&#45;boundary (count boundary fixup)&#45;&gt;[root] aws_subnet.main&#45;private&#45;3 -->
<g id="edge31" class="edge">
<title>[root] meta.count&#45;boundary (count boundary fixup)&#45;&gt;[root] aws_subnet.main&#45;private&#45;3</title>
<path fill="none" stroke="#000000" d="M3134.288,-1592.9141C3100.6167,-1702.0737 2923.9514,-2274.8084 2882.5214,-2409.1212"/>
<polygon fill="#000000" stroke="#000000" points="2879.0617,-2408.4634 2879.4586,-2419.0508 2885.7507,-2410.5267 2879.0617,-2408.4634"/>
</g>
<!-- [root] meta.count&#45;boundary (count boundary fixup)&#45;&gt;[root] aws_volume_attachment.ebs&#45;volume&#45;1&#45;attachment -->
<g id="edge32" class="edge">
<title>[root] meta.count&#45;boundary (count boundary fixup)&#45;&gt;[root] aws_volume_attachment.ebs&#45;volume&#45;1&#45;attachment</title>
<path fill="none" stroke="#000000" d="M3123.1981,-1556.9608C2977.4448,-1399.8761 1919.6266,-259.8192 1747.0557,-73.8319"/>
<polygon fill="#000000" stroke="#000000" points="1749.5401,-71.3638 1740.1727,-66.4139 1744.4088,-76.125 1749.5401,-71.3638"/>
</g>
<!-- [root] var.PATH_TO_PRIVATE_KEY -->
<g id="node22" class="node">
<title>[root] var.PATH_TO_PRIVATE_KEY</title>
<ellipse fill="none" stroke="#000000" cx="3361.331" cy="-1574.9011" rx="149.4735" ry="18"/>
<text text-anchor="middle" x="3361.331" y="-1571.2011" font-family="Times,serif" font-size="14.00" fill="#000000">[root] var.PATH_TO_PRIVATE_KEY</text>
</g>
<!-- [root] meta.count&#45;boundary (count boundary fixup)&#45;&gt;[root] var.PATH_TO_PRIVATE_KEY -->
<g id="edge33" class="edge">
<title>[root] meta.count&#45;boundary (count boundary fixup)&#45;&gt;[root] var.PATH_TO_PRIVATE_KEY</title>
<path fill="none" stroke="#000000" d="M3333.2795,-1574.9011C3333.3462,-1574.9011 3333.4128,-1574.9011 3333.4793,-1574.9011"/>
<polygon fill="#000000" stroke="#000000" points="3323.6803,-1578.4061 3333.6785,-1574.9011 3323.6768,-1571.4061 3323.6803,-1578.4061"/>
</g>
<!-- [root] provider.aws (close) -->
<g id="node23" class="node">
<title>[root] provider.aws (close)</title>
<ellipse fill="none" stroke="#000000" cx="1723.282" cy="-3101.5921" rx="105.0817" ry="18"/>
<text text-anchor="middle" x="1723.282" y="-3097.8921" font-family="Times,serif" font-size="14.00" fill="#000000">[root] provider.aws (close)</text>
</g>
<!-- [root] provider.aws (close)&#45;&gt;[root] aws_route_table_association.main&#45;public&#45;1&#45;a -->
<g id="edge34" class="edge">
<title>[root] provider.aws (close)&#45;&gt;[root] aws_route_table_association.main&#45;public&#45;1&#45;a</title>
<path fill="none" stroke="#000000" d="M1693.1058,-3084.1699C1504.2231,-2975.1184 485.6884,-2387.0671 269.7567,-2262.3989"/>
<polygon fill="#000000" stroke="#000000" points="271.3639,-2259.2854 260.9536,-2257.3165 267.8639,-2265.3476 271.3639,-2259.2854"/>
</g>
<!-- [root] provider.aws (close)&#45;&gt;[root] aws_route_table_association.main&#45;public&#45;2&#45;a -->
<g id="edge35" class="edge">
<title>[root] provider.aws (close)&#45;&gt;[root] aws_route_table_association.main&#45;public&#45;2&#45;a</title>
<path fill="none" stroke="#000000" d="M1626.7706,-3094.3596C1563.8548,-3089.6447 1480.6645,-3083.4105 1410.2534,-3078.1339"/>
<polygon fill="#000000" stroke="#000000" points="1410.1951,-3074.6198 1399.9615,-3077.3626 1409.6719,-3081.6002 1410.1951,-3074.6198"/>
</g>
<!-- [root] provider.aws (close)&#45;&gt;[root] aws_route_table_association.main&#45;public&#45;3&#45;a -->
<g id="edge36" class="edge">
<title>[root] provider.aws (close)&#45;&gt;[root] aws_route_table_association.main&#45;public&#45;3&#45;a</title>
<path fill="none" stroke="#000000" d="M1660.002,-3087.1489C1505.7912,-3051.9513 1110.2227,-2961.6654 932.3606,-2921.0695"/>
<polygon fill="#000000" stroke="#000000" points="933.0375,-2917.6341 922.5094,-2918.821 931.4798,-2924.4585 933.0375,-2917.6341"/>
</g>
<!-- [root] provider.aws (close)&#45;&gt;[root] aws_subnet.main&#45;private&#45;1 -->
<g id="edge37" class="edge">
<title>[root] provider.aws (close)&#45;&gt;[root] aws_subnet.main&#45;private&#45;1</title>
<path fill="none" stroke="#000000" d="M1765.5202,-3085.0148C1905.0142,-3030.2675 2351.0041,-2855.2293 2508.0556,-2793.5912"/>
<polygon fill="#000000" stroke="#000000" points="2509.5048,-2796.7824 2517.5348,-2789.8709 2506.9473,-2790.2663 2509.5048,-2796.7824"/>
</g>
<!-- [root] provider.aws (close)&#45;&gt;[root] aws_subnet.main&#45;private&#45;2 -->
<g id="edge38" class="edge">
<title>[root] provider.aws (close)&#45;&gt;[root] aws_subnet.main&#45;private&#45;2</title>
<path fill="none" stroke="#000000" d="M1786.5552,-3087.1504C1863.134,-3069.6718 1992.5627,-3040.1306 2079.1806,-3020.3606"/>
<polygon fill="#000000" stroke="#000000" points="2080.0285,-3023.7571 2088.999,-3018.1196 2078.4708,-3016.9326 2080.0285,-3023.7571"/>
</g>
<!-- [root] provider.aws (close)&#45;&gt;[root] aws_subnet.main&#45;private&#45;3 -->
<g id="edge39" class="edge">
<title>[root] provider.aws (close)&#45;&gt;[root] aws_subnet.main&#45;private&#45;3</title>
<path fill="none" stroke="#000000" d="M1753.4647,-3084.1661C1912.5435,-2992.3219 2653.176,-2564.7176 2833.9463,-2460.3498"/>
<polygon fill="#000000" stroke="#000000" points="2835.7071,-2463.3747 2842.6173,-2455.3435 2832.2071,-2457.3125 2835.7071,-2463.3747"/>
</g>
<!-- [root] provider.aws (close)&#45;&gt;[root] aws_volume_attachment.ebs&#45;volume&#45;1&#45;attachment -->
<g id="edge40" class="edge">
<title>[root] provider.aws (close)&#45;&gt;[root] aws_volume_attachment.ebs&#45;volume&#45;1&#45;attachment</title>
<path fill="none" stroke="#000000" d="M1723.282,-3083.275C1723.282,-2845.6039 1723.282,-370.1315 1723.282,-76.6019"/>
<polygon fill="#000000" stroke="#000000" points="1726.7821,-76.3705 1723.282,-66.3705 1719.7821,-76.3705 1726.7821,-76.3705"/>
</g>
<!-- [root] root -->
<g id="node25" class="node">
<title>[root] root</title>
<ellipse fill="none" stroke="#000000" cx="3071.8275" cy="-2026.163" rx="47.3916" ry="18"/>
<text text-anchor="middle" x="3071.8275" y="-2022.463" font-family="Times,serif" font-size="14.00" fill="#000000">[root] root</text>
</g>
<!-- [root] root&#45;&gt;[root] meta.count&#45;boundary (count boundary fixup) -->
<g id="edge42" class="edge">
<title>[root] root&#45;&gt;[root] meta.count&#45;boundary (count boundary fixup)</title>
<path fill="none" stroke="#000000" d="M3074.5781,-2007.9141C3085.0888,-1938.1799 3122.7654,-1688.2121 3135.5586,-1603.3346"/>
<polygon fill="#000000" stroke="#000000" points="3139.0299,-1603.787 3137.0595,-1593.377 3132.108,-1602.7437 3139.0299,-1603.787"/>
</g>
<!-- [root] root&#45;&gt;[root] provider.aws (close) -->
<g id="edge43" class="edge">
<title>[root] root&#45;&gt;[root] provider.aws (close)</title>
<path fill="none" stroke="#000000" d="M3051.1847,-2042.625C2897.796,-2164.9484 1936.3963,-2931.6391 1753.3608,-3077.6051"/>
<polygon fill="#000000" stroke="#000000" points="1751.1148,-3074.9194 1745.4787,-3083.8908 1755.4793,-3080.3923 1751.1148,-3074.9194"/>
</g>
</g>
</svg>
