<?xml version="1.0" encoding="UTF-8" standalone="no"?>
<!DOCTYPE svg PUBLIC "-//W3C//DTD SVG 1.1//EN"
 "http://www.w3.org/Graphics/SVG/1.1/DTD/svg11.dtd">
<!-- Generated by graphviz version 2.40.1 (20161225.0304)
 -->
<!-- Title: %3 Pages: 1 -->
<svg width="485pt" height="444pt"
 viewBox="0.00 0.00 485.31 444.07" xmlns="http://www.w3.org/2000/svg" xmlns:xlink="http://www.w3.org/1999/xlink">
<g id="graph0" class="graph" transform="scale(1 1) rotate(0) translate(4 440.0657)">
<title>%3</title>
<polygon fill="#ffffff" stroke="transparent" points="-4,4 -4,-440.0657 481.3071,-440.0657 481.3071,4 -4,4"/>
<!-- [root] aws_ebs_volume.ebs&#45;volume&#45;1 -->
<g id="node1" class="node">
<title>[root] aws_ebs_volume.ebs&#45;volume&#45;1</title>
<polygon fill="none" stroke="#000000" points="277.9536,-289.6622 88.9536,-289.6622 88.9536,-253.6622 277.9536,-253.6622 277.9536,-289.6622"/>
<text text-anchor="middle" x="183.4536" y="-267.9622" font-family="Times,serif" font-size="14.00" fill="#000000">aws_ebs_volume.ebs&#45;volume&#45;1</text>
</g>
<!-- [root] provider.aws -->
<g id="node18" class="node">
<title>[root] provider.aws</title>
<polygon fill="none" stroke="#000000" points="268.8071,-330.6517 188.8737,-312.6517 268.8071,-294.6517 348.7404,-312.6517 268.8071,-330.6517"/>
<text text-anchor="middle" x="268.8071" y="-308.9517" font-family="Times,serif" font-size="14.00" fill="#000000">provider.aws</text>
</g>
<!-- [root] aws_ebs_volume.ebs&#45;volume&#45;1&#45;&gt;[root] provider.aws -->
<g id="edge1" class="edge">
<title>[root] aws_ebs_volume.ebs&#45;volume&#45;1&#45;&gt;[root] provider.aws</title>
<path fill="none" stroke="#000000" d="M221.1393,-289.7601C225.259,-291.7385 229.4416,-293.7472 233.5308,-295.7109"/>
<polygon fill="#000000" stroke="#000000" points="232.2992,-299.0021 242.8288,-300.1761 235.3295,-292.692 232.2992,-299.0021"/>
</g>
<!-- [root] aws_instance.example -->
<g id="node2" class="node">
<title>[root] aws_instance.example</title>
<polygon fill="none" stroke="#000000" points="220.6787,-277.6788 81.6787,-277.6788 81.6787,-241.6788 220.6787,-241.6788 220.6787,-277.6788"/>
<text text-anchor="middle" x="151.1787" y="-255.9788" font-family="Times,serif" font-size="14.00" fill="#000000">aws_instance.example</text>
</g>
<!-- [root] aws_key_pair.mykeypair -->
<g id="node4" class="node">
<title>[root] aws_key_pair.mykeypair</title>
<polygon fill="none" stroke="#000000" points="263.1768,-363.3314 109.1768,-363.3314 109.1768,-327.3314 263.1768,-327.3314 263.1768,-363.3314"/>
<text text-anchor="middle" x="186.1768" y="-341.6314" font-family="Times,serif" font-size="14.00" fill="#000000">aws_key_pair.mykeypair</text>
</g>
<!-- [root] aws_instance.example&#45;&gt;[root] aws_key_pair.mykeypair -->
<g id="edge2" class="edge">
<title>[root] aws_instance.example&#45;&gt;[root] aws_key_pair.mykeypair</title>
<path fill="none" stroke="#000000" d="M158.6009,-277.8435C163.3338,-289.4265 169.5585,-304.6606 174.896,-317.7234"/>
<polygon fill="#000000" stroke="#000000" points="171.7428,-319.2597 178.7653,-327.1929 178.2227,-316.6119 171.7428,-319.2597"/>
</g>
<!-- [root] aws_security_group.allow&#45;ssh -->
<g id="node9" class="node">
<title>[root] aws_security_group.allow&#45;ssh</title>
<polygon fill="none" stroke="#000000" points="327.5041,-303.6635 146.5041,-303.6635 146.5041,-267.6635 327.5041,-267.6635 327.5041,-303.6635"/>
<text text-anchor="middle" x="237.0041" y="-281.9635" font-family="Times,serif" font-size="14.00" fill="#000000">aws_security_group.allow&#45;ssh</text>
</g>
<!-- [root] aws_instance.example&#45;&gt;[root] aws_security_group.allow&#45;ssh -->
<g id="edge3" class="edge">
<title>[root] aws_instance.example&#45;&gt;[root] aws_security_group.allow&#45;ssh</title>
<path fill="none" stroke="#000000" d="M210.7873,-277.7261C210.8445,-277.7434 210.9017,-277.7607 210.9588,-277.778"/>
<polygon fill="#000000" stroke="#000000" points="200.5432,-278.278 211.13,-277.8298 202.5744,-271.5782 200.5432,-278.278"/>
</g>
<!-- [root] aws_subnet.main&#45;public&#45;1 -->
<g id="node13" class="node">
<title>[root] aws_subnet.main&#45;public&#45;1</title>
<polygon fill="none" stroke="#000000" points="311.4983,-245.3691 150.4983,-245.3691 150.4983,-209.3691 311.4983,-209.3691 311.4983,-245.3691"/>
<text text-anchor="middle" x="230.9983" y="-223.6691" font-family="Times,serif" font-size="14.00" fill="#000000">aws_subnet.main&#45;public&#45;1</text>
</g>
<!-- [root] aws_instance.example&#45;&gt;[root] aws_subnet.main&#45;public&#45;1 -->
<g id="edge4" class="edge">
<title>[root] aws_instance.example&#45;&gt;[root] aws_subnet.main&#45;public&#45;1</title>
<path fill="none" stroke="#000000" d="M195.7559,-241.6347C195.8273,-241.6058 195.8987,-241.5769 195.9701,-241.548"/>
<polygon fill="#000000" stroke="#000000" points="188.2287,-248.4605 196.1842,-241.4613 185.6003,-241.9717 188.2287,-248.4605"/>
</g>
<!-- [root] var.AMIS -->
<g id="node19" class="node">
<title>[root] var.AMIS</title>
<ellipse fill="none" stroke="#000000" cx="69.5438" cy="-273.9429" rx="69.5877" ry="18"/>
<text text-anchor="middle" x="69.5438" y="-270.2429" font-family="Times,serif" font-size="14.00" fill="#000000">[root] var.AMIS</text>
</g>
<!-- [root] aws_instance.example&#45;&gt;[root] var.AMIS -->
<g id="edge5" class="edge">
<title>[root] aws_instance.example&#45;&gt;[root] var.AMIS</title>
<path fill="none" stroke="#000000" d="M81.5893,-271.8382C81.5326,-271.8481 81.4761,-271.8579 81.4197,-271.8678"/>
<polygon fill="#000000" stroke="#000000" points="90.4977,-266.7234 81.251,-271.8973 91.7059,-273.619 90.4977,-266.7234"/>
</g>
<!-- [root] aws_internet_gateway.main&#45;gw -->
<g id="node3" class="node">
<title>[root] aws_internet_gateway.main&#45;gw</title>
<polygon fill="none" stroke="#000000" points="477.3071,-233.7655 287.3071,-233.7655 287.3071,-197.7655 477.3071,-197.7655 477.3071,-233.7655"/>
<text text-anchor="middle" x="382.3071" y="-212.0655" font-family="Times,serif" font-size="14.00" fill="#000000">aws_internet_gateway.main&#45;gw</text>
</g>
<!-- [root] aws_vpc.main -->
<g id="node17" class="node">
<title>[root] aws_vpc.main</title>
<polygon fill="none" stroke="#000000" points="340.1553,-246.0446 245.1553,-246.0446 245.1553,-210.0446 340.1553,-210.0446 340.1553,-246.0446"/>
<text text-anchor="middle" x="292.6553" y="-224.3446" font-family="Times,serif" font-size="14.00" fill="#000000">aws_vpc.main</text>
</g>
<!-- [root] aws_internet_gateway.main&#45;gw&#45;&gt;[root] aws_vpc.main -->
<g id="edge6" class="edge">
<title>[root] aws_internet_gateway.main&#45;gw&#45;&gt;[root] aws_vpc.main</title>
<path fill="none" stroke="#000000" d="M292.7203,-228.0357C292.7095,-228.0372 292.7001,-228.0385 292.692,-228.0396"/>
<polygon fill="#000000" stroke="#000000" points="302.09,-223.1757 292.6716,-228.0424 303.0692,-230.1113 302.09,-223.1757"/>
</g>
<!-- [root] aws_key_pair.mykeypair&#45;&gt;[root] provider.aws -->
<g id="edge7" class="edge">
<title>[root] aws_key_pair.mykeypair&#45;&gt;[root] provider.aws</title>
<path fill="none" stroke="#000000" d="M231.8422,-327.271C231.9262,-327.2378 232.0102,-327.2046 232.0941,-327.1714"/>
<polygon fill="#000000" stroke="#000000" points="231.7717,-331.0628 239.7837,-324.1303 229.1973,-324.5534 231.7717,-331.0628"/>
</g>
<!-- [root] var.PATH_TO_PUBLIC_KEY -->
<g id="node20" class="node">
<title>[root] var.PATH_TO_PUBLIC_KEY</title>
<ellipse fill="none" stroke="#000000" cx="158.6501" cy="-418.0657" rx="143.7746" ry="18"/>
<text text-anchor="middle" x="158.6501" y="-414.3657" font-family="Times,serif" font-size="14.00" fill="#000000">[root] var.PATH_TO_PUBLIC_KEY</text>
</g>
<!-- [root] aws_key_pair.mykeypair&#45;&gt;[root] var.PATH_TO_PUBLIC_KEY -->
<g id="edge8" class="edge">
<title>[root] aws_key_pair.mykeypair&#45;&gt;[root] var.PATH_TO_PUBLIC_KEY</title>
<path fill="none" stroke="#000000" d="M179.2307,-363.6853C176.1757,-371.7575 172.5212,-381.4138 169.1452,-390.3343"/>
<polygon fill="#000000" stroke="#000000" points="165.7649,-389.3781 165.4987,-399.9696 172.3117,-391.8558 165.7649,-389.3781"/>
</g>
<!-- [root] aws_route_table.main&#45;public -->
<g id="node5" class="node">
<title>[root] aws_route_table.main&#45;public</title>
<polygon fill="none" stroke="#000000" points="457.5029,-128.7809 282.5029,-128.7809 282.5029,-92.7809 457.5029,-92.7809 457.5029,-128.7809"/>
<text text-anchor="middle" x="370.0029" y="-107.0809" font-family="Times,serif" font-size="14.00" fill="#000000">aws_route_table.main&#45;public</text>
</g>
<!-- [root] aws_route_table.main&#45;public&#45;&gt;[root] aws_internet_gateway.main&#45;gw -->
<g id="edge9" class="edge">
<title>[root] aws_route_table.main&#45;public&#45;&gt;[root] aws_internet_gateway.main&#45;gw</title>
<path fill="none" stroke="#000000" d="M372.1461,-129.0678C374.0428,-145.2509 376.8399,-169.1167 379.0194,-187.7136"/>
<polygon fill="#000000" stroke="#000000" points="375.5481,-188.1636 380.1884,-197.6881 382.5005,-187.3487 375.5481,-188.1636"/>
</g>
<!-- [root] aws_route_table_association.main&#45;public&#45;1&#45;a -->
<g id="node6" class="node">
<title>[root] aws_route_table_association.main&#45;public&#45;1&#45;a</title>
<polygon fill="none" stroke="#000000" points="409.0049,-144.2101 146.0049,-144.2101 146.0049,-108.2101 409.0049,-108.2101 409.0049,-144.2101"/>
<text text-anchor="middle" x="277.5049" y="-122.5101" font-family="Times,serif" font-size="14.00" fill="#000000">aws_route_table_association.main&#45;public&#45;1&#45;a</text>
</g>
<!-- [root] aws_route_table_association.main&#45;public&#45;1&#45;a&#45;&gt;[root] aws_route_table.main&#45;public -->
<g id="edge10" class="edge">
<title>[root] aws_route_table_association.main&#45;public&#45;1&#45;a&#45;&gt;[root] aws_route_table.main&#45;public</title>
<path fill="none" stroke="#000000" d="M369.9359,-110.792C369.947,-110.7902 369.9567,-110.7886 369.9651,-110.7872"/>
<polygon fill="#000000" stroke="#000000" points="360.7113,-115.9206 369.9861,-110.7837 359.5322,-109.0156 360.7113,-115.9206"/>
</g>
<!-- [root] aws_route_table_association.main&#45;public&#45;1&#45;a&#45;&gt;[root] aws_subnet.main&#45;public&#45;1 -->
<g id="edge11" class="edge">
<title>[root] aws_route_table_association.main&#45;public&#45;1&#45;a&#45;&gt;[root] aws_subnet.main&#45;public&#45;1</title>
<path fill="none" stroke="#000000" d="M269.1905,-144.2953C262.0921,-159.7353 251.773,-182.1809 243.65,-199.8497"/>
<polygon fill="#000000" stroke="#000000" points="240.3947,-198.5516 239.3976,-209.0994 246.7548,-201.4756 240.3947,-198.5516"/>
</g>
<!-- [root] aws_route_table_association.main&#45;public&#45;2&#45;a -->
<g id="node7" class="node">
<title>[root] aws_route_table_association.main&#45;public&#45;2&#45;a</title>
<polygon fill="none" stroke="#000000" points="427.8237,-86.5622 164.8237,-86.5622 164.8237,-50.5622 427.8237,-50.5622 427.8237,-86.5622"/>
<text text-anchor="middle" x="296.3237" y="-64.8622" font-family="Times,serif" font-size="14.00" fill="#000000">aws_route_table_association.main&#45;public&#45;2&#45;a</text>
</g>
<!-- [root] aws_route_table_association.main&#45;public&#45;2&#45;a&#45;&gt;[root] aws_route_table.main&#45;public -->
<g id="edge12" class="edge">
<title>[root] aws_route_table_association.main&#45;public&#45;2&#45;a&#45;&gt;[root] aws_route_table.main&#45;public</title>
<path fill="none" stroke="#000000" d="M327.9979,-86.7117C328.5342,-87.019 329.072,-87.3272 329.6108,-87.6359"/>
<polygon fill="#000000" stroke="#000000" points="327.9388,-90.7117 338.3554,-92.6466 331.419,-84.6381 327.9388,-90.7117"/>
</g>
<!-- [root] aws_subnet.main&#45;public&#45;2 -->
<g id="node14" class="node">
<title>[root] aws_subnet.main&#45;public&#45;2</title>
<polygon fill="none" stroke="#000000" points="426.1,-175.6163 265.1,-175.6163 265.1,-139.6163 426.1,-139.6163 426.1,-175.6163"/>
<text text-anchor="middle" x="345.6" y="-153.9163" font-family="Times,serif" font-size="14.00" fill="#000000">aws_subnet.main&#45;public&#45;2</text>
</g>
<!-- [root] aws_route_table_association.main&#45;public&#45;2&#45;a&#45;&gt;[root] aws_subnet.main&#45;public&#45;2 -->
<g id="edge13" class="edge">
<title>[root] aws_route_table_association.main&#45;public&#45;2&#45;a&#45;&gt;[root] aws_subnet.main&#45;public&#45;2</title>
<path fill="none" stroke="#000000" d="M306.2955,-86.5836C313.2624,-99.1745 322.6892,-116.211 330.5643,-130.4432"/>
<polygon fill="#000000" stroke="#000000" points="327.5699,-132.2608 335.4739,-139.316 333.6947,-128.8716 327.5699,-132.2608"/>
</g>
<!-- [root] aws_route_table_association.main&#45;public&#45;3&#45;a -->
<g id="node8" class="node">
<title>[root] aws_route_table_association.main&#45;public&#45;3&#45;a</title>
<polygon fill="none" stroke="#000000" points="441.2064,-114.1537 178.2064,-114.1537 178.2064,-78.1537 441.2064,-78.1537 441.2064,-114.1537"/>
<text text-anchor="middle" x="309.7064" y="-92.4537" font-family="Times,serif" font-size="14.00" fill="#000000">aws_route_table_association.main&#45;public&#45;3&#45;a</text>
</g>
<!-- [root] aws_route_table_association.main&#45;public&#45;3&#45;a&#45;&gt;[root] aws_route_table.main&#45;public -->
<g id="edge14" class="edge">
<title>[root] aws_route_table_association.main&#45;public&#45;3&#45;a&#45;&gt;[root] aws_route_table.main&#45;public</title>
<path fill="none" stroke="#000000" d="M369.9592,-110.7703C369.9665,-110.772 369.9728,-110.7736 369.9783,-110.7749"/>
<polygon fill="#000000" stroke="#000000" points="359.4278,-111.7688 369.9919,-110.7782 361.1158,-104.9647 359.4278,-111.7688"/>
</g>
<!-- [root] aws_subnet.main&#45;public&#45;3 -->
<g id="node15" class="node">
<title>[root] aws_subnet.main&#45;public&#45;3</title>
<polygon fill="none" stroke="#000000" points="431.8529,-214.1519 270.8529,-214.1519 270.8529,-178.1519 431.8529,-178.1519 431.8529,-214.1519"/>
<text text-anchor="middle" x="351.3529" y="-192.4519" font-family="Times,serif" font-size="14.00" fill="#000000">aws_subnet.main&#45;public&#45;3</text>
</g>
<!-- [root] aws_route_table_association.main&#45;public&#45;3&#45;a&#45;&gt;[root] aws_subnet.main&#45;public&#45;3 -->
<g id="edge15" class="edge">
<title>[root] aws_route_table_association.main&#45;public&#45;3&#45;a&#45;&gt;[root] aws_subnet.main&#45;public&#45;3</title>
<path fill="none" stroke="#000000" d="M317.345,-114.4949C323.6266,-129.5777 332.6274,-151.1897 339.7914,-168.3913"/>
<polygon fill="#000000" stroke="#000000" points="336.6871,-170.0412 343.7627,-177.927 343.149,-167.35 336.6871,-170.0412"/>
</g>
<!-- [root] aws_security_group.allow&#45;ssh&#45;&gt;[root] aws_vpc.main -->
<g id="edge16" class="edge">
<title>[root] aws_security_group.allow&#45;ssh&#45;&gt;[root] aws_vpc.main</title>
<path fill="none" stroke="#000000" d="M254.6125,-267.4326C258.7741,-263.1238 263.2898,-258.4485 267.7076,-253.8744"/>
<polygon fill="#000000" stroke="#000000" points="270.5407,-255.9792 274.9705,-246.3548 265.5058,-251.1161 270.5407,-255.9792"/>
</g>
<!-- [root] aws_subnet.main&#45;private&#45;1 -->
<g id="node10" class="node">
<title>[root] aws_subnet.main&#45;private&#45;1</title>
<polygon fill="none" stroke="#000000" points="354.7654,-178.2433 190.7654,-178.2433 190.7654,-142.2433 354.7654,-142.2433 354.7654,-178.2433"/>
<text text-anchor="middle" x="272.7654" y="-156.5433" font-family="Times,serif" font-size="14.00" fill="#000000">aws_subnet.main&#45;private&#45;1</text>
</g>
<!-- [root] aws_subnet.main&#45;private&#45;1&#45;&gt;[root] aws_vpc.main -->
<g id="edge17" class="edge">
<title>[root] aws_subnet.main&#45;private&#45;1&#45;&gt;[root] aws_vpc.main</title>
<path fill="none" stroke="#000000" d="M278.0956,-178.4128C280.0575,-185.1008 282.3274,-192.8383 284.4825,-200.1848"/>
<polygon fill="#000000" stroke="#000000" points="281.137,-201.2146 287.3105,-209.825 287.854,-199.2441 281.137,-201.2146"/>
</g>
<!-- [root] aws_subnet.main&#45;private&#45;2 -->
<g id="node11" class="node">
<title>[root] aws_subnet.main&#45;private&#45;2</title>
<polygon fill="none" stroke="#000000" points="286.4527,-186.5027 122.4527,-186.5027 122.4527,-150.5027 286.4527,-150.5027 286.4527,-186.5027"/>
<text text-anchor="middle" x="204.4527" y="-164.8027" font-family="Times,serif" font-size="14.00" fill="#000000">aws_subnet.main&#45;private&#45;2</text>
</g>
<!-- [root] aws_subnet.main&#45;private&#45;2&#45;&gt;[root] aws_vpc.main -->
<g id="edge18" class="edge">
<title>[root] aws_subnet.main&#45;private&#45;2&#45;&gt;[root] aws_vpc.main</title>
<path fill="none" stroke="#000000" d="M231.3957,-186.6908C239.6028,-192.2311 248.7493,-198.4055 257.419,-204.2581"/>
<polygon fill="#000000" stroke="#000000" points="255.6308,-207.2737 265.8773,-209.9679 259.5474,-201.4719 255.6308,-207.2737"/>
</g>
<!-- [root] aws_subnet.main&#45;private&#45;3 -->
<g id="node12" class="node">
<title>[root] aws_subnet.main&#45;private&#45;3</title>
<polygon fill="none" stroke="#000000" points="320.2797,-188.3795 156.2797,-188.3795 156.2797,-152.3795 320.2797,-152.3795 320.2797,-188.3795"/>
<text text-anchor="middle" x="238.2797" y="-166.6795" font-family="Times,serif" font-size="14.00" fill="#000000">aws_subnet.main&#45;private&#45;3</text>
</g>
<!-- [root] aws_subnet.main&#45;private&#45;3&#45;&gt;[root] aws_vpc.main -->
<g id="edge19" class="edge">
<title>[root] aws_subnet.main&#45;private&#45;3&#45;&gt;[root] aws_vpc.main</title>
<path fill="none" stroke="#000000" d="M255.4845,-188.6251C259.5507,-192.9373 263.9629,-197.6164 268.2795,-202.1941"/>
<polygon fill="#000000" stroke="#000000" points="265.9688,-204.8454 275.3758,-209.7198 271.0617,-200.043 265.9688,-204.8454"/>
</g>
<!-- [root] aws_subnet.main&#45;public&#45;1&#45;&gt;[root] aws_vpc.main -->
<g id="edge20" class="edge">
<title>[root] aws_subnet.main&#45;public&#45;1&#45;&gt;[root] aws_vpc.main</title>
<path fill="none" stroke="#000000" d="M292.6106,-228.0441C292.618,-228.0442 292.6245,-228.0443 292.6301,-228.0444"/>
<polygon fill="#000000" stroke="#000000" points="282.5817,-231.3645 292.6441,-228.0445 282.7076,-224.3649 282.5817,-231.3645"/>
</g>
<!-- [root] aws_subnet.main&#45;public&#45;2&#45;&gt;[root] aws_vpc.main -->
<g id="edge21" class="edge">
<title>[root] aws_subnet.main&#45;public&#45;2&#45;&gt;[root] aws_vpc.main</title>
<path fill="none" stroke="#000000" d="M331.9654,-175.7534C326.0827,-183.5786 319.0841,-192.8884 312.6337,-201.4689"/>
<polygon fill="#000000" stroke="#000000" points="309.639,-199.6278 306.4277,-209.7243 315.2343,-203.8341 309.639,-199.6278"/>
</g>
<!-- [root] aws_subnet.main&#45;public&#45;3&#45;&gt;[root] aws_vpc.main -->
<g id="edge22" class="edge">
<title>[root] aws_subnet.main&#45;public&#45;3&#45;&gt;[root] aws_vpc.main</title>
<path fill="none" stroke="#000000" d="M317.889,-214.3342C317.8375,-214.3622 317.7861,-214.3901 317.7346,-214.4181"/>
<polygon fill="#000000" stroke="#000000" points="324.6957,-206.6492 317.5803,-214.5019 328.0397,-212.8004 324.6957,-206.6492"/>
</g>
<!-- [root] aws_volume_attachment.ebs&#45;volume&#45;1&#45;attachment -->
<g id="node16" class="node">
<title>[root] aws_volume_attachment.ebs&#45;volume&#45;1&#45;attachment</title>
<polygon fill="none" stroke="#000000" points="300.8065,-196.1229 4.8065,-196.1229 4.8065,-160.1229 300.8065,-160.1229 300.8065,-196.1229"/>
<text text-anchor="middle" x="152.8065" y="-174.4229" font-family="Times,serif" font-size="14.00" fill="#000000">aws_volume_attachment.ebs&#45;volume&#45;1&#45;attachment</text>
</g>
<!-- [root] aws_volume_attachment.ebs&#45;volume&#45;1&#45;attachment&#45;&gt;[root] aws_ebs_volume.ebs&#45;volume&#45;1 -->
<g id="edge23" class="edge">
<title>[root] aws_volume_attachment.ebs&#45;volume&#45;1&#45;attachment&#45;&gt;[root] aws_ebs_volume.ebs&#45;volume&#45;1</title>
<path fill="none" stroke="#000000" d="M158.7155,-196.1582C163.1387,-209.6585 169.2707,-228.374 174.3228,-243.7939"/>
<polygon fill="#000000" stroke="#000000" points="171.0184,-244.9499 177.4581,-253.3631 177.6705,-242.7704 171.0184,-244.9499"/>
</g>
<!-- [root] aws_volume_attachment.ebs&#45;volume&#45;1&#45;attachment&#45;&gt;[root] aws_instance.example -->
<g id="edge24" class="edge">
<title>[root] aws_volume_attachment.ebs&#45;volume&#45;1&#45;attachment&#45;&gt;[root] aws_instance.example</title>
<path fill="none" stroke="#000000" d="M152.4452,-196.2228C152.2387,-206.5704 151.9751,-219.7746 151.742,-231.4557"/>
<polygon fill="#000000" stroke="#000000" points="148.2393,-231.5616 151.5389,-241.6295 155.2379,-231.7014 148.2393,-231.5616"/>
</g>
<!-- [root] aws_vpc.main&#45;&gt;[root] provider.aws -->
<g id="edge25" class="edge">
<title>[root] aws_vpc.main&#45;&gt;[root] provider.aws</title>
<path fill="none" stroke="#000000" d="M287.4806,-246.4031C284.2378,-257.9078 280.0019,-272.9356 276.3844,-285.7695"/>
<polygon fill="#000000" stroke="#000000" points="272.9909,-284.9079 273.6466,-295.4824 279.7284,-286.807 272.9909,-284.9079"/>
</g>
<!-- [root] var.AWS_REGION -->
<g id="node24" class="node">
<title>[root] var.AWS_REGION</title>
<ellipse fill="none" stroke="#000000" cx="318.7433" cy="-377.233" rx="104.7816" ry="18"/>
<text text-anchor="middle" x="318.7433" y="-373.533" font-family="Times,serif" font-size="14.00" fill="#000000">[root] var.AWS_REGION</text>
</g>
<!-- [root] provider.aws&#45;&gt;[root] var.AWS_REGION -->
<g id="edge41" class="edge">
<title>[root] provider.aws&#45;&gt;[root] var.AWS_REGION</title>
<path fill="none" stroke="#000000" d="M280.8952,-328.285C286.1522,-335.0838 292.4583,-343.2392 298.4018,-350.9258"/>
<polygon fill="#000000" stroke="#000000" points="295.7563,-353.2263 304.6422,-358.9963 301.294,-348.9444 295.7563,-353.2263"/>
</g>
<!-- [root] meta.count&#45;boundary (count boundary fixup) -->
<g id="node21" class="node">
<title>[root] meta.count&#45;boundary (count boundary fixup)</title>
<ellipse fill="none" stroke="#000000" cx="221.1107" cy="-98.6191" rx="193.0657" ry="18"/>
<text text-anchor="middle" x="221.1107" y="-94.9191" font-family="Times,serif" font-size="14.00" fill="#000000">[root] meta.count&#45;boundary (count boundary fixup)</text>
</g>
<!-- [root] meta.count&#45;boundary (count boundary fixup)&#45;&gt;[root] aws_route_table_association.main&#45;public&#45;1&#45;a -->
<g id="edge26" class="edge">
<title>[root] meta.count&#45;boundary (count boundary fixup)&#45;&gt;[root] aws_route_table_association.main&#45;public&#45;1&#45;a</title>
<path fill="none" stroke="#000000" d="M257.4636,-116.4049C257.5063,-116.4257 257.5489,-116.4465 257.5914,-116.4674"/>
<polygon fill="#000000" stroke="#000000" points="247.1963,-115.2753 257.7191,-116.5298 250.2753,-108.987 247.1963,-115.2753"/>
</g>
<!-- [root] meta.count&#45;boundary (count boundary fixup)&#45;&gt;[root] aws_route_table_association.main&#45;public&#45;2&#45;a -->
<g id="edge27" class="edge">
<title>[root] meta.count&#45;boundary (count boundary fixup)&#45;&gt;[root] aws_route_table_association.main&#45;public&#45;2&#45;a</title>
<path fill="none" stroke="#000000" d="M265.2975,-80.961C265.3614,-80.9354 265.4253,-80.9099 265.4892,-80.8844"/>
<polygon fill="#000000" stroke="#000000" points="257.6944,-87.7719 265.6808,-80.8078 255.0946,-81.2715 257.6944,-87.7719"/>
</g>
<!-- [root] meta.count&#45;boundary (count boundary fixup)&#45;&gt;[root] aws_route_table_association.main&#45;public&#45;3&#45;a -->
<g id="edge28" class="edge">
<title>[root] meta.count&#45;boundary (count boundary fixup)&#45;&gt;[root] aws_route_table_association.main&#45;public&#45;3&#45;a</title>
<path fill="none" stroke="#000000" d="M309.6422,-96.1555C309.6529,-96.1552 309.6622,-96.1549 309.6702,-96.1547"/>
<polygon fill="#000000" stroke="#000000" points="299.8084,-99.9791 309.6903,-96.1542 299.5799,-92.9818 299.8084,-99.9791"/>
</g>
<!-- [root] meta.count&#45;boundary (count boundary fixup)&#45;&gt;[root] aws_subnet.main&#45;private&#45;1 -->
<g id="edge29" class="edge">
<title>[root] meta.count&#45;boundary (count boundary fixup)&#45;&gt;[root] aws_subnet.main&#45;private&#45;1</title>
<path fill="none" stroke="#000000" d="M236.3295,-116.775C240.9124,-122.2425 246.0348,-128.3535 250.9575,-134.2263"/>
<polygon fill="#000000" stroke="#000000" points="248.3707,-136.5887 257.477,-142.0041 253.7354,-132.0919 248.3707,-136.5887"/>
</g>
<!-- [root] meta.count&#45;boundary (count boundary fixup)&#45;&gt;[root] aws_subnet.main&#45;private&#45;2 -->
<g id="edge30" class="edge">
<title>[root] meta.count&#45;boundary (count boundary fixup)&#45;&gt;[root] aws_subnet.main&#45;private&#45;2</title>
<path fill="none" stroke="#000000" d="M216.8209,-116.6158C215.0857,-123.8953 213.0419,-132.4694 211.1209,-140.5281"/>
<polygon fill="#000000" stroke="#000000" points="207.7001,-139.785 208.7859,-150.324 214.5093,-141.4081 207.7001,-139.785"/>
</g>
<!-- [root] meta.count&#45;boundary (count boundary fixup)&#45;&gt;[root] aws_subnet.main&#45;private&#45;3 -->
<g id="edge31" class="edge">
<title>[root] meta.count&#45;boundary (count boundary fixup)&#45;&gt;[root] aws_subnet.main&#45;private&#45;3</title>
<path fill="none" stroke="#000000" d="M225.4432,-116.7272C227.2794,-124.402 229.4629,-133.5282 231.5035,-142.0574"/>
<polygon fill="#000000" stroke="#000000" points="228.158,-143.1164 233.8889,-152.0275 234.9659,-141.4875 228.158,-143.1164"/>
</g>
<!-- [root] meta.count&#45;boundary (count boundary fixup)&#45;&gt;[root] aws_volume_attachment.ebs&#45;volume&#45;1&#45;attachment -->
<g id="edge32" class="edge">
<title>[root] meta.count&#45;boundary (count boundary fixup)&#45;&gt;[root] aws_volume_attachment.ebs&#45;volume&#45;1&#45;attachment</title>
<path fill="none" stroke="#000000" d="M205.6114,-116.6597C196.5929,-127.1569 185.0712,-140.5679 175.0927,-152.1824"/>
<polygon fill="#000000" stroke="#000000" points="172.3427,-150.0125 168.4809,-159.8784 177.6523,-154.5741 172.3427,-150.0125"/>
</g>
<!-- [root] var.PATH_TO_PRIVATE_KEY -->
<g id="node22" class="node">
<title>[root] var.PATH_TO_PRIVATE_KEY</title>
<ellipse fill="none" stroke="#000000" cx="202.6774" cy="-18" rx="149.4735" ry="18"/>
<text text-anchor="middle" x="202.6774" y="-14.3" font-family="Times,serif" font-size="14.00" fill="#000000">[root] var.PATH_TO_PRIVATE_KEY</text>
</g>
<!-- [root] meta.count&#45;boundary (count boundary fixup)&#45;&gt;[root] var.PATH_TO_PRIVATE_KEY -->
<g id="edge33" class="edge">
<title>[root] meta.count&#45;boundary (count boundary fixup)&#45;&gt;[root] var.PATH_TO_PRIVATE_KEY</title>
<path fill="none" stroke="#000000" d="M216.9279,-80.3253C214.6183,-70.2238 211.7002,-57.4615 209.107,-46.1202"/>
<polygon fill="#000000" stroke="#000000" points="212.4847,-45.1896 206.8437,-36.2213 205.6608,-46.7499 212.4847,-45.1896"/>
</g>
<!-- [root] provider.aws (close) -->
<g id="node23" class="node">
<title>[root] provider.aws (close)</title>
<ellipse fill="none" stroke="#000000" cx="215.8508" cy="-114.5966" rx="105.0817" ry="18"/>
<text text-anchor="middle" x="215.8508" y="-110.8966" font-family="Times,serif" font-size="14.00" fill="#000000">[root] provider.aws (close)</text>
</g>
<!-- [root] provider.aws (close)&#45;&gt;[root] aws_route_table_association.main&#45;public&#45;1&#45;a -->
<g id="edge34" class="edge">
<title>[root] provider.aws (close)&#45;&gt;[root] aws_route_table_association.main&#45;public&#45;1&#45;a</title>
<path fill="none" stroke="#000000" d="M277.4602,-126.2017C277.4676,-126.2031 277.4741,-126.2043 277.4797,-126.2054"/>
<polygon fill="#000000" stroke="#000000" points="266.9975,-127.7399 277.4937,-126.208 268.3331,-120.86 266.9975,-127.7399"/>
</g>
<!-- [root] provider.aws (close)&#45;&gt;[root] aws_route_table_association.main&#45;public&#45;2&#45;a -->
<g id="edge35" class="edge">
<title>[root] provider.aws (close)&#45;&gt;[root] aws_route_table_association.main&#45;public&#45;2&#45;a</title>
<path fill="none" stroke="#000000" d="M246.2741,-97.193C249.4899,-95.3534 252.7947,-93.4629 256.0994,-91.5724"/>
<polygon fill="#000000" stroke="#000000" points="257.8435,-94.607 264.7857,-86.6034 254.3676,-88.5309 257.8435,-94.607"/>
</g>
<!-- [root] provider.aws (close)&#45;&gt;[root] aws_route_table_association.main&#45;public&#45;3&#45;a -->
<g id="edge36" class="edge">
<title>[root] provider.aws (close)&#45;&gt;[root] aws_route_table_association.main&#45;public&#45;3&#45;a</title>
<path fill="none" stroke="#000000" d="M285.047,-100.9994C285.1019,-100.9886 285.1568,-100.9778 285.2117,-100.967"/>
<polygon fill="#000000" stroke="#000000" points="276.2401,-106.302 285.376,-100.9347 274.887,-99.4333 276.2401,-106.302"/>
</g>
<!-- [root] provider.aws (close)&#45;&gt;[root] aws_subnet.main&#45;private&#45;1 -->
<g id="edge37" class="edge">
<title>[root] provider.aws (close)&#45;&gt;[root] aws_subnet.main&#45;private&#45;1</title>
<path fill="none" stroke="#000000" d="M238.0185,-132.3755C239.3918,-133.4769 240.7857,-134.5949 242.1865,-135.7184"/>
<polygon fill="#000000" stroke="#000000" points="240.1987,-138.6107 250.1895,-142.1369 244.5783,-133.15 240.1987,-138.6107"/>
</g>
<!-- [root] provider.aws (close)&#45;&gt;[root] aws_subnet.main&#45;private&#45;2 -->
<g id="edge38" class="edge">
<title>[root] provider.aws (close)&#45;&gt;[root] aws_subnet.main&#45;private&#45;2</title>
<path fill="none" stroke="#000000" d="M211.9919,-132.8467C211.472,-135.3055 210.9292,-137.8726 210.3836,-140.453"/>
<polygon fill="#000000" stroke="#000000" points="206.9521,-139.7636 208.3076,-150.2713 213.8007,-141.2117 206.9521,-139.7636"/>
</g>
<!-- [root] provider.aws (close)&#45;&gt;[root] aws_subnet.main&#45;private&#45;3 -->
<g id="edge39" class="edge">
<title>[root] provider.aws (close)&#45;&gt;[root] aws_subnet.main&#45;private&#45;3</title>
<path fill="none" stroke="#000000" d="M223.1949,-132.862C224.486,-136.0732 225.8552,-139.4785 227.2213,-142.8761"/>
<polygon fill="#000000" stroke="#000000" points="224.0178,-144.2911 230.9957,-152.2635 230.5125,-141.6797 224.0178,-144.2911"/>
</g>
<!-- [root] provider.aws (close)&#45;&gt;[root] aws_volume_attachment.ebs&#45;volume&#45;1&#45;attachment -->
<g id="edge40" class="edge">
<title>[root] provider.aws (close)&#45;&gt;[root] aws_volume_attachment.ebs&#45;volume&#45;1&#45;attachment</title>
<path fill="none" stroke="#000000" d="M197.9535,-132.6308C191.8831,-138.7475 184.9781,-145.7053 178.4259,-152.3076"/>
<polygon fill="#000000" stroke="#000000" points="175.5273,-150.2596 170.9675,-159.823 180.4959,-155.1905 175.5273,-150.2596"/>
</g>
<!-- [root] root -->
<g id="node25" class="node">
<title>[root] root</title>
<ellipse fill="none" stroke="#000000" cx="153.7536" cy="-60.4742" rx="47.3916" ry="18"/>
<text text-anchor="middle" x="153.7536" y="-56.7742" font-family="Times,serif" font-size="14.00" fill="#000000">[root] root</text>
</g>
<!-- [root] root&#45;&gt;[root] meta.count&#45;boundary (count boundary fixup) -->
<g id="edge42" class="edge">
<title>[root] root&#45;&gt;[root] meta.count&#45;boundary (count boundary fixup)</title>
<path fill="none" stroke="#000000" d="M180.3749,-75.5501C180.4668,-75.6021 180.5588,-75.6542 180.6509,-75.7064"/>
<polygon fill="#000000" stroke="#000000" points="178.9043,-78.7395 189.3306,-80.6218 182.3538,-72.6484 178.9043,-78.7395"/>
</g>
<!-- [root] root&#45;&gt;[root] provider.aws (close) -->
<g id="edge43" class="edge">
<title>[root] root&#45;&gt;[root] provider.aws (close)</title>
<path fill="none" stroke="#000000" d="M172.7222,-77.0068C177.4035,-81.0869 182.5189,-85.5454 187.5382,-89.9201"/>
<polygon fill="#000000" stroke="#000000" points="185.4321,-92.7273 195.2704,-96.6592 190.0314,-87.4502 185.4321,-92.7273"/>
</g>
</g>
</svg>
