<?xml version="1.0" encoding="UTF-8" standalone="no"?>
<!DOCTYPE svg PUBLIC "-//W3C//DTD SVG 1.1//EN"
 "http://www.w3.org/Graphics/SVG/1.1/DTD/svg11.dtd">
<!-- Generated by graphviz version 2.40.1 (20161225.0304)
 -->
<!-- Title: %3 Pages: 1 -->
<svg width="2365pt" height="884pt"
 viewBox="0.00 0.00 2364.63 884.00" xmlns="http://www.w3.org/2000/svg" xmlns:xlink="http://www.w3.org/1999/xlink">
<g id="graph0" class="graph" transform="scale(1 1) rotate(0) translate(4 879.9972)">
<title>%3</title>
<polygon fill="#ffffff" stroke="transparent" points="-4,4 -4,-879.9972 2360.6316,-879.9972 2360.6316,4 -4,4"/>
<!-- [root] aws_ebs_volume.ebs&#45;volume&#45;1 -->
<g id="node1" class="node">
<title>[root] aws_ebs_volume.ebs&#45;volume&#45;1</title>
<polygon fill="none" stroke="#000000" points="1091.0379,-843.5383 902.0379,-843.5383 902.0379,-807.5383 1091.0379,-807.5383 1091.0379,-843.5383"/>
<text text-anchor="middle" x="996.5379" y="-821.8383" font-family="Times,serif" font-size="14.00" fill="#000000">aws_ebs_volume.ebs&#45;volume&#45;1</text>
</g>
<!-- [root] provider.aws -->
<g id="node18" class="node">
<title>[root] provider.aws</title>
<polygon fill="none" stroke="#000000" points="847.1868,-641.2225 767.2534,-623.2225 847.1868,-605.2225 927.1202,-623.2225 847.1868,-641.2225"/>
<text text-anchor="middle" x="847.1868" y="-619.5225" font-family="Times,serif" font-size="14.00" fill="#000000">provider.aws</text>
</g>
<!-- [root] aws_ebs_volume.ebs&#45;volume&#45;1&#45;&gt;[root] provider.aws -->
<g id="edge1" class="edge">
<title>[root] aws_ebs_volume.ebs&#45;volume&#45;1&#45;&gt;[root] provider.aws</title>
<path fill="none" stroke="#000000" d="M983.0206,-807.2273C955.9275,-770.5262 894.9974,-687.9882 864.8159,-647.1034"/>
<polygon fill="#000000" stroke="#000000" points="867.4494,-644.7776 858.6943,-638.811 861.8176,-648.935 867.4494,-644.7776"/>
</g>
<!-- [root] aws_instance.example -->
<g id="node2" class="node">
<title>[root] aws_instance.example</title>
<polygon fill="none" stroke="#000000" points="949.0029,-350.3089 810.0029,-350.3089 810.0029,-314.3089 949.0029,-314.3089 949.0029,-350.3089"/>
<text text-anchor="middle" x="879.5029" y="-328.6089" font-family="Times,serif" font-size="14.00" fill="#000000">aws_instance.example</text>
</g>
<!-- [root] aws_key_pair.mykeypair -->
<g id="node4" class="node">
<title>[root] aws_key_pair.mykeypair</title>
<polygon fill="none" stroke="#000000" points="589.6439,-484.2799 435.6439,-484.2799 435.6439,-448.2799 589.6439,-448.2799 589.6439,-484.2799"/>
<text text-anchor="middle" x="512.6439" y="-462.5799" font-family="Times,serif" font-size="14.00" fill="#000000">aws_key_pair.mykeypair</text>
</g>
<!-- [root] aws_instance.example&#45;&gt;[root] aws_key_pair.mykeypair -->
<g id="edge2" class="edge">
<title>[root] aws_instance.example&#45;&gt;[root] aws_key_pair.mykeypair</title>
<path fill="none" stroke="#000000" d="M830.0267,-350.3768C763.0611,-374.8316 643.7225,-418.4121 572.0069,-444.6015"/>
<polygon fill="#000000" stroke="#000000" points="570.4066,-441.4597 562.214,-448.1777 572.8079,-448.035 570.4066,-441.4597"/>
</g>
<!-- [root] aws_security_group.allow&#45;ssh -->
<g id="node9" class="node">
<title>[root] aws_security_group.allow&#45;ssh</title>
<polygon fill="none" stroke="#000000" points="1131.8087,-200.9364 950.8087,-200.9364 950.8087,-164.9364 1131.8087,-164.9364 1131.8087,-200.9364"/>
<text text-anchor="middle" x="1041.3087" y="-179.2364" font-family="Times,serif" font-size="14.00" fill="#000000">aws_security_group.allow&#45;ssh</text>
</g>
<!-- [root] aws_instance.example&#45;&gt;[root] aws_security_group.allow&#45;ssh -->
<g id="edge3" class="edge">
<title>[root] aws_instance.example&#45;&gt;[root] aws_security_group.allow&#45;ssh</title>
<path fill="none" stroke="#000000" d="M899.0205,-314.2911C927.8121,-287.7119 981.7661,-237.9038 1014.3273,-207.8446"/>
<polygon fill="#000000" stroke="#000000" points="1016.7483,-210.373 1021.722,-201.0181 1012.0001,-205.2296 1016.7483,-210.373"/>
</g>
<!-- [root] aws_subnet.main&#45;public&#45;1 -->
<g id="node13" class="node">
<title>[root] aws_subnet.main&#45;public&#45;1</title>
<polygon fill="none" stroke="#000000" points="1310.1848,-250.8771 1149.1848,-250.8771 1149.1848,-214.8771 1310.1848,-214.8771 1310.1848,-250.8771"/>
<text text-anchor="middle" x="1229.6848" y="-229.1771" font-family="Times,serif" font-size="14.00" fill="#000000">aws_subnet.main&#45;public&#45;1</text>
</g>
<!-- [root] aws_instance.example&#45;&gt;[root] aws_subnet.main&#45;public&#45;1 -->
<g id="edge4" class="edge">
<title>[root] aws_instance.example&#45;&gt;[root] aws_subnet.main&#45;public&#45;1</title>
<path fill="none" stroke="#000000" d="M942.9182,-314.3026C1002.973,-297.2504 1093.1107,-271.6564 1156.2566,-253.7266"/>
<polygon fill="#000000" stroke="#000000" points="1157.4869,-257.0157 1166.1506,-250.9173 1155.5748,-250.2819 1157.4869,-257.0157"/>
</g>
<!-- [root] var.AMIS -->
<g id="node19" class="node">
<title>[root] var.AMIS</title>
<ellipse fill="none" stroke="#000000" cx="581.4991" cy="-93.6942" rx="69.5877" ry="18"/>
<text text-anchor="middle" x="581.4991" y="-89.9942" font-family="Times,serif" font-size="14.00" fill="#000000">[root] var.AMIS</text>
</g>
<!-- [root] aws_instance.example&#45;&gt;[root] var.AMIS -->
<g id="edge5" class="edge">
<title>[root] aws_instance.example&#45;&gt;[root] var.AMIS</title>
<path fill="none" stroke="#000000" d="M856.6139,-313.9814C803.2446,-271.2481 670.5864,-165.0273 611.1384,-117.4267"/>
<polygon fill="#000000" stroke="#000000" points="613.2454,-114.6301 603.2518,-111.1118 608.8702,-120.0943 613.2454,-114.6301"/>
</g>
<!-- [root] aws_internet_gateway.main&#45;gw -->
<g id="node3" class="node">
<title>[root] aws_internet_gateway.main&#45;gw</title>
<polygon fill="none" stroke="#000000" points="1751.6093,-36 1561.6093,-36 1561.6093,0 1751.6093,0 1751.6093,-36"/>
<text text-anchor="middle" x="1656.6093" y="-14.3" font-family="Times,serif" font-size="14.00" fill="#000000">aws_internet_gateway.main&#45;gw</text>
</g>
<!-- [root] aws_vpc.main -->
<g id="node17" class="node">
<title>[root] aws_vpc.main</title>
<polygon fill="none" stroke="#000000" points="1423.3198,-410.1976 1328.3198,-410.1976 1328.3198,-374.1976 1423.3198,-374.1976 1423.3198,-410.1976"/>
<text text-anchor="middle" x="1375.8198" y="-388.4976" font-family="Times,serif" font-size="14.00" fill="#000000">aws_vpc.main</text>
</g>
<!-- [root] aws_internet_gateway.main&#45;gw&#45;&gt;[root] aws_vpc.main -->
<g id="edge6" class="edge">
<title>[root] aws_internet_gateway.main&#45;gw&#45;&gt;[root] aws_vpc.main</title>
<path fill="none" stroke="#000000" d="M1643.0663,-36.0483C1597.4847,-96.7931 1449.4911,-294.0185 1395.6428,-365.7801"/>
<polygon fill="#000000" stroke="#000000" points="1392.7584,-363.7927 1389.5559,-373.892 1398.3574,-367.9941 1392.7584,-363.7927"/>
</g>
<!-- [root] aws_key_pair.mykeypair&#45;&gt;[root] provider.aws -->
<g id="edge7" class="edge">
<title>[root] aws_key_pair.mykeypair&#45;&gt;[root] provider.aws</title>
<path fill="none" stroke="#000000" d="M551.0202,-484.2832C616.4826,-514.9933 748.7737,-577.0544 811.9946,-606.7129"/>
<polygon fill="#000000" stroke="#000000" points="810.6266,-609.9371 821.1664,-611.0157 813.5996,-603.5998 810.6266,-609.9371"/>
</g>
<!-- [root] var.PATH_TO_PUBLIC_KEY -->
<g id="node20" class="node">
<title>[root] var.PATH_TO_PUBLIC_KEY</title>
<ellipse fill="none" stroke="#000000" cx="143.6373" cy="-452.9093" rx="143.7746" ry="18"/>
<text text-anchor="middle" x="143.6373" y="-449.2093" font-family="Times,serif" font-size="14.00" fill="#000000">[root] var.PATH_TO_PUBLIC_KEY</text>
</g>
<!-- [root] aws_key_pair.mykeypair&#45;&gt;[root] var.PATH_TO_PUBLIC_KEY -->
<g id="edge8" class="edge">
<title>[root] aws_key_pair.mykeypair&#45;&gt;[root] var.PATH_TO_PUBLIC_KEY</title>
<path fill="none" stroke="#000000" d="M435.288,-463.477C393.6688,-461.9689 340.9182,-460.0576 291.7564,-458.2762"/>
<polygon fill="#000000" stroke="#000000" points="291.7718,-454.7746 281.6516,-457.9101 291.5182,-461.77 291.7718,-454.7746"/>
</g>
<!-- [root] aws_route_table.main&#45;public -->
<g id="node5" class="node">
<title>[root] aws_route_table.main&#45;public</title>
<polygon fill="none" stroke="#000000" points="2002.301,-140.5048 1827.301,-140.5048 1827.301,-104.5048 2002.301,-104.5048 2002.301,-140.5048"/>
<text text-anchor="middle" x="1914.801" y="-118.8048" font-family="Times,serif" font-size="14.00" fill="#000000">aws_route_table.main&#45;public</text>
</g>
<!-- [root] aws_route_table.main&#45;public&#45;&gt;[root] aws_internet_gateway.main&#45;gw -->
<g id="edge9" class="edge">
<title>[root] aws_route_table.main&#45;public&#45;&gt;[root] aws_internet_gateway.main&#45;gw</title>
<path fill="none" stroke="#000000" d="M1870.1222,-104.4207C1825.8327,-86.4943 1757.9374,-59.0132 1710.6407,-39.8696"/>
<polygon fill="#000000" stroke="#000000" points="1711.7559,-36.5451 1701.1732,-36.0375 1709.1295,-43.0338 1711.7559,-36.5451"/>
</g>
<!-- [root] aws_route_table_association.main&#45;public&#45;1&#45;a -->
<g id="node6" class="node">
<title>[root] aws_route_table_association.main&#45;public&#45;1&#45;a</title>
<polygon fill="none" stroke="#000000" points="1758.7978,-327.5973 1495.7978,-327.5973 1495.7978,-291.5973 1758.7978,-291.5973 1758.7978,-327.5973"/>
<text text-anchor="middle" x="1627.2978" y="-305.8973" font-family="Times,serif" font-size="14.00" fill="#000000">aws_route_table_association.main&#45;public&#45;1&#45;a</text>
</g>
<!-- [root] aws_route_table_association.main&#45;public&#45;1&#45;a&#45;&gt;[root] aws_route_table.main&#45;public -->
<g id="edge10" class="edge">
<title>[root] aws_route_table_association.main&#45;public&#45;1&#45;a&#45;&gt;[root] aws_route_table.main&#45;public</title>
<path fill="none" stroke="#000000" d="M1655.1261,-291.488C1707.4022,-257.4694 1820.2406,-184.0399 1878.4417,-146.1655"/>
<polygon fill="#000000" stroke="#000000" points="1880.4848,-149.0119 1886.9574,-140.624 1876.6668,-143.1448 1880.4848,-149.0119"/>
</g>
<!-- [root] aws_route_table_association.main&#45;public&#45;1&#45;a&#45;&gt;[root] aws_subnet.main&#45;public&#45;1 -->
<g id="edge11" class="edge">
<title>[root] aws_route_table_association.main&#45;public&#45;1&#45;a&#45;&gt;[root] aws_subnet.main&#45;public&#45;1</title>
<path fill="none" stroke="#000000" d="M1533.824,-291.5613C1469.4324,-279.1368 1384.3125,-262.7128 1320.5016,-250.4004"/>
<polygon fill="#000000" stroke="#000000" points="1320.9318,-246.9189 1310.4498,-248.4609 1319.6055,-253.7921 1320.9318,-246.9189"/>
</g>
<!-- [root] aws_route_table_association.main&#45;public&#45;2&#45;a -->
<g id="node7" class="node">
<title>[root] aws_route_table_association.main&#45;public&#45;2&#45;a</title>
<polygon fill="none" stroke="#000000" points="2004.0866,-325.2247 1741.0866,-325.2247 1741.0866,-289.2247 2004.0866,-289.2247 2004.0866,-325.2247"/>
<text text-anchor="middle" x="1872.5866" y="-303.5247" font-family="Times,serif" font-size="14.00" fill="#000000">aws_route_table_association.main&#45;public&#45;2&#45;a</text>
</g>
<!-- [root] aws_route_table_association.main&#45;public&#45;2&#45;a&#45;&gt;[root] aws_route_table.main&#45;public -->
<g id="edge12" class="edge">
<title>[root] aws_route_table_association.main&#45;public&#45;2&#45;a&#45;&gt;[root] aws_route_table.main&#45;public</title>
<path fill="none" stroke="#000000" d="M1876.7111,-289.1767C1884.088,-256.8973 1899.5893,-189.0676 1908.3727,-150.6331"/>
<polygon fill="#000000" stroke="#000000" points="1911.8437,-151.1546 1910.6597,-140.6261 1905.0197,-149.595 1911.8437,-151.1546"/>
</g>
<!-- [root] aws_subnet.main&#45;public&#45;2 -->
<g id="node14" class="node">
<title>[root] aws_subnet.main&#45;public&#45;2</title>
<polygon fill="none" stroke="#000000" points="1666.4605,-146.1784 1505.4605,-146.1784 1505.4605,-110.1784 1666.4605,-110.1784 1666.4605,-146.1784"/>
<text text-anchor="middle" x="1585.9605" y="-124.4784" font-family="Times,serif" font-size="14.00" fill="#000000">aws_subnet.main&#45;public&#45;2</text>
</g>
<!-- [root] aws_route_table_association.main&#45;public&#45;2&#45;a&#45;&gt;[root] aws_subnet.main&#45;public&#45;2 -->
<g id="edge13" class="edge">
<title>[root] aws_route_table_association.main&#45;public&#45;2&#45;a&#45;&gt;[root] aws_subnet.main&#45;public&#45;2</title>
<path fill="none" stroke="#000000" d="M1843.526,-289.0715C1791.2723,-256.4302 1681.5138,-187.8675 1623.5933,-151.6865"/>
<polygon fill="#000000" stroke="#000000" points="1625.4335,-148.7092 1615.098,-146.3797 1621.7249,-154.6461 1625.4335,-148.7092"/>
</g>
<!-- [root] aws_route_table_association.main&#45;public&#45;3&#45;a -->
<g id="node8" class="node">
<title>[root] aws_route_table_association.main&#45;public&#45;3&#45;a</title>
<polygon fill="none" stroke="#000000" points="2113.416,-437.6333 1850.416,-437.6333 1850.416,-401.6333 2113.416,-401.6333 2113.416,-437.6333"/>
<text text-anchor="middle" x="1981.916" y="-415.9333" font-family="Times,serif" font-size="14.00" fill="#000000">aws_route_table_association.main&#45;public&#45;3&#45;a</text>
</g>
<!-- [root] aws_route_table_association.main&#45;public&#45;3&#45;a&#45;&gt;[root] aws_route_table.main&#45;public -->
<g id="edge14" class="edge">
<title>[root] aws_route_table_association.main&#45;public&#45;3&#45;a&#45;&gt;[root] aws_route_table.main&#45;public</title>
<path fill="none" stroke="#000000" d="M1977.8187,-401.4938C1966.5156,-351.4532 1934.8303,-211.1776 1921.1845,-150.7655"/>
<polygon fill="#000000" stroke="#000000" points="1924.5473,-149.7674 1918.9299,-140.7844 1917.7193,-151.3098 1924.5473,-149.7674"/>
</g>
<!-- [root] aws_subnet.main&#45;public&#45;3 -->
<g id="node15" class="node">
<title>[root] aws_subnet.main&#45;public&#45;3</title>
<polygon fill="none" stroke="#000000" points="1827.8003,-372.0014 1666.8003,-372.0014 1666.8003,-336.0014 1827.8003,-336.0014 1827.8003,-372.0014"/>
<text text-anchor="middle" x="1747.3003" y="-350.3014" font-family="Times,serif" font-size="14.00" fill="#000000">aws_subnet.main&#45;public&#45;3</text>
</g>
<!-- [root] aws_route_table_association.main&#45;public&#45;3&#45;a&#45;&gt;[root] aws_subnet.main&#45;public&#45;3 -->
<g id="edge15" class="edge">
<title>[root] aws_route_table_association.main&#45;public&#45;3&#45;a&#45;&gt;[root] aws_subnet.main&#45;public&#45;3</title>
<path fill="none" stroke="#000000" d="M1917.4959,-401.6123C1887.8732,-393.3256 1852.5599,-383.4469 1821.7984,-374.8416"/>
<polygon fill="#000000" stroke="#000000" points="1822.557,-371.4196 1811.9838,-372.0961 1820.6712,-378.1608 1822.557,-371.4196"/>
</g>
<!-- [root] aws_security_group.allow&#45;ssh&#45;&gt;[root] aws_vpc.main -->
<g id="edge16" class="edge">
<title>[root] aws_security_group.allow&#45;ssh&#45;&gt;[root] aws_vpc.main</title>
<path fill="none" stroke="#000000" d="M1070.1185,-200.959C1130.6338,-238.8158 1270.9247,-326.5781 1338.3355,-368.7484"/>
<polygon fill="#000000" stroke="#000000" points="1336.6267,-371.8078 1346.9607,-374.1441 1340.3391,-365.8734 1336.6267,-371.8078"/>
</g>
<!-- [root] aws_subnet.main&#45;private&#45;1 -->
<g id="node10" class="node">
<title>[root] aws_subnet.main&#45;private&#45;1</title>
<polygon fill="none" stroke="#000000" points="1637.1735,-575.343 1473.1735,-575.343 1473.1735,-539.343 1637.1735,-539.343 1637.1735,-575.343"/>
<text text-anchor="middle" x="1555.1735" y="-553.643" font-family="Times,serif" font-size="14.00" fill="#000000">aws_subnet.main&#45;private&#45;1</text>
</g>
<!-- [root] aws_subnet.main&#45;private&#45;1&#45;&gt;[root] aws_vpc.main -->
<g id="edge17" class="edge">
<title>[root] aws_subnet.main&#45;private&#45;1&#45;&gt;[root] aws_vpc.main</title>
<path fill="none" stroke="#000000" d="M1535.2942,-539.0386C1503.158,-509.4482 1439.726,-451.0412 1403.2926,-417.494"/>
<polygon fill="#000000" stroke="#000000" points="1405.242,-414.5312 1395.5147,-410.3323 1400.5004,-419.6808 1405.242,-414.5312"/>
</g>
<!-- [root] aws_subnet.main&#45;private&#45;2 -->
<g id="node11" class="node">
<title>[root] aws_subnet.main&#45;private&#45;2</title>
<polygon fill="none" stroke="#000000" points="1598.3207,-717.9643 1434.3207,-717.9643 1434.3207,-681.9643 1598.3207,-681.9643 1598.3207,-717.9643"/>
<text text-anchor="middle" x="1516.3207" y="-696.2643" font-family="Times,serif" font-size="14.00" fill="#000000">aws_subnet.main&#45;private&#45;2</text>
</g>
<!-- [root] aws_subnet.main&#45;private&#45;2&#45;&gt;[root] aws_vpc.main -->
<g id="edge18" class="edge">
<title>[root] aws_subnet.main&#45;private&#45;2&#45;&gt;[root] aws_vpc.main</title>
<path fill="none" stroke="#000000" d="M1507.9525,-681.6337C1484.232,-629.6742 1416.4543,-481.2073 1388.3083,-419.5536"/>
<polygon fill="#000000" stroke="#000000" points="1391.481,-418.0754 1384.1441,-410.4321 1385.1132,-420.9825 1391.481,-418.0754"/>
</g>
<!-- [root] aws_subnet.main&#45;private&#45;3 -->
<g id="node12" class="node">
<title>[root] aws_subnet.main&#45;private&#45;3</title>
<polygon fill="none" stroke="#000000" points="1700.1129,-766.8544 1536.1129,-766.8544 1536.1129,-730.8544 1700.1129,-730.8544 1700.1129,-766.8544"/>
<text text-anchor="middle" x="1618.1129" y="-745.1544" font-family="Times,serif" font-size="14.00" fill="#000000">aws_subnet.main&#45;private&#45;3</text>
</g>
<!-- [root] aws_subnet.main&#45;private&#45;3&#45;&gt;[root] aws_vpc.main -->
<g id="edge19" class="edge">
<title>[root] aws_subnet.main&#45;private&#45;3&#45;&gt;[root] aws_vpc.main</title>
<path fill="none" stroke="#000000" d="M1605.7644,-730.6774C1565.987,-672.1248 1441.0593,-488.2306 1393.9968,-418.9542"/>
<polygon fill="#000000" stroke="#000000" points="1396.6579,-416.643 1388.1434,-410.338 1390.8677,-420.5766 1396.6579,-416.643"/>
</g>
<!-- [root] aws_subnet.main&#45;public&#45;1&#45;&gt;[root] aws_vpc.main -->
<g id="edge20" class="edge">
<title>[root] aws_subnet.main&#45;public&#45;1&#45;&gt;[root] aws_vpc.main</title>
<path fill="none" stroke="#000000" d="M1246.4484,-251.1532C1272.435,-279.4846 1322.5307,-334.1003 1352.1811,-366.426"/>
<polygon fill="#000000" stroke="#000000" points="1349.9128,-369.131 1359.2517,-374.1346 1355.0715,-364.3993 1349.9128,-369.131"/>
</g>
<!-- [root] aws_subnet.main&#45;public&#45;2&#45;&gt;[root] aws_vpc.main -->
<g id="edge21" class="edge">
<title>[root] aws_subnet.main&#45;public&#45;2&#45;&gt;[root] aws_vpc.main</title>
<path fill="none" stroke="#000000" d="M1571.5166,-146.3255C1535.0767,-192.1084 1439.2882,-312.4563 1396.7221,-365.9361"/>
<polygon fill="#000000" stroke="#000000" points="1393.8537,-363.9196 1390.3647,-373.9235 1399.3307,-368.2789 1393.8537,-363.9196"/>
</g>
<!-- [root] aws_subnet.main&#45;public&#45;3&#45;&gt;[root] aws_vpc.main -->
<g id="edge22" class="edge">
<title>[root] aws_subnet.main&#45;public&#45;3&#45;&gt;[root] aws_vpc.main</title>
<path fill="none" stroke="#000000" d="M1666.6946,-362.2894C1596.3511,-369.5222 1496.0101,-379.8394 1433.459,-386.271"/>
<polygon fill="#000000" stroke="#000000" points="1432.9649,-382.8033 1423.3753,-387.3079 1433.6809,-389.7666 1432.9649,-382.8033"/>
</g>
<!-- [root] aws_volume_attachment.ebs&#45;volume&#45;1&#45;attachment -->
<g id="node16" class="node">
<title>[root] aws_volume_attachment.ebs&#45;volume&#45;1&#45;attachment</title>
<polygon fill="none" stroke="#000000" points="1442.2988,-635.6423 1146.2988,-635.6423 1146.2988,-599.6423 1442.2988,-599.6423 1442.2988,-635.6423"/>
<text text-anchor="middle" x="1294.2988" y="-613.9423" font-family="Times,serif" font-size="14.00" fill="#000000">aws_volume_attachment.ebs&#45;volume&#45;1&#45;attachment</text>
</g>
<!-- [root] aws_volume_attachment.ebs&#45;volume&#45;1&#45;attachment&#45;&gt;[root] aws_ebs_volume.ebs&#45;volume&#45;1 -->
<g id="edge23" class="edge">
<title>[root] aws_volume_attachment.ebs&#45;volume&#45;1&#45;attachment&#45;&gt;[root] aws_ebs_volume.ebs&#45;volume&#45;1</title>
<path fill="none" stroke="#000000" d="M1268.3954,-635.728C1214.7217,-673.2029 1091.3485,-759.3418 1031.021,-801.4623"/>
<polygon fill="#000000" stroke="#000000" points="1028.7891,-798.7519 1022.5935,-807.3464 1032.7964,-804.4914 1028.7891,-798.7519"/>
</g>
<!-- [root] aws_volume_attachment.ebs&#45;volume&#45;1&#45;attachment&#45;&gt;[root] aws_instance.example -->
<g id="edge24" class="edge">
<title>[root] aws_volume_attachment.ebs&#45;volume&#45;1&#45;attachment&#45;&gt;[root] aws_instance.example</title>
<path fill="none" stroke="#000000" d="M1268.0368,-599.577C1196.0416,-550.0523 995.5079,-412.1075 914.3064,-356.2498"/>
<polygon fill="#000000" stroke="#000000" points="916.1399,-353.263 905.9174,-350.4791 912.1727,-359.0302 916.1399,-353.263"/>
</g>
<!-- [root] aws_vpc.main&#45;&gt;[root] provider.aws -->
<g id="edge25" class="edge">
<title>[root] aws_vpc.main&#45;&gt;[root] provider.aws</title>
<path fill="none" stroke="#000000" d="M1334.3388,-410.3257C1233.8583,-454.2381 978.7094,-565.7441 883.6316,-607.2953"/>
<polygon fill="#000000" stroke="#000000" points="882.1764,-604.1115 874.4148,-611.3232 884.9796,-610.5258 882.1764,-604.1115"/>
</g>
<!-- [root] var.AWS_REGION -->
<g id="node24" class="node">
<title>[root] var.AWS_REGION</title>
<ellipse fill="none" stroke="#000000" cx="547.0079" cy="-857.9972" rx="104.7816" ry="18"/>
<text text-anchor="middle" x="547.0079" y="-854.2972" font-family="Times,serif" font-size="14.00" fill="#000000">[root] var.AWS_REGION</text>
</g>
<!-- [root] provider.aws&#45;&gt;[root] var.AWS_REGION -->
<g id="edge41" class="edge">
<title>[root] provider.aws&#45;&gt;[root] var.AWS_REGION</title>
<path fill="none" stroke="#000000" d="M829.3082,-637.2057C779.6622,-676.0346 639.6841,-785.5137 577.4685,-834.1735"/>
<polygon fill="#000000" stroke="#000000" points="575.2947,-831.4303 569.574,-840.348 579.6072,-836.9442 575.2947,-831.4303"/>
</g>
<!-- [root] meta.count&#45;boundary (count boundary fixup) -->
<g id="node21" class="node">
<title>[root] meta.count&#45;boundary (count boundary fixup)</title>
<ellipse fill="none" stroke="#000000" cx="1791.2742" cy="-613.1863" rx="193.0657" ry="18"/>
<text text-anchor="middle" x="1791.2742" y="-609.4863" font-family="Times,serif" font-size="14.00" fill="#000000">[root] meta.count&#45;boundary (count boundary fixup)</text>
</g>
<!-- [root] meta.count&#45;boundary (count boundary fixup)&#45;&gt;[root] aws_route_table_association.main&#45;public&#45;1&#45;a -->
<g id="edge26" class="edge">
<title>[root] meta.count&#45;boundary (count boundary fixup)&#45;&gt;[root] aws_route_table_association.main&#45;public&#45;1&#45;a</title>
<path fill="none" stroke="#000000" d="M1781.5078,-595.1046C1753.8895,-543.9716 1675.0954,-398.0907 1642.1067,-337.0147"/>
<polygon fill="#000000" stroke="#000000" points="1645.0523,-335.1033 1637.2204,-327.9681 1638.8933,-338.43 1645.0523,-335.1033"/>
</g>
<!-- [root] meta.count&#45;boundary (count boundary fixup)&#45;&gt;[root] aws_route_table_association.main&#45;public&#45;2&#45;a -->
<g id="edge27" class="edge">
<title>[root] meta.count&#45;boundary (count boundary fixup)&#45;&gt;[root] aws_route_table_association.main&#45;public&#45;2&#45;a</title>
<path fill="none" stroke="#000000" d="M1796.1171,-594.9633C1809.7884,-543.5211 1848.7477,-396.9256 1865.1568,-335.1814"/>
<polygon fill="#000000" stroke="#000000" points="1868.5831,-335.9158 1867.769,-325.3523 1861.8179,-334.1178 1868.5831,-335.9158"/>
</g>
<!-- [root] meta.count&#45;boundary (count boundary fixup)&#45;&gt;[root] aws_route_table_association.main&#45;public&#45;3&#45;a -->
<g id="edge28" class="edge">
<title>[root] meta.count&#45;boundary (count boundary fixup)&#45;&gt;[root] aws_route_table_association.main&#45;public&#45;3&#45;a</title>
<path fill="none" stroke="#000000" d="M1809.2093,-594.9773C1843.36,-560.3051 1917.7935,-484.7349 1956.8502,-445.0819"/>
<polygon fill="#000000" stroke="#000000" points="1959.6437,-447.2334 1964.1674,-437.6529 1954.6565,-442.3213 1959.6437,-447.2334"/>
</g>
<!-- [root] meta.count&#45;boundary (count boundary fixup)&#45;&gt;[root] aws_subnet.main&#45;private&#45;1 -->
<g id="edge29" class="edge">
<title>[root] meta.count&#45;boundary (count boundary fixup)&#45;&gt;[root] aws_subnet.main&#45;private&#45;1</title>
<path fill="none" stroke="#000000" d="M1720.4362,-596.4315C1695.5045,-590.5346 1667.2091,-583.842 1641.1659,-577.6822"/>
<polygon fill="#000000" stroke="#000000" points="1641.8437,-574.246 1631.3066,-575.3503 1640.2325,-581.0581 1641.8437,-574.246"/>
</g>
<!-- [root] meta.count&#45;boundary (count boundary fixup)&#45;&gt;[root] aws_subnet.main&#45;private&#45;2 -->
<g id="edge30" class="edge">
<title>[root] meta.count&#45;boundary (count boundary fixup)&#45;&gt;[root] aws_subnet.main&#45;private&#45;2</title>
<path fill="none" stroke="#000000" d="M1736.2941,-630.5386C1692.2551,-644.4377 1630.2936,-663.9933 1583.3493,-678.8094"/>
<polygon fill="#000000" stroke="#000000" points="1582.0546,-675.5478 1573.5717,-681.8953 1584.1615,-682.2232 1582.0546,-675.5478"/>
</g>
<!-- [root] meta.count&#45;boundary (count boundary fixup)&#45;&gt;[root] aws_subnet.main&#45;private&#45;3 -->
<g id="edge31" class="edge">
<title>[root] meta.count&#45;boundary (count boundary fixup)&#45;&gt;[root] aws_subnet.main&#45;private&#45;3</title>
<path fill="none" stroke="#000000" d="M1768.2797,-631.202C1737.7477,-655.1232 1683.7037,-697.4655 1649.4565,-724.2974"/>
<polygon fill="#000000" stroke="#000000" points="1646.9156,-721.8418 1641.2025,-730.7643 1651.2328,-727.352 1646.9156,-721.8418"/>
</g>
<!-- [root] meta.count&#45;boundary (count boundary fixup)&#45;&gt;[root] aws_volume_attachment.ebs&#45;volume&#45;1&#45;attachment -->
<g id="edge32" class="edge">
<title>[root] meta.count&#45;boundary (count boundary fixup)&#45;&gt;[root] aws_volume_attachment.ebs&#45;volume&#45;1&#45;attachment</title>
<path fill="none" stroke="#000000" d="M1598.7749,-614.9123C1550.4519,-615.3456 1499.1489,-615.8056 1452.7024,-616.222"/>
<polygon fill="#000000" stroke="#000000" points="1452.5281,-612.7234 1442.5599,-616.313 1452.5909,-619.7231 1452.5281,-612.7234"/>
</g>
<!-- [root] var.PATH_TO_PRIVATE_KEY -->
<g id="node22" class="node">
<title>[root] var.PATH_TO_PRIVATE_KEY</title>
<ellipse fill="none" stroke="#000000" cx="2207.1449" cy="-696.5228" rx="149.4735" ry="18"/>
<text text-anchor="middle" x="2207.1449" y="-692.8228" font-family="Times,serif" font-size="14.00" fill="#000000">[root] var.PATH_TO_PRIVATE_KEY</text>
</g>
<!-- [root] meta.count&#45;boundary (count boundary fixup)&#45;&gt;[root] var.PATH_TO_PRIVATE_KEY -->
<g id="edge33" class="edge">
<title>[root] meta.count&#45;boundary (count boundary fixup)&#45;&gt;[root] var.PATH_TO_PRIVATE_KEY</title>
<path fill="none" stroke="#000000" d="M1872.9407,-629.5515C1944.1061,-643.8124 2047.0291,-664.4371 2119.817,-679.0231"/>
<polygon fill="#000000" stroke="#000000" points="2119.3885,-682.5068 2129.8813,-681.0399 2120.7639,-675.6432 2119.3885,-682.5068"/>
</g>
<!-- [root] provider.aws (close) -->
<g id="node23" class="node">
<title>[root] provider.aws (close)</title>
<ellipse fill="none" stroke="#000000" cx="1706.95" cy="-579.827" rx="105.0817" ry="18"/>
<text text-anchor="middle" x="1706.95" y="-576.127" font-family="Times,serif" font-size="14.00" fill="#000000">[root] provider.aws (close)</text>
</g>
<!-- [root] provider.aws (close)&#45;&gt;[root] aws_route_table_association.main&#45;public&#45;1&#45;a -->
<g id="edge34" class="edge">
<title>[root] provider.aws (close)&#45;&gt;[root] aws_route_table_association.main&#45;public&#45;1&#45;a</title>
<path fill="none" stroke="#000000" d="M1701.6001,-561.6768C1687.9682,-515.429 1651.8558,-392.9131 1635.5243,-337.5065"/>
<polygon fill="#000000" stroke="#000000" points="1638.809,-336.2708 1632.6244,-327.6684 1632.0946,-338.25 1638.809,-336.2708"/>
</g>
<!-- [root] provider.aws (close)&#45;&gt;[root] aws_route_table_association.main&#45;public&#45;2&#45;a -->
<g id="edge35" class="edge">
<title>[root] provider.aws (close)&#45;&gt;[root] aws_route_table_association.main&#45;public&#45;2&#45;a</title>
<path fill="none" stroke="#000000" d="M1718.0751,-561.5175C1746.5993,-514.5726 1822.4569,-389.7274 1856.1103,-334.3411"/>
<polygon fill="#000000" stroke="#000000" points="1859.3083,-335.8181 1861.5099,-325.4545 1853.326,-332.1832 1859.3083,-335.8181"/>
</g>
<!-- [root] provider.aws (close)&#45;&gt;[root] aws_route_table_association.main&#45;public&#45;3&#45;a -->
<g id="edge36" class="edge">
<title>[root] provider.aws (close)&#45;&gt;[root] aws_route_table_association.main&#45;public&#45;3&#45;a</title>
<path fill="none" stroke="#000000" d="M1736.6374,-562.5312C1786.2297,-533.6391 1885.9699,-475.531 1941.775,-443.0192"/>
<polygon fill="#000000" stroke="#000000" points="1943.7916,-445.895 1950.6703,-437.8369 1940.2678,-439.8466 1943.7916,-445.895"/>
</g>
<!-- [root] provider.aws (close)&#45;&gt;[root] aws_subnet.main&#45;private&#45;1 -->
<g id="edge37" class="edge">
<title>[root] provider.aws (close)&#45;&gt;[root] aws_subnet.main&#45;private&#45;1</title>
<path fill="none" stroke="#000000" d="M1627.0615,-567.9924C1626.9901,-567.9818 1626.9186,-567.9712 1626.8472,-567.9607"/>
<polygon fill="#000000" stroke="#000000" points="1637.0394,-565.936 1626.633,-567.9289 1636.0109,-572.8605 1637.0394,-565.936"/>
</g>
<!-- [root] provider.aws (close)&#45;&gt;[root] aws_subnet.main&#45;private&#45;2 -->
<g id="edge38" class="edge">
<title>[root] provider.aws (close)&#45;&gt;[root] aws_subnet.main&#45;private&#45;2</title>
<path fill="none" stroke="#000000" d="M1679.2308,-597.296C1646.0581,-618.2019 1590.3794,-653.2914 1553.4959,-676.5359"/>
<polygon fill="#000000" stroke="#000000" points="1551.6029,-673.5918 1545.0089,-681.8845 1555.3351,-679.5138 1551.6029,-673.5918"/>
</g>
<!-- [root] provider.aws (close)&#45;&gt;[root] aws_subnet.main&#45;private&#45;3 -->
<g id="edge39" class="edge">
<title>[root] provider.aws (close)&#45;&gt;[root] aws_subnet.main&#45;private&#45;3</title>
<path fill="none" stroke="#000000" d="M1697.4429,-597.9159C1681.8545,-627.5753 1650.7695,-686.7198 1632.4813,-721.5162"/>
<polygon fill="#000000" stroke="#000000" points="1629.2402,-720.1599 1627.6859,-730.6401 1635.4365,-723.4166 1629.2402,-720.1599"/>
</g>
<!-- [root] provider.aws (close)&#45;&gt;[root] aws_volume_attachment.ebs&#45;volume&#45;1&#45;attachment -->
<g id="edge40" class="edge">
<title>[root] provider.aws (close)&#45;&gt;[root] aws_volume_attachment.ebs&#45;volume&#45;1&#45;attachment</title>
<path fill="none" stroke="#000000" d="M1614.0859,-588.337C1566.429,-592.7043 1507.0513,-598.1457 1452.4432,-603.15"/>
<polygon fill="#000000" stroke="#000000" points="1451.9449,-599.6809 1442.306,-604.0789 1452.5837,-606.6517 1451.9449,-599.6809"/>
</g>
<!-- [root] root -->
<g id="node25" class="node">
<title>[root] root</title>
<ellipse fill="none" stroke="#000000" cx="1942.2016" cy="-842.3082" rx="47.3916" ry="18"/>
<text text-anchor="middle" x="1942.2016" y="-838.6082" font-family="Times,serif" font-size="14.00" fill="#000000">[root] root</text>
</g>
<!-- [root] root&#45;&gt;[root] meta.count&#45;boundary (count boundary fixup) -->
<g id="edge42" class="edge">
<title>[root] root&#45;&gt;[root] meta.count&#45;boundary (count boundary fixup)</title>
<path fill="none" stroke="#000000" d="M1930.6092,-824.7098C1904.2812,-784.7416 1839.8542,-686.9353 1808.7034,-639.6455"/>
<polygon fill="#000000" stroke="#000000" points="1811.5381,-637.5863 1803.1143,-631.1607 1805.6924,-641.437 1811.5381,-637.5863"/>
</g>
<!-- [root] root&#45;&gt;[root] provider.aws (close) -->
<g id="edge43" class="edge">
<title>[root] root&#45;&gt;[root] provider.aws (close)</title>
<path fill="none" stroke="#000000" d="M1926.7661,-825.0861C1886.4157,-780.0653 1777.6258,-658.6833 1729.91,-605.4445"/>
<polygon fill="#000000" stroke="#000000" points="1732.3425,-602.9146 1723.0619,-597.8038 1727.1298,-607.5866 1732.3425,-602.9146"/>
</g>
</g>
</svg>
