<?xml version="1.0" encoding="UTF-8" standalone="no"?>
<!DOCTYPE svg PUBLIC "-//W3C//DTD SVG 1.1//EN"
 "http://www.w3.org/Graphics/SVG/1.1/DTD/svg11.dtd">
<!-- Generated by graphviz version 2.40.1 (20161225.0304)
 -->
<!-- Title: %3 Pages: 1 -->
<svg width="1976pt" height="1245pt"
 viewBox="0.00 0.00 1976.00 1245.00" xmlns="http://www.w3.org/2000/svg" xmlns:xlink="http://www.w3.org/1999/xlink">
<g id="graph0" class="graph" transform="scale(1 1) rotate(0) translate(4 1241)">
<title>%3</title>
<polygon fill="#ffffff" stroke="transparent" points="-4,4 -4,-1241 1972,-1241 1972,4 -4,4"/>
<!-- [root] aws_ebs_volume.ebs&#45;volume&#45;1 -->
<g id="node1" class="node">
<title>[root] aws_ebs_volume.ebs&#45;volume&#45;1</title>
<polygon fill="none" stroke="#000000" points="693.1655,-692.0209 504.1655,-692.0209 504.1655,-656.0209 693.1655,-656.0209 693.1655,-692.0209"/>
<text text-anchor="middle" x="598.6655" y="-670.3209" font-family="Times,serif" font-size="14.00" fill="#000000">aws_ebs_volume.ebs&#45;volume&#45;1</text>
</g>
<!-- [root] provider.aws -->
<g id="node18" class="node">
<title>[root] provider.aws</title>
<polygon fill="none" stroke="#000000" points="769.5242,-911.7805 689.5908,-893.7805 769.5242,-875.7805 849.4576,-893.7805 769.5242,-911.7805"/>
<text text-anchor="middle" x="769.5242" y="-890.0805" font-family="Times,serif" font-size="14.00" fill="#000000">provider.aws</text>
</g>
<!-- [root] aws_ebs_volume.ebs&#45;volume&#45;1&#45;&gt;[root] provider.aws -->
<g id="edge1" class="edge">
<title>[root] aws_ebs_volume.ebs&#45;volume&#45;1&#45;&gt;[root] provider.aws</title>
<path fill="none" stroke="#000000" d="M612.939,-692.3795C643.8423,-732.1276 716.9145,-826.1136 751.184,-870.1912"/>
<polygon fill="#000000" stroke="#000000" points="748.5954,-872.564 757.4965,-878.3104 754.1216,-868.2674 748.5954,-872.564"/>
</g>
<!-- [root] aws_instance.example -->
<g id="node2" class="node">
<title>[root] aws_instance.example</title>
<polygon fill="none" stroke="#000000" points="568.3812,-631.1195 429.3812,-631.1195 429.3812,-595.1195 568.3812,-595.1195 568.3812,-631.1195"/>
<text text-anchor="middle" x="498.8812" y="-609.4195" font-family="Times,serif" font-size="14.00" fill="#000000">aws_instance.example</text>
</g>
<!-- [root] aws_key_pair.mykeypair -->
<g id="node4" class="node">
<title>[root] aws_key_pair.mykeypair</title>
<polygon fill="none" stroke="#000000" points="515.5799,-930.5007 361.5799,-930.5007 361.5799,-894.5007 515.5799,-894.5007 515.5799,-930.5007"/>
<text text-anchor="middle" x="438.5799" y="-908.8007" font-family="Times,serif" font-size="14.00" fill="#000000">aws_key_pair.mykeypair</text>
</g>
<!-- [root] aws_instance.example&#45;&gt;[root] aws_key_pair.mykeypair -->
<g id="edge2" class="edge">
<title>[root] aws_instance.example&#45;&gt;[root] aws_key_pair.mykeypair</title>
<path fill="none" stroke="#000000" d="M495.1999,-631.3965C485.0202,-681.9363 456.4405,-823.8276 444.2283,-884.4581"/>
<polygon fill="#000000" stroke="#000000" points="440.7566,-883.9687 442.2131,-894.463 447.6188,-885.351 440.7566,-883.9687"/>
</g>
<!-- [root] aws_security_group.allow&#45;ssh -->
<g id="node9" class="node">
<title>[root] aws_security_group.allow&#45;ssh</title>
<polygon fill="none" stroke="#000000" points="857.0553,-596.6739 676.0553,-596.6739 676.0553,-560.6739 857.0553,-560.6739 857.0553,-596.6739"/>
<text text-anchor="middle" x="766.5553" y="-574.9739" font-family="Times,serif" font-size="14.00" fill="#000000">aws_security_group.allow&#45;ssh</text>
</g>
<!-- [root] aws_instance.example&#45;&gt;[root] aws_security_group.allow&#45;ssh -->
<g id="edge3" class="edge">
<title>[root] aws_instance.example&#45;&gt;[root] aws_security_group.allow&#45;ssh</title>
<path fill="none" stroke="#000000" d="M568.5107,-604.1592C598.1311,-600.3475 633.2505,-595.8282 665.6298,-591.6615"/>
<polygon fill="#000000" stroke="#000000" points="666.11,-595.1286 675.5814,-590.3809 665.2165,-588.1859 666.11,-595.1286"/>
</g>
<!-- [root] aws_subnet.main&#45;public&#45;1 -->
<g id="node13" class="node">
<title>[root] aws_subnet.main&#45;public&#45;1</title>
<polygon fill="none" stroke="#000000" points="884.4648,-697.6232 723.4648,-697.6232 723.4648,-661.6232 884.4648,-661.6232 884.4648,-697.6232"/>
<text text-anchor="middle" x="803.9648" y="-675.9232" font-family="Times,serif" font-size="14.00" fill="#000000">aws_subnet.main&#45;public&#45;1</text>
</g>
<!-- [root] aws_instance.example&#45;&gt;[root] aws_subnet.main&#45;public&#45;1 -->
<g id="edge4" class="edge">
<title>[root] aws_instance.example&#45;&gt;[root] aws_subnet.main&#45;public&#45;1</title>
<path fill="none" stroke="#000000" d="M568.4911,-628.2934C611.4178,-637.6508 666.9331,-649.7523 713.2778,-659.8548"/>
<polygon fill="#000000" stroke="#000000" points="712.8067,-663.3342 723.3228,-662.0445 714.2977,-656.4949 712.8067,-663.3342"/>
</g>
<!-- [root] var.AMIS -->
<g id="node19" class="node">
<title>[root] var.AMIS</title>
<ellipse fill="none" stroke="#000000" cx="216.1355" cy="-573.1107" rx="69.5877" ry="18"/>
<text text-anchor="middle" x="216.1355" y="-569.4107" font-family="Times,serif" font-size="14.00" fill="#000000">[root] var.AMIS</text>
</g>
<!-- [root] aws_instance.example&#45;&gt;[root] var.AMIS -->
<g id="edge5" class="edge">
<title>[root] aws_instance.example&#45;&gt;[root] var.AMIS</title>
<path fill="none" stroke="#000000" d="M429.3517,-603.281C386.1183,-597.1635 330.6763,-589.3184 287.1647,-583.1614"/>
<polygon fill="#000000" stroke="#000000" points="287.6171,-579.6907 277.2253,-581.755 286.6363,-586.6216 287.6171,-579.6907"/>
</g>
<!-- [root] aws_internet_gateway.main&#45;gw -->
<g id="node3" class="node">
<title>[root] aws_internet_gateway.main&#45;gw</title>
<polygon fill="none" stroke="#000000" points="1293.6013,-843.9219 1103.6013,-843.9219 1103.6013,-807.9219 1293.6013,-807.9219 1293.6013,-843.9219"/>
<text text-anchor="middle" x="1198.6013" y="-822.2219" font-family="Times,serif" font-size="14.00" fill="#000000">aws_internet_gateway.main&#45;gw</text>
</g>
<!-- [root] aws_vpc.main -->
<g id="node17" class="node">
<title>[root] aws_vpc.main</title>
<polygon fill="none" stroke="#000000" points="1085.6478,-693.6932 990.6478,-693.6932 990.6478,-657.6932 1085.6478,-657.6932 1085.6478,-693.6932"/>
<text text-anchor="middle" x="1038.1478" y="-671.9932" font-family="Times,serif" font-size="14.00" fill="#000000">aws_vpc.main</text>
</g>
<!-- [root] aws_internet_gateway.main&#45;gw&#45;&gt;[root] aws_vpc.main -->
<g id="edge6" class="edge">
<title>[root] aws_internet_gateway.main&#45;gw&#45;&gt;[root] aws_vpc.main</title>
<path fill="none" stroke="#000000" d="M1179.2469,-807.8008C1150.6959,-781.0692 1097.1928,-730.9756 1064.9038,-700.7442"/>
<polygon fill="#000000" stroke="#000000" points="1067.2629,-698.1583 1057.5709,-693.8785 1062.4786,-703.2682 1067.2629,-698.1583"/>
</g>
<!-- [root] aws_key_pair.mykeypair&#45;&gt;[root] provider.aws -->
<g id="edge7" class="edge">
<title>[root] aws_key_pair.mykeypair&#45;&gt;[root] provider.aws</title>
<path fill="none" stroke="#000000" d="M515.754,-908.1353C569.9432,-905.07 641.9995,-900.9941 695.4821,-897.9688"/>
<polygon fill="#000000" stroke="#000000" points="695.7952,-901.4568 705.5816,-897.3975 695.3998,-894.4679 695.7952,-901.4568"/>
</g>
<!-- [root] var.PATH_TO_PUBLIC_KEY -->
<g id="node20" class="node">
<title>[root] var.PATH_TO_PUBLIC_KEY</title>
<ellipse fill="none" stroke="#000000" cx="143.9867" cy="-1136.5146" rx="143.7746" ry="18"/>
<text text-anchor="middle" x="143.9867" y="-1132.8146" font-family="Times,serif" font-size="14.00" fill="#000000">[root] var.PATH_TO_PUBLIC_KEY</text>
</g>
<!-- [root] aws_key_pair.mykeypair&#45;&gt;[root] var.PATH_TO_PUBLIC_KEY -->
<g id="edge8" class="edge">
<title>[root] aws_key_pair.mykeypair&#45;&gt;[root] var.PATH_TO_PUBLIC_KEY</title>
<path fill="none" stroke="#000000" d="M414.4721,-930.8327C361.558,-971.0696 235.2435,-1067.1213 175.863,-1112.2753"/>
<polygon fill="#000000" stroke="#000000" points="173.4458,-1109.7164 167.6043,-1118.5554 177.6829,-1115.2884 173.4458,-1109.7164"/>
</g>
<!-- [root] aws_route_table.main&#45;public -->
<g id="node5" class="node">
<title>[root] aws_route_table.main&#45;public</title>
<polygon fill="none" stroke="#000000" points="1593.8331,-695.4814 1418.8331,-695.4814 1418.8331,-659.4814 1593.8331,-659.4814 1593.8331,-695.4814"/>
<text text-anchor="middle" x="1506.3331" y="-673.7814" font-family="Times,serif" font-size="14.00" fill="#000000">aws_route_table.main&#45;public</text>
</g>
<!-- [root] aws_route_table.main&#45;public&#45;&gt;[root] aws_internet_gateway.main&#45;gw -->
<g id="edge9" class="edge">
<title>[root] aws_route_table.main&#45;public&#45;&gt;[root] aws_internet_gateway.main&#45;gw</title>
<path fill="none" stroke="#000000" d="M1468.9068,-695.5347C1412.6872,-722.6533 1306.5221,-773.8642 1245.3072,-803.3924"/>
<polygon fill="#000000" stroke="#000000" points="1243.7343,-800.2651 1236.248,-807.7622 1246.7756,-806.5699 1243.7343,-800.2651"/>
</g>
<!-- [root] aws_route_table_association.main&#45;public&#45;1&#45;a -->
<g id="node6" class="node">
<title>[root] aws_route_table_association.main&#45;public&#45;1&#45;a</title>
<polygon fill="none" stroke="#000000" points="1288.2767,-628.0782 1025.2767,-628.0782 1025.2767,-592.0782 1288.2767,-592.0782 1288.2767,-628.0782"/>
<text text-anchor="middle" x="1156.7767" y="-606.3782" font-family="Times,serif" font-size="14.00" fill="#000000">aws_route_table_association.main&#45;public&#45;1&#45;a</text>
</g>
<!-- [root] aws_route_table_association.main&#45;public&#45;1&#45;a&#45;&gt;[root] aws_route_table.main&#45;public -->
<g id="edge10" class="edge">
<title>[root] aws_route_table_association.main&#45;public&#45;1&#45;a&#45;&gt;[root] aws_route_table.main&#45;public</title>
<path fill="none" stroke="#000000" d="M1250.4514,-628.141C1299.359,-637.5716 1359.1533,-649.1014 1408.6382,-658.6434"/>
<polygon fill="#000000" stroke="#000000" points="1408.2302,-662.1291 1418.712,-660.5859 1409.5556,-655.2557 1408.2302,-662.1291"/>
</g>
<!-- [root] aws_route_table_association.main&#45;public&#45;1&#45;a&#45;&gt;[root] aws_subnet.main&#45;public&#45;1 -->
<g id="edge11" class="edge">
<title>[root] aws_route_table_association.main&#45;public&#45;1&#45;a&#45;&gt;[root] aws_subnet.main&#45;public&#45;1</title>
<path fill="none" stroke="#000000" d="M1065.46,-628.0782C1012.9037,-638.4379 947.0972,-651.4095 894.6479,-661.7481"/>
<polygon fill="#000000" stroke="#000000" points="893.8149,-658.3449 884.6806,-663.7128 895.1687,-665.2127 893.8149,-658.3449"/>
</g>
<!-- [root] aws_route_table_association.main&#45;public&#45;2&#45;a -->
<g id="node7" class="node">
<title>[root] aws_route_table_association.main&#45;public&#45;2&#45;a</title>
<polygon fill="none" stroke="#000000" points="1714.3577,-465.8718 1451.3577,-465.8718 1451.3577,-429.8718 1714.3577,-429.8718 1714.3577,-465.8718"/>
<text text-anchor="middle" x="1582.8577" y="-444.1718" font-family="Times,serif" font-size="14.00" fill="#000000">aws_route_table_association.main&#45;public&#45;2&#45;a</text>
</g>
<!-- [root] aws_route_table_association.main&#45;public&#45;2&#45;a&#45;&gt;[root] aws_route_table.main&#45;public -->
<g id="edge12" class="edge">
<title>[root] aws_route_table_association.main&#45;public&#45;2&#45;a&#45;&gt;[root] aws_route_table.main&#45;public</title>
<path fill="none" stroke="#000000" d="M1576.8529,-465.8888C1563.5585,-505.7783 1531.5603,-601.7878 1515.6456,-649.5396"/>
<polygon fill="#000000" stroke="#000000" points="1512.2573,-648.6367 1512.4159,-659.2303 1518.8982,-650.85 1512.2573,-648.6367"/>
</g>
<!-- [root] aws_subnet.main&#45;public&#45;2 -->
<g id="node14" class="node">
<title>[root] aws_subnet.main&#45;public&#45;2</title>
<polygon fill="none" stroke="#000000" points="1406.6524,-717.9077 1245.6524,-717.9077 1245.6524,-681.9077 1406.6524,-681.9077 1406.6524,-717.9077"/>
<text text-anchor="middle" x="1326.1524" y="-696.2077" font-family="Times,serif" font-size="14.00" fill="#000000">aws_subnet.main&#45;public&#45;2</text>
</g>
<!-- [root] aws_route_table_association.main&#45;public&#45;2&#45;a&#45;&gt;[root] aws_subnet.main&#45;public&#45;2 -->
<g id="edge13" class="edge">
<title>[root] aws_route_table_association.main&#45;public&#45;2&#45;a&#45;&gt;[root] aws_subnet.main&#45;public&#45;2</title>
<path fill="none" stroke="#000000" d="M1564.3961,-465.9976C1519.3618,-510.2127 1403.7746,-623.6974 1351.958,-674.5715"/>
<polygon fill="#000000" stroke="#000000" points="1349.4752,-672.1041 1344.7916,-681.6075 1354.3794,-677.0991 1349.4752,-672.1041"/>
</g>
<!-- [root] aws_route_table_association.main&#45;public&#45;3&#45;a -->
<g id="node8" class="node">
<title>[root] aws_route_table_association.main&#45;public&#45;3&#45;a</title>
<polygon fill="none" stroke="#000000" points="1635.0774,-638.0791 1372.0774,-638.0791 1372.0774,-602.0791 1635.0774,-602.0791 1635.0774,-638.0791"/>
<text text-anchor="middle" x="1503.5774" y="-616.3791" font-family="Times,serif" font-size="14.00" fill="#000000">aws_route_table_association.main&#45;public&#45;3&#45;a</text>
</g>
<!-- [root] aws_route_table_association.main&#45;public&#45;3&#45;a&#45;&gt;[root] aws_route_table.main&#45;public -->
<g id="edge14" class="edge">
<title>[root] aws_route_table_association.main&#45;public&#45;3&#45;a&#45;&gt;[root] aws_route_table.main&#45;public</title>
<path fill="none" stroke="#000000" d="M1504.4493,-638.2416C1504.6152,-641.6965 1504.7924,-645.3881 1504.9693,-649.0733"/>
<polygon fill="#000000" stroke="#000000" points="1501.4818,-649.4195 1505.4574,-659.2401 1508.4737,-649.0837 1501.4818,-649.4195"/>
</g>
<!-- [root] aws_subnet.main&#45;public&#45;3 -->
<g id="node15" class="node">
<title>[root] aws_subnet.main&#45;public&#45;3</title>
<polygon fill="none" stroke="#000000" points="1370.8308,-890.6036 1209.8308,-890.6036 1209.8308,-854.6036 1370.8308,-854.6036 1370.8308,-890.6036"/>
<text text-anchor="middle" x="1290.3308" y="-868.9036" font-family="Times,serif" font-size="14.00" fill="#000000">aws_subnet.main&#45;public&#45;3</text>
</g>
<!-- [root] aws_route_table_association.main&#45;public&#45;3&#45;a&#45;&gt;[root] aws_subnet.main&#45;public&#45;3 -->
<g id="edge15" class="edge">
<title>[root] aws_route_table_association.main&#45;public&#45;3&#45;a&#45;&gt;[root] aws_subnet.main&#45;public&#45;3</title>
<path fill="none" stroke="#000000" d="M1488.2412,-638.2401C1450.9842,-682.3594 1355.5981,-795.3147 1312.2995,-846.5884"/>
<polygon fill="#000000" stroke="#000000" points="1309.5923,-844.3695 1305.8145,-854.2679 1314.9405,-848.8858 1309.5923,-844.3695"/>
</g>
<!-- [root] aws_security_group.allow&#45;ssh&#45;&gt;[root] aws_vpc.main -->
<g id="edge16" class="edge">
<title>[root] aws_security_group.allow&#45;ssh&#45;&gt;[root] aws_vpc.main</title>
<path fill="none" stroke="#000000" d="M817.0032,-596.6951C863.4557,-613.289 932.3155,-637.8874 980.8293,-655.2177"/>
<polygon fill="#000000" stroke="#000000" points="979.6535,-658.5142 990.2481,-658.5823 982.0084,-651.9222 979.6535,-658.5142"/>
</g>
<!-- [root] aws_subnet.main&#45;private&#45;1 -->
<g id="node10" class="node">
<title>[root] aws_subnet.main&#45;private&#45;1</title>
<polygon fill="none" stroke="#000000" points="1352.3067,-508.0294 1188.3067,-508.0294 1188.3067,-472.0294 1352.3067,-472.0294 1352.3067,-508.0294"/>
<text text-anchor="middle" x="1270.3067" y="-486.3294" font-family="Times,serif" font-size="14.00" fill="#000000">aws_subnet.main&#45;private&#45;1</text>
</g>
<!-- [root] aws_subnet.main&#45;private&#45;1&#45;&gt;[root] aws_vpc.main -->
<g id="edge17" class="edge">
<title>[root] aws_subnet.main&#45;private&#45;1&#45;&gt;[root] aws_vpc.main</title>
<path fill="none" stroke="#000000" d="M1247.6236,-508.1697C1205.7541,-541.6538 1116.2943,-613.1973 1068.9717,-651.0424"/>
<polygon fill="#000000" stroke="#000000" points="1066.5467,-648.5002 1060.9229,-657.4793 1070.9187,-653.967 1066.5467,-648.5002"/>
</g>
<!-- [root] aws_subnet.main&#45;private&#45;2 -->
<g id="node11" class="node">
<title>[root] aws_subnet.main&#45;private&#45;2</title>
<polygon fill="none" stroke="#000000" points="1180.1261,-459.573 1016.1261,-459.573 1016.1261,-423.573 1180.1261,-423.573 1180.1261,-459.573"/>
<text text-anchor="middle" x="1098.1261" y="-437.873" font-family="Times,serif" font-size="14.00" fill="#000000">aws_subnet.main&#45;private&#45;2</text>
</g>
<!-- [root] aws_subnet.main&#45;private&#45;2&#45;&gt;[root] aws_vpc.main -->
<g id="edge18" class="edge">
<title>[root] aws_subnet.main&#45;private&#45;2&#45;&gt;[root] aws_vpc.main</title>
<path fill="none" stroke="#000000" d="M1093.4197,-459.944C1082.9741,-500.7175 1057.7964,-598.9964 1045.3545,-647.5622"/>
<polygon fill="#000000" stroke="#000000" points="1041.9236,-646.8517 1042.8323,-657.4075 1048.7046,-648.589 1041.9236,-646.8517"/>
</g>
<!-- [root] aws_subnet.main&#45;private&#45;3 -->
<g id="node12" class="node">
<title>[root] aws_subnet.main&#45;private&#45;3</title>
<polygon fill="none" stroke="#000000" points="1140.8,-394.4084 976.8,-394.4084 976.8,-358.4084 1140.8,-358.4084 1140.8,-394.4084"/>
<text text-anchor="middle" x="1058.8" y="-372.7084" font-family="Times,serif" font-size="14.00" fill="#000000">aws_subnet.main&#45;private&#45;3</text>
</g>
<!-- [root] aws_subnet.main&#45;private&#45;3&#45;&gt;[root] aws_vpc.main -->
<g id="edge19" class="edge">
<title>[root] aws_subnet.main&#45;private&#45;3&#45;&gt;[root] aws_vpc.main</title>
<path fill="none" stroke="#000000" d="M1057.5392,-394.6795C1054.0528,-445.203 1044.2647,-587.0486 1040.0822,-647.6596"/>
<polygon fill="#000000" stroke="#000000" points="1036.5889,-647.444 1039.3921,-657.6612 1043.5723,-647.9259 1036.5889,-647.444"/>
</g>
<!-- [root] aws_subnet.main&#45;public&#45;1&#45;&gt;[root] aws_vpc.main -->
<g id="edge20" class="edge">
<title>[root] aws_subnet.main&#45;public&#45;1&#45;&gt;[root] aws_vpc.main</title>
<path fill="none" stroke="#000000" d="M884.5573,-678.2707C916.0193,-677.7427 951.3876,-677.1492 980.2469,-676.6649"/>
<polygon fill="#000000" stroke="#000000" points="980.6257,-680.1591 990.5656,-676.4917 980.5082,-673.1601 980.6257,-680.1591"/>
</g>
<!-- [root] aws_subnet.main&#45;public&#45;2&#45;&gt;[root] aws_vpc.main -->
<g id="edge21" class="edge">
<title>[root] aws_subnet.main&#45;public&#45;2&#45;&gt;[root] aws_vpc.main</title>
<path fill="none" stroke="#000000" d="M1245.5441,-693.1304C1197.9397,-689.128 1138.7874,-684.1547 1095.8521,-680.5448"/>
<polygon fill="#000000" stroke="#000000" points="1096.111,-677.0543 1085.8529,-679.7041 1095.5245,-684.0297 1096.111,-677.0543"/>
</g>
<!-- [root] aws_subnet.main&#45;public&#45;3&#45;&gt;[root] aws_vpc.main -->
<g id="edge22" class="edge">
<title>[root] aws_subnet.main&#45;public&#45;3&#45;&gt;[root] aws_vpc.main</title>
<path fill="none" stroke="#000000" d="M1267.058,-854.4317C1221.5496,-818.8976 1120.7522,-740.1926 1069.4534,-700.1374"/>
<polygon fill="#000000" stroke="#000000" points="1071.4002,-697.2169 1061.3643,-693.8212 1067.0921,-702.7342 1071.4002,-697.2169"/>
</g>
<!-- [root] aws_volume_attachment.ebs&#45;volume&#45;1&#45;attachment -->
<g id="node16" class="node">
<title>[root] aws_volume_attachment.ebs&#45;volume&#45;1&#45;attachment</title>
<polygon fill="none" stroke="#000000" points="966.7855,-393.1569 670.7855,-393.1569 670.7855,-357.1569 966.7855,-357.1569 966.7855,-393.1569"/>
<text text-anchor="middle" x="818.7855" y="-371.4569" font-family="Times,serif" font-size="14.00" fill="#000000">aws_volume_attachment.ebs&#45;volume&#45;1&#45;attachment</text>
</g>
<!-- [root] aws_volume_attachment.ebs&#45;volume&#45;1&#45;attachment&#45;&gt;[root] aws_ebs_volume.ebs&#45;volume&#45;1 -->
<g id="edge23" class="edge">
<title>[root] aws_volume_attachment.ebs&#45;volume&#45;1&#45;attachment&#45;&gt;[root] aws_ebs_volume.ebs&#45;volume&#45;1</title>
<path fill="none" stroke="#000000" d="M805.3474,-393.4023C767.8033,-444.3771 661.6953,-588.4433 617.9188,-647.8802"/>
<polygon fill="#000000" stroke="#000000" points="615.04,-645.8869 611.9278,-656.0143 620.6763,-650.0381 615.04,-645.8869"/>
</g>
<!-- [root] aws_volume_attachment.ebs&#45;volume&#45;1&#45;attachment&#45;&gt;[root] aws_instance.example -->
<g id="edge24" class="edge">
<title>[root] aws_volume_attachment.ebs&#45;volume&#45;1&#45;attachment&#45;&gt;[root] aws_instance.example</title>
<path fill="none" stroke="#000000" d="M794.4782,-393.2381C737.5441,-435.5888 595.5273,-541.2288 531.3153,-588.9932"/>
<polygon fill="#000000" stroke="#000000" points="529.0863,-586.2891 523.1516,-595.0658 533.2642,-591.9057 529.0863,-586.2891"/>
</g>
<!-- [root] aws_vpc.main&#45;&gt;[root] provider.aws -->
<g id="edge25" class="edge">
<title>[root] aws_vpc.main&#45;&gt;[root] provider.aws</title>
<path fill="none" stroke="#000000" d="M1015.7071,-693.9121C966.0348,-734.2395 847.0676,-830.8254 794.8384,-873.2287"/>
<polygon fill="#000000" stroke="#000000" points="792.6073,-870.5318 787.0498,-879.552 797.0194,-875.9663 792.6073,-870.5318"/>
</g>
<!-- [root] var.AWS_REGION -->
<g id="node24" class="node">
<title>[root] var.AWS_REGION</title>
<ellipse fill="none" stroke="#000000" cx="681.2922" cy="-1218.7558" rx="104.7816" ry="18"/>
<text text-anchor="middle" x="681.2922" y="-1215.0558" font-family="Times,serif" font-size="14.00" fill="#000000">[root] var.AWS_REGION</text>
</g>
<!-- [root] provider.aws&#45;&gt;[root] var.AWS_REGION -->
<g id="edge41" class="edge">
<title>[root] provider.aws&#45;&gt;[root] var.AWS_REGION</title>
<path fill="none" stroke="#000000" d="M764.9047,-910.795C750.5626,-963.6196 706.698,-1125.1814 688.9077,-1190.7065"/>
<polygon fill="#000000" stroke="#000000" points="685.4311,-1190.1538 686.1886,-1200.7216 692.1865,-1191.988 685.4311,-1190.1538"/>
</g>
<!-- [root] meta.count&#45;boundary (count boundary fixup) -->
<g id="node21" class="node">
<title>[root] meta.count&#45;boundary (count boundary fixup)</title>
<ellipse fill="none" stroke="#000000" cx="1393.3943" cy="-341.6403" rx="193.0657" ry="18"/>
<text text-anchor="middle" x="1393.3943" y="-337.9403" font-family="Times,serif" font-size="14.00" fill="#000000">[root] meta.count&#45;boundary (count boundary fixup)</text>
</g>
<!-- [root] meta.count&#45;boundary (count boundary fixup)&#45;&gt;[root] aws_route_table_association.main&#45;public&#45;1&#45;a -->
<g id="edge26" class="edge">
<title>[root] meta.count&#45;boundary (count boundary fixup)&#45;&gt;[root] aws_route_table_association.main&#45;public&#45;1&#45;a</title>
<path fill="none" stroke="#000000" d="M1377.5018,-359.6701C1336.5998,-406.0725 1227.5686,-529.7662 1179.7711,-583.9915"/>
<polygon fill="#000000" stroke="#000000" points="1176.8986,-581.9573 1172.9117,-591.7734 1182.1498,-586.586 1176.8986,-581.9573"/>
</g>
<!-- [root] meta.count&#45;boundary (count boundary fixup)&#45;&gt;[root] aws_route_table_association.main&#45;public&#45;2&#45;a -->
<g id="edge27" class="edge">
<title>[root] meta.count&#45;boundary (count boundary fixup)&#45;&gt;[root] aws_route_table_association.main&#45;public&#45;2&#45;a</title>
<path fill="none" stroke="#000000" d="M1425.1062,-359.4211C1457.1144,-377.368 1506.6898,-405.1647 1541.7089,-424.7998"/>
<polygon fill="#000000" stroke="#000000" points="1540.2911,-428.0174 1550.7253,-429.8553 1543.7146,-421.9117 1540.2911,-428.0174"/>
</g>
<!-- [root] meta.count&#45;boundary (count boundary fixup)&#45;&gt;[root] aws_route_table_association.main&#45;public&#45;3&#45;a -->
<g id="edge28" class="edge">
<title>[root] meta.count&#45;boundary (count boundary fixup)&#45;&gt;[root] aws_route_table_association.main&#45;public&#45;3&#45;a</title>
<path fill="none" stroke="#000000" d="M1400.6238,-359.9094C1419.4574,-407.5033 1470.1259,-535.5454 1492.5925,-592.3198"/>
<polygon fill="#000000" stroke="#000000" points="1489.3873,-593.7321 1496.3213,-601.7427 1495.8962,-591.1564 1489.3873,-593.7321"/>
</g>
<!-- [root] meta.count&#45;boundary (count boundary fixup)&#45;&gt;[root] aws_subnet.main&#45;private&#45;1 -->
<g id="edge29" class="edge">
<title>[root] meta.count&#45;boundary (count boundary fixup)&#45;&gt;[root] aws_subnet.main&#45;private&#45;1</title>
<path fill="none" stroke="#000000" d="M1378.3014,-359.8357C1356.7077,-385.8681 1316.8741,-433.8898 1292.0875,-463.7714"/>
<polygon fill="#000000" stroke="#000000" points="1289.2137,-461.7538 1285.5231,-471.6851 1294.6014,-466.2229 1289.2137,-461.7538"/>
</g>
<!-- [root] meta.count&#45;boundary (count boundary fixup)&#45;&gt;[root] aws_subnet.main&#45;private&#45;2 -->
<g id="edge30" class="edge">
<title>[root] meta.count&#45;boundary (count boundary fixup)&#45;&gt;[root] aws_subnet.main&#45;private&#45;2</title>
<path fill="none" stroke="#000000" d="M1341.9625,-359.0473C1291.7212,-376.0513 1215.1522,-401.9659 1161.2479,-420.2096"/>
<polygon fill="#000000" stroke="#000000" points="1159.8081,-417.0018 1151.458,-423.523 1162.0523,-423.6324 1159.8081,-417.0018"/>
</g>
<!-- [root] meta.count&#45;boundary (count boundary fixup)&#45;&gt;[root] aws_subnet.main&#45;private&#45;3 -->
<g id="edge31" class="edge">
<title>[root] meta.count&#45;boundary (count boundary fixup)&#45;&gt;[root] aws_subnet.main&#45;private&#45;3</title>
<path fill="none" stroke="#000000" d="M1264.0314,-355.0826C1226.3722,-358.9958 1186.006,-363.1903 1151.1227,-366.8151"/>
<polygon fill="#000000" stroke="#000000" points="1150.5453,-363.3561 1140.9606,-367.871 1151.2688,-370.3186 1150.5453,-363.3561"/>
</g>
<!-- [root] meta.count&#45;boundary (count boundary fixup)&#45;&gt;[root] aws_volume_attachment.ebs&#45;volume&#45;1&#45;attachment -->
<g id="edge32" class="edge">
<title>[root] meta.count&#45;boundary (count boundary fixup)&#45;&gt;[root] aws_volume_attachment.ebs&#45;volume&#45;1&#45;attachment</title>
<path fill="none" stroke="#000000" d="M1229.5035,-351.2C1150.4553,-355.8108 1056.0178,-361.3193 977.6403,-365.891"/>
<polygon fill="#000000" stroke="#000000" points="976.9624,-362.4245 967.1833,-366.501 977.3701,-369.4126 976.9624,-362.4245"/>
</g>
<!-- [root] var.PATH_TO_PRIVATE_KEY -->
<g id="node22" class="node">
<title>[root] var.PATH_TO_PRIVATE_KEY</title>
<ellipse fill="none" stroke="#000000" cx="1818.2779" cy="-40.8224" rx="149.4735" ry="18"/>
<text text-anchor="middle" x="1818.2779" y="-37.1224" font-family="Times,serif" font-size="14.00" fill="#000000">[root] var.PATH_TO_PRIVATE_KEY</text>
</g>
<!-- [root] meta.count&#45;boundary (count boundary fixup)&#45;&gt;[root] var.PATH_TO_PRIVATE_KEY -->
<g id="edge33" class="edge">
<title>[root] meta.count&#45;boundary (count boundary fixup)&#45;&gt;[root] var.PATH_TO_PRIVATE_KEY</title>
<path fill="none" stroke="#000000" d="M1418.7003,-323.7236C1491.6132,-272.1013 1702.1805,-123.0194 1784.6165,-64.6547"/>
<polygon fill="#000000" stroke="#000000" points="1786.9654,-67.2801 1793.1045,-58.6451 1782.9205,-61.567 1786.9654,-67.2801"/>
</g>
<!-- [root] provider.aws (close) -->
<g id="node23" class="node">
<title>[root] provider.aws (close)</title>
<ellipse fill="none" stroke="#000000" cx="1278.1891" cy="-280.6502" rx="105.0817" ry="18"/>
<text text-anchor="middle" x="1278.1891" y="-276.9502" font-family="Times,serif" font-size="14.00" fill="#000000">[root] provider.aws (close)</text>
</g>
<!-- [root] provider.aws (close)&#45;&gt;[root] aws_route_table_association.main&#45;public&#45;1&#45;a -->
<g id="edge34" class="edge">
<title>[root] provider.aws (close)&#45;&gt;[root] aws_route_table_association.main&#45;public&#45;1&#45;a</title>
<path fill="none" stroke="#000000" d="M1271.4885,-298.8309C1251.3392,-353.5019 1191.2036,-516.6677 1167.0179,-582.2906"/>
<polygon fill="#000000" stroke="#000000" points="1163.6308,-581.3602 1163.4566,-591.9536 1170.1989,-583.781 1163.6308,-581.3602"/>
</g>
<!-- [root] provider.aws (close)&#45;&gt;[root] aws_route_table_association.main&#45;public&#45;2&#45;a -->
<g id="edge35" class="edge">
<title>[root] provider.aws (close)&#45;&gt;[root] aws_route_table_association.main&#45;public&#45;2&#45;a</title>
<path fill="none" stroke="#000000" d="M1309.6465,-297.916C1364.7437,-328.1569 1478.7204,-390.7146 1540.6231,-424.6907"/>
<polygon fill="#000000" stroke="#000000" points="1539.2792,-427.9456 1549.7296,-429.689 1542.6473,-421.8092 1539.2792,-427.9456"/>
</g>
<!-- [root] provider.aws (close)&#45;&gt;[root] aws_route_table_association.main&#45;public&#45;3&#45;a -->
<g id="edge36" class="edge">
<title>[root] provider.aws (close)&#45;&gt;[root] aws_route_table_association.main&#45;public&#45;3&#45;a</title>
<path fill="none" stroke="#000000" d="M1290.3069,-298.8994C1327.6837,-355.1879 1441.3211,-526.3228 1485.6236,-593.0413"/>
<polygon fill="#000000" stroke="#000000" points="1482.9521,-595.3452 1491.3996,-601.7397 1488.7835,-591.4729 1482.9521,-595.3452"/>
</g>
<!-- [root] provider.aws (close)&#45;&gt;[root] aws_subnet.main&#45;private&#45;1 -->
<g id="edge37" class="edge">
<title>[root] provider.aws (close)&#45;&gt;[root] aws_subnet.main&#45;private&#45;1</title>
<path fill="none" stroke="#000000" d="M1277.5034,-298.865C1276.1256,-335.4615 1273.0131,-418.1387 1271.3695,-461.7984"/>
<polygon fill="#000000" stroke="#000000" points="1267.864,-461.8812 1270.9852,-472.0058 1274.859,-462.1446 1267.864,-461.8812"/>
</g>
<!-- [root] provider.aws (close)&#45;&gt;[root] aws_subnet.main&#45;private&#45;2 -->
<g id="edge38" class="edge">
<title>[root] provider.aws (close)&#45;&gt;[root] aws_subnet.main&#45;private&#45;2</title>
<path fill="none" stroke="#000000" d="M1258.2312,-298.4866C1226.1382,-327.1683 1162.9563,-383.6341 1126.2889,-416.4039"/>
<polygon fill="#000000" stroke="#000000" points="1123.5733,-414.1367 1118.4493,-423.4101 1128.2378,-419.3561 1123.5733,-414.1367"/>
</g>
<!-- [root] provider.aws (close)&#45;&gt;[root] aws_subnet.main&#45;private&#45;3 -->
<g id="edge39" class="edge">
<title>[root] provider.aws (close)&#45;&gt;[root] aws_subnet.main&#45;private&#45;3</title>
<path fill="none" stroke="#000000" d="M1239.7234,-297.4396C1203.5447,-313.2308 1149.1541,-336.971 1109.4567,-354.298"/>
<polygon fill="#000000" stroke="#000000" points="1107.9743,-351.126 1100.2094,-358.3342 1110.7746,-357.5416 1107.9743,-351.126"/>
</g>
<!-- [root] provider.aws (close)&#45;&gt;[root] aws_volume_attachment.ebs&#45;volume&#45;1&#45;attachment -->
<g id="edge40" class="edge">
<title>[root] provider.aws (close)&#45;&gt;[root] aws_volume_attachment.ebs&#45;volume&#45;1&#45;attachment</title>
<path fill="none" stroke="#000000" d="M1210.4025,-294.595C1132.7762,-310.564 1004.9536,-336.8591 916.5617,-355.0428"/>
<polygon fill="#000000" stroke="#000000" points="915.6124,-351.6647 906.5228,-357.1079 917.023,-358.5211 915.6124,-351.6647"/>
</g>
<!-- [root] root -->
<g id="node25" class="node">
<title>[root] root</title>
<ellipse fill="none" stroke="#000000" cx="1409.4876" cy="-17.6814" rx="47.3916" ry="18"/>
<text text-anchor="middle" x="1409.4876" y="-13.9814" font-family="Times,serif" font-size="14.00" fill="#000000">[root] root</text>
</g>
<!-- [root] root&#45;&gt;[root] meta.count&#45;boundary (count boundary fixup) -->
<g id="edge42" class="edge">
<title>[root] root&#45;&gt;[root] meta.count&#45;boundary (count boundary fixup)</title>
<path fill="none" stroke="#000000" d="M1408.5762,-36.0271C1405.8985,-89.9291 1398.0411,-248.1012 1394.8084,-313.175"/>
<polygon fill="#000000" stroke="#000000" points="1391.2963,-313.3345 1394.2957,-323.4959 1398.2876,-313.6819 1391.2963,-313.3345"/>
</g>
<!-- [root] root&#45;&gt;[root] provider.aws (close) -->
<g id="edge43" class="edge">
<title>[root] root&#45;&gt;[root] provider.aws (close)</title>
<path fill="none" stroke="#000000" d="M1400.4629,-35.7564C1377.8353,-81.0756 1318.5824,-199.7491 1291.7454,-253.4992"/>
<polygon fill="#000000" stroke="#000000" points="1288.6127,-251.9385 1287.2769,-262.4488 1294.8754,-255.0655 1288.6127,-251.9385"/>
</g>
</g>
</svg>
