<?xml version="1.0" encoding="UTF-8" standalone="no"?>
<!DOCTYPE svg PUBLIC "-//W3C//DTD SVG 1.1//EN"
 "http://www.w3.org/Graphics/SVG/1.1/DTD/svg11.dtd">
<!-- Generated by graphviz version 2.40.1 (20161225.0304)
 -->
<!-- Title: %3 Pages: 1 -->
<svg width="2011pt" height="548pt"
 viewBox="0.00 0.00 2010.99 548.00" xmlns="http://www.w3.org/2000/svg" xmlns:xlink="http://www.w3.org/1999/xlink">
<g id="graph0" class="graph" transform="scale(1 1) rotate(0) translate(4 544)">
<title>%3</title>
<polygon fill="#ffffff" stroke="transparent" points="-4,4 -4,-544 2006.9867,-544 2006.9867,4 -4,4"/>
<!-- [root] aws_ebs_volume.ebs&#45;volume&#45;1 -->
<g id="node1" class="node">
<title>[root] aws_ebs_volume.ebs&#45;volume&#45;1</title>
<polygon fill="none" stroke="#000000" points="189,-180 0,-180 0,-144 189,-144 189,-180"/>
<text text-anchor="middle" x="94.5" y="-158.3" font-family="Times,serif" font-size="14.00" fill="#000000">aws_ebs_volume.ebs&#45;volume&#45;1</text>
</g>
<!-- [root] provider.aws -->
<g id="node18" class="node">
<title>[root] provider.aws</title>
<polygon fill="none" stroke="#000000" points="217.5,-108 137.5666,-90 217.5,-72 297.4334,-90 217.5,-108"/>
<text text-anchor="middle" x="217.5" y="-86.3" font-family="Times,serif" font-size="14.00" fill="#000000">provider.aws</text>
</g>
<!-- [root] aws_ebs_volume.ebs&#45;volume&#45;1&#45;&gt;[root] provider.aws -->
<g id="edge1" class="edge">
<title>[root] aws_ebs_volume.ebs&#45;volume&#45;1&#45;&gt;[root] provider.aws</title>
<path fill="none" stroke="#000000" d="M125.5381,-143.8314C144.1306,-132.9479 167.6924,-119.1557 186.3116,-108.2566"/>
<polygon fill="#000000" stroke="#000000" points="188.1494,-111.2364 195.0115,-103.164 184.6132,-105.1953 188.1494,-111.2364"/>
</g>
<!-- [root] aws_instance.example -->
<g id="node2" class="node">
<title>[root] aws_instance.example</title>
<polygon fill="none" stroke="#000000" points="468,-324 329,-324 329,-288 468,-288 468,-324"/>
<text text-anchor="middle" x="398.5" y="-302.3" font-family="Times,serif" font-size="14.00" fill="#000000">aws_instance.example</text>
</g>
<!-- [root] aws_key_pair.mykeypair -->
<g id="node4" class="node">
<title>[root] aws_key_pair.mykeypair</title>
<polygon fill="none" stroke="#000000" points="289.5,-252 135.5,-252 135.5,-216 289.5,-216 289.5,-252"/>
<text text-anchor="middle" x="212.5" y="-230.3" font-family="Times,serif" font-size="14.00" fill="#000000">aws_key_pair.mykeypair</text>
</g>
<!-- [root] aws_instance.example&#45;&gt;[root] aws_key_pair.mykeypair -->
<g id="edge2" class="edge">
<title>[root] aws_instance.example&#45;&gt;[root] aws_key_pair.mykeypair</title>
<path fill="none" stroke="#000000" d="M351.5643,-287.8314C326.3563,-278.0734 295.1074,-265.977 268.6209,-255.7242"/>
<polygon fill="#000000" stroke="#000000" points="269.6873,-252.384 259.0981,-252.038 267.1603,-258.912 269.6873,-252.384"/>
</g>
<!-- [root] aws_security_group.allow&#45;ssh -->
<g id="node9" class="node">
<title>[root] aws_security_group.allow&#45;ssh</title>
<polygon fill="none" stroke="#000000" points="489,-252 308,-252 308,-216 489,-216 489,-252"/>
<text text-anchor="middle" x="398.5" y="-230.3" font-family="Times,serif" font-size="14.00" fill="#000000">aws_security_group.allow&#45;ssh</text>
</g>
<!-- [root] aws_instance.example&#45;&gt;[root] aws_security_group.allow&#45;ssh -->
<g id="edge3" class="edge">
<title>[root] aws_instance.example&#45;&gt;[root] aws_security_group.allow&#45;ssh</title>
<path fill="none" stroke="#000000" d="M398.5,-287.8314C398.5,-280.131 398.5,-270.9743 398.5,-262.4166"/>
<polygon fill="#000000" stroke="#000000" points="402.0001,-262.4132 398.5,-252.4133 395.0001,-262.4133 402.0001,-262.4132"/>
</g>
<!-- [root] aws_subnet.main&#45;public&#45;1 -->
<g id="node13" class="node">
<title>[root] aws_subnet.main&#45;public&#45;1</title>
<polygon fill="none" stroke="#000000" points="825,-252 664,-252 664,-216 825,-216 825,-252"/>
<text text-anchor="middle" x="744.5" y="-230.3" font-family="Times,serif" font-size="14.00" fill="#000000">aws_subnet.main&#45;public&#45;1</text>
</g>
<!-- [root] aws_instance.example&#45;&gt;[root] aws_subnet.main&#45;public&#45;1 -->
<g id="edge4" class="edge">
<title>[root] aws_instance.example&#45;&gt;[root] aws_subnet.main&#45;public&#45;1</title>
<path fill="none" stroke="#000000" d="M468.1021,-291.5163C521.5478,-280.3947 595.7897,-264.9455 653.8721,-252.859"/>
<polygon fill="#000000" stroke="#000000" points="654.7059,-256.2605 663.7831,-250.7966 653.2797,-249.4073 654.7059,-256.2605"/>
</g>
<!-- [root] var.AMIS -->
<g id="node19" class="node">
<title>[root] var.AMIS</title>
<ellipse fill="none" stroke="#000000" cx="576.5" cy="-234" rx="69.5877" ry="18"/>
<text text-anchor="middle" x="576.5" y="-230.3" font-family="Times,serif" font-size="14.00" fill="#000000">[root] var.AMIS</text>
</g>
<!-- [root] aws_instance.example&#45;&gt;[root] var.AMIS -->
<g id="edge5" class="edge">
<title>[root] aws_instance.example&#45;&gt;[root] var.AMIS</title>
<path fill="none" stroke="#000000" d="M443.4169,-287.8314C469.6505,-277.22 502.7203,-263.8435 529.3315,-253.0794"/>
<polygon fill="#000000" stroke="#000000" points="530.8609,-256.2363 538.8188,-249.2418 528.236,-249.7471 530.8609,-256.2363"/>
</g>
<!-- [root] aws_internet_gateway.main&#45;gw -->
<g id="node3" class="node">
<title>[root] aws_internet_gateway.main&#45;gw</title>
<polygon fill="none" stroke="#000000" points="1071.5,-252 881.5,-252 881.5,-216 1071.5,-216 1071.5,-252"/>
<text text-anchor="middle" x="976.5" y="-230.3" font-family="Times,serif" font-size="14.00" fill="#000000">aws_internet_gateway.main&#45;gw</text>
</g>
<!-- [root] aws_vpc.main -->
<g id="node17" class="node">
<title>[root] aws_vpc.main</title>
<polygon fill="none" stroke="#000000" points="1024,-180 929,-180 929,-144 1024,-144 1024,-180"/>
<text text-anchor="middle" x="976.5" y="-158.3" font-family="Times,serif" font-size="14.00" fill="#000000">aws_vpc.main</text>
</g>
<!-- [root] aws_internet_gateway.main&#45;gw&#45;&gt;[root] aws_vpc.main -->
<g id="edge6" class="edge">
<title>[root] aws_internet_gateway.main&#45;gw&#45;&gt;[root] aws_vpc.main</title>
<path fill="none" stroke="#000000" d="M976.5,-215.8314C976.5,-208.131 976.5,-198.9743 976.5,-190.4166"/>
<polygon fill="#000000" stroke="#000000" points="980.0001,-190.4132 976.5,-180.4133 973.0001,-190.4133 980.0001,-190.4132"/>
</g>
<!-- [root] aws_key_pair.mykeypair&#45;&gt;[root] provider.aws -->
<g id="edge7" class="edge">
<title>[root] aws_key_pair.mykeypair&#45;&gt;[root] provider.aws</title>
<path fill="none" stroke="#000000" d="M213.1333,-215.7623C213.9861,-191.201 215.5122,-147.2474 216.5155,-118.3541"/>
<polygon fill="#000000" stroke="#000000" points="220.0227,-118.2051 216.8719,-108.0896 213.0269,-117.9621 220.0227,-118.2051"/>
</g>
<!-- [root] var.PATH_TO_PUBLIC_KEY -->
<g id="node20" class="node">
<title>[root] var.PATH_TO_PUBLIC_KEY</title>
<ellipse fill="none" stroke="#000000" cx="389.5" cy="-162" rx="143.7746" ry="18"/>
<text text-anchor="middle" x="389.5" y="-158.3" font-family="Times,serif" font-size="14.00" fill="#000000">[root] var.PATH_TO_PUBLIC_KEY</text>
</g>
<!-- [root] aws_key_pair.mykeypair&#45;&gt;[root] var.PATH_TO_PUBLIC_KEY -->
<g id="edge8" class="edge">
<title>[root] aws_key_pair.mykeypair&#45;&gt;[root] var.PATH_TO_PUBLIC_KEY</title>
<path fill="none" stroke="#000000" d="M257.1646,-215.8314C281.5926,-205.8945 311.9817,-193.5329 337.4759,-183.1624"/>
<polygon fill="#000000" stroke="#000000" points="339.0403,-186.3045 346.9845,-179.2945 336.4027,-179.8205 339.0403,-186.3045"/>
</g>
<!-- [root] aws_route_table.main&#45;public -->
<g id="node5" class="node">
<title>[root] aws_route_table.main&#45;public</title>
<polygon fill="none" stroke="#000000" points="1001,-324 826,-324 826,-288 1001,-288 1001,-324"/>
<text text-anchor="middle" x="913.5" y="-302.3" font-family="Times,serif" font-size="14.00" fill="#000000">aws_route_table.main&#45;public</text>
</g>
<!-- [root] aws_route_table.main&#45;public&#45;&gt;[root] aws_internet_gateway.main&#45;gw -->
<g id="edge9" class="edge">
<title>[root] aws_route_table.main&#45;public&#45;&gt;[root] aws_internet_gateway.main&#45;gw</title>
<path fill="none" stroke="#000000" d="M929.3976,-287.8314C936.7278,-279.454 945.566,-269.3531 953.5969,-260.1749"/>
<polygon fill="#000000" stroke="#000000" points="956.4373,-262.2438 960.3884,-252.4133 951.1693,-257.6343 956.4373,-262.2438"/>
</g>
<!-- [root] aws_route_table_association.main&#45;public&#45;1&#45;a -->
<g id="node6" class="node">
<title>[root] aws_route_table_association.main&#45;public&#45;1&#45;a</title>
<polygon fill="none" stroke="#000000" points="578,-396 315,-396 315,-360 578,-360 578,-396"/>
<text text-anchor="middle" x="446.5" y="-374.3" font-family="Times,serif" font-size="14.00" fill="#000000">aws_route_table_association.main&#45;public&#45;1&#45;a</text>
</g>
<!-- [root] aws_route_table_association.main&#45;public&#45;1&#45;a&#45;&gt;[root] aws_route_table.main&#45;public -->
<g id="edge10" class="edge">
<title>[root] aws_route_table_association.main&#45;public&#45;1&#45;a&#45;&gt;[root] aws_route_table.main&#45;public</title>
<path fill="none" stroke="#000000" d="M578.1177,-360.0483C646.1803,-350.4604 730.8367,-338.0647 815.6801,-324.1043"/>
<polygon fill="#000000" stroke="#000000" points="816.4623,-327.5226 825.7578,-322.4388 815.3209,-320.6163 816.4623,-327.5226"/>
</g>
<!-- [root] aws_route_table_association.main&#45;public&#45;1&#45;a&#45;&gt;[root] aws_subnet.main&#45;public&#45;1 -->
<g id="edge11" class="edge">
<title>[root] aws_route_table_association.main&#45;public&#45;1&#45;a&#45;&gt;[root] aws_subnet.main&#45;public&#45;1</title>
<path fill="none" stroke="#000000" d="M483.9402,-359.9081C538.2485,-333.6652 638.8229,-285.0655 697.8716,-256.5318"/>
<polygon fill="#000000" stroke="#000000" points="699.4975,-259.6334 706.9786,-252.1311 696.4519,-253.3307 699.4975,-259.6334"/>
</g>
<!-- [root] aws_route_table_association.main&#45;public&#45;2&#45;a -->
<g id="node7" class="node">
<title>[root] aws_route_table_association.main&#45;public&#45;2&#45;a</title>
<polygon fill="none" stroke="#000000" points="859,-396 596,-396 596,-360 859,-360 859,-396"/>
<text text-anchor="middle" x="727.5" y="-374.3" font-family="Times,serif" font-size="14.00" fill="#000000">aws_route_table_association.main&#45;public&#45;2&#45;a</text>
</g>
<!-- [root] aws_route_table_association.main&#45;public&#45;2&#45;a&#45;&gt;[root] aws_route_table.main&#45;public -->
<g id="edge12" class="edge">
<title>[root] aws_route_table_association.main&#45;public&#45;2&#45;a&#45;&gt;[root] aws_route_table.main&#45;public</title>
<path fill="none" stroke="#000000" d="M774.4357,-359.8314C799.6437,-350.0734 830.8926,-337.977 857.3791,-327.7242"/>
<polygon fill="#000000" stroke="#000000" points="858.8397,-330.912 866.9019,-324.038 856.3127,-324.384 858.8397,-330.912"/>
</g>
<!-- [root] aws_subnet.main&#45;public&#45;2 -->
<g id="node14" class="node">
<title>[root] aws_subnet.main&#45;public&#45;2</title>
<polygon fill="none" stroke="#000000" points="808,-324 647,-324 647,-288 808,-288 808,-324"/>
<text text-anchor="middle" x="727.5" y="-302.3" font-family="Times,serif" font-size="14.00" fill="#000000">aws_subnet.main&#45;public&#45;2</text>
</g>
<!-- [root] aws_route_table_association.main&#45;public&#45;2&#45;a&#45;&gt;[root] aws_subnet.main&#45;public&#45;2 -->
<g id="edge13" class="edge">
<title>[root] aws_route_table_association.main&#45;public&#45;2&#45;a&#45;&gt;[root] aws_subnet.main&#45;public&#45;2</title>
<path fill="none" stroke="#000000" d="M727.5,-359.8314C727.5,-352.131 727.5,-342.9743 727.5,-334.4166"/>
<polygon fill="#000000" stroke="#000000" points="731.0001,-334.4132 727.5,-324.4133 724.0001,-334.4133 731.0001,-334.4132"/>
</g>
<!-- [root] aws_route_table_association.main&#45;public&#45;3&#45;a -->
<g id="node8" class="node">
<title>[root] aws_route_table_association.main&#45;public&#45;3&#45;a</title>
<polygon fill="none" stroke="#000000" points="1140,-396 877,-396 877,-360 1140,-360 1140,-396"/>
<text text-anchor="middle" x="1008.5" y="-374.3" font-family="Times,serif" font-size="14.00" fill="#000000">aws_route_table_association.main&#45;public&#45;3&#45;a</text>
</g>
<!-- [root] aws_route_table_association.main&#45;public&#45;3&#45;a&#45;&gt;[root] aws_route_table.main&#45;public -->
<g id="edge14" class="edge">
<title>[root] aws_route_table_association.main&#45;public&#45;3&#45;a&#45;&gt;[root] aws_route_table.main&#45;public</title>
<path fill="none" stroke="#000000" d="M984.5275,-359.8314C972.7139,-350.8779 958.3028,-339.9558 945.5565,-330.2955"/>
<polygon fill="#000000" stroke="#000000" points="947.5486,-327.4137 937.4648,-324.1628 943.3205,-332.9925 947.5486,-327.4137"/>
</g>
<!-- [root] aws_subnet.main&#45;public&#45;3 -->
<g id="node15" class="node">
<title>[root] aws_subnet.main&#45;public&#45;3</title>
<polygon fill="none" stroke="#000000" points="1180,-324 1019,-324 1019,-288 1180,-288 1180,-324"/>
<text text-anchor="middle" x="1099.5" y="-302.3" font-family="Times,serif" font-size="14.00" fill="#000000">aws_subnet.main&#45;public&#45;3</text>
</g>
<!-- [root] aws_route_table_association.main&#45;public&#45;3&#45;a&#45;&gt;[root] aws_subnet.main&#45;public&#45;3 -->
<g id="edge15" class="edge">
<title>[root] aws_route_table_association.main&#45;public&#45;3&#45;a&#45;&gt;[root] aws_subnet.main&#45;public&#45;3</title>
<path fill="none" stroke="#000000" d="M1031.4631,-359.8314C1042.6715,-350.9632 1056.3209,-340.1637 1068.4439,-330.5718"/>
<polygon fill="#000000" stroke="#000000" points="1070.8737,-333.1125 1076.5442,-324.1628 1066.5303,-327.6229 1070.8737,-333.1125"/>
</g>
<!-- [root] aws_security_group.allow&#45;ssh&#45;&gt;[root] aws_vpc.main -->
<g id="edge16" class="edge">
<title>[root] aws_security_group.allow&#45;ssh&#45;&gt;[root] aws_vpc.main</title>
<path fill="none" stroke="#000000" d="M489.0968,-217.2747C491.9283,-216.833 494.7347,-216.4068 497.5,-216 648.9736,-193.7175 828.5813,-175.7044 918.751,-167.2386"/>
<polygon fill="#000000" stroke="#000000" points="919.14,-170.7176 928.7711,-166.3026 918.4889,-163.7479 919.14,-170.7176"/>
</g>
<!-- [root] aws_subnet.main&#45;private&#45;1 -->
<g id="node10" class="node">
<title>[root] aws_subnet.main&#45;private&#45;1</title>
<polygon fill="none" stroke="#000000" points="1322.5,-396 1158.5,-396 1158.5,-360 1322.5,-360 1322.5,-396"/>
<text text-anchor="middle" x="1240.5" y="-374.3" font-family="Times,serif" font-size="14.00" fill="#000000">aws_subnet.main&#45;private&#45;1</text>
</g>
<!-- [root] aws_subnet.main&#45;private&#45;1&#45;&gt;[root] aws_vpc.main -->
<g id="edge17" class="edge">
<title>[root] aws_subnet.main&#45;private&#45;1&#45;&gt;[root] aws_vpc.main</title>
<path fill="none" stroke="#000000" d="M1232.3904,-359.9128C1223.3303,-340.8485 1207.4232,-310.5191 1188.5,-288 1156.4303,-249.8363 1144.9727,-242.0962 1102.5,-216 1081.0311,-202.809 1055.7687,-191.2926 1033.5227,-182.3219"/>
<polygon fill="#000000" stroke="#000000" points="1034.7797,-179.0553 1024.1932,-178.6356 1032.2074,-185.5655 1034.7797,-179.0553"/>
</g>
<!-- [root] aws_subnet.main&#45;private&#45;2 -->
<g id="node11" class="node">
<title>[root] aws_subnet.main&#45;private&#45;2</title>
<polygon fill="none" stroke="#000000" points="1504.5,-396 1340.5,-396 1340.5,-360 1504.5,-360 1504.5,-396"/>
<text text-anchor="middle" x="1422.5" y="-374.3" font-family="Times,serif" font-size="14.00" fill="#000000">aws_subnet.main&#45;private&#45;2</text>
</g>
<!-- [root] aws_subnet.main&#45;private&#45;2&#45;&gt;[root] aws_vpc.main -->
<g id="edge18" class="edge">
<title>[root] aws_subnet.main&#45;private&#45;2&#45;&gt;[root] aws_vpc.main</title>
<path fill="none" stroke="#000000" d="M1395.8101,-359.8903C1347.3023,-327.5817 1240.6972,-259.3361 1143.5,-216 1108.1904,-200.2569 1066.8607,-186.8548 1034.1511,-177.3402"/>
<polygon fill="#000000" stroke="#000000" points="1034.8701,-173.9054 1024.2927,-174.5139 1032.9409,-180.6343 1034.8701,-173.9054"/>
</g>
<!-- [root] aws_subnet.main&#45;private&#45;3 -->
<g id="node12" class="node">
<title>[root] aws_subnet.main&#45;private&#45;3</title>
<polygon fill="none" stroke="#000000" points="1686.5,-396 1522.5,-396 1522.5,-360 1686.5,-360 1686.5,-396"/>
<text text-anchor="middle" x="1604.5" y="-374.3" font-family="Times,serif" font-size="14.00" fill="#000000">aws_subnet.main&#45;private&#45;3</text>
</g>
<!-- [root] aws_subnet.main&#45;private&#45;3&#45;&gt;[root] aws_vpc.main -->
<g id="edge19" class="edge">
<title>[root] aws_subnet.main&#45;private&#45;3&#45;&gt;[root] aws_vpc.main</title>
<path fill="none" stroke="#000000" d="M1563.6208,-359.8737C1490.3199,-327.8367 1331.2131,-260.404 1192.5,-216 1139.5621,-199.0538 1077.9432,-184.1072 1034.0989,-174.2607"/>
<polygon fill="#000000" stroke="#000000" points="1034.7109,-170.8114 1024.1892,-172.0541 1033.1894,-177.644 1034.7109,-170.8114"/>
</g>
<!-- [root] aws_subnet.main&#45;public&#45;1&#45;&gt;[root] aws_vpc.main -->
<g id="edge20" class="edge">
<title>[root] aws_subnet.main&#45;public&#45;1&#45;&gt;[root] aws_vpc.main</title>
<path fill="none" stroke="#000000" d="M802.7439,-215.9243C838.3239,-204.8822 883.6366,-190.8197 919.0672,-179.824"/>
<polygon fill="#000000" stroke="#000000" points="920.2689,-183.1158 928.7821,-176.809 918.194,-176.4303 920.2689,-183.1158"/>
</g>
<!-- [root] aws_subnet.main&#45;public&#45;2&#45;&gt;[root] aws_vpc.main -->
<g id="edge21" class="edge">
<title>[root] aws_subnet.main&#45;public&#45;2&#45;&gt;[root] aws_vpc.main</title>
<path fill="none" stroke="#000000" d="M769.2637,-287.9835C789.4172,-278.4881 813.5008,-265.9271 833.5,-252 852.8578,-238.5196 853.1946,-229.5553 872.5,-216 889.3015,-204.2029 909.0167,-193.3157 926.7379,-184.4542"/>
<polygon fill="#000000" stroke="#000000" points="928.3604,-187.5568 935.7972,-180.0107 925.2777,-181.272 928.3604,-187.5568"/>
</g>
<!-- [root] aws_subnet.main&#45;public&#45;3&#45;&gt;[root] aws_vpc.main -->
<g id="edge22" class="edge">
<title>[root] aws_subnet.main&#45;public&#45;3&#45;&gt;[root] aws_vpc.main</title>
<path fill="none" stroke="#000000" d="M1100.049,-287.9201C1099.7294,-268.3011 1096.4457,-236.9769 1080.5,-216 1068.6577,-200.4213 1051.0323,-188.926 1033.6414,-180.6449"/>
<polygon fill="#000000" stroke="#000000" points="1034.6011,-177.2409 1024.0422,-176.3694 1031.753,-183.6353 1034.6011,-177.2409"/>
</g>
<!-- [root] aws_volume_attachment.ebs&#45;volume&#45;1&#45;attachment -->
<g id="node16" class="node">
<title>[root] aws_volume_attachment.ebs&#45;volume&#45;1&#45;attachment</title>
<polygon fill="none" stroke="#000000" points="296.5,-396 .5,-396 .5,-360 296.5,-360 296.5,-396"/>
<text text-anchor="middle" x="148.5" y="-374.3" font-family="Times,serif" font-size="14.00" fill="#000000">aws_volume_attachment.ebs&#45;volume&#45;1&#45;attachment</text>
</g>
<!-- [root] aws_volume_attachment.ebs&#45;volume&#45;1&#45;attachment&#45;&gt;[root] aws_ebs_volume.ebs&#45;volume&#45;1 -->
<g id="edge23" class="edge">
<title>[root] aws_volume_attachment.ebs&#45;volume&#45;1&#45;attachment&#45;&gt;[root] aws_ebs_volume.ebs&#45;volume&#45;1</title>
<path fill="none" stroke="#000000" d="M143.9889,-359.9555C134.5786,-322.3144 112.7967,-235.1867 101.5311,-190.1246"/>
<polygon fill="#000000" stroke="#000000" points="104.8572,-188.9976 99.0363,-180.1451 98.0662,-190.6954 104.8572,-188.9976"/>
</g>
<!-- [root] aws_volume_attachment.ebs&#45;volume&#45;1&#45;attachment&#45;&gt;[root] aws_instance.example -->
<g id="edge24" class="edge">
<title>[root] aws_volume_attachment.ebs&#45;volume&#45;1&#45;attachment&#45;&gt;[root] aws_instance.example</title>
<path fill="none" stroke="#000000" d="M211.2629,-359.9243C246.0337,-349.9103 289.4304,-337.412 325.6874,-326.97"/>
<polygon fill="#000000" stroke="#000000" points="327.0705,-330.214 335.7113,-324.0831 325.1332,-323.4874 327.0705,-330.214"/>
</g>
<!-- [root] aws_vpc.main&#45;&gt;[root] provider.aws -->
<g id="edge25" class="edge">
<title>[root] aws_vpc.main&#45;&gt;[root] provider.aws</title>
<path fill="none" stroke="#000000" d="M928.7336,-157.4688C797.9976,-145.067 434.0819,-110.5453 283.7634,-96.2859"/>
<polygon fill="#000000" stroke="#000000" points="284.0314,-92.7957 273.7455,-95.3355 283.3702,-99.7644 284.0314,-92.7957"/>
</g>
<!-- [root] var.AWS_REGION -->
<g id="node24" class="node">
<title>[root] var.AWS_REGION</title>
<ellipse fill="none" stroke="#000000" cx="217.5" cy="-18" rx="104.7816" ry="18"/>
<text text-anchor="middle" x="217.5" y="-14.3" font-family="Times,serif" font-size="14.00" fill="#000000">[root] var.AWS_REGION</text>
</g>
<!-- [root] provider.aws&#45;&gt;[root] var.AWS_REGION -->
<g id="edge41" class="edge">
<title>[root] provider.aws&#45;&gt;[root] var.AWS_REGION</title>
<path fill="none" stroke="#000000" d="M217.5,-71.8314C217.5,-64.131 217.5,-54.9743 217.5,-46.4166"/>
<polygon fill="#000000" stroke="#000000" points="221.0001,-46.4132 217.5,-36.4133 214.0001,-46.4133 221.0001,-46.4132"/>
</g>
<!-- [root] meta.count&#45;boundary (count boundary fixup) -->
<g id="node21" class="node">
<title>[root] meta.count&#45;boundary (count boundary fixup)</title>
<ellipse fill="none" stroke="#000000" cx="1240.5" cy="-450" rx="193.0657" ry="18"/>
<text text-anchor="middle" x="1240.5" y="-446.3" font-family="Times,serif" font-size="14.00" fill="#000000">[root] meta.count&#45;boundary (count boundary fixup)</text>
</g>
<!-- [root] meta.count&#45;boundary (count boundary fixup)&#45;&gt;[root] aws_route_table_association.main&#45;public&#45;1&#45;a -->
<g id="edge26" class="edge">
<title>[root] meta.count&#45;boundary (count boundary fixup)&#45;&gt;[root] aws_route_table_association.main&#45;public&#45;1&#45;a</title>
<path fill="none" stroke="#000000" d="M1101.6984,-437.4584C1080.5308,-435.5959 1058.9363,-433.7243 1038.5,-432 840.9242,-415.3294 788.6173,-416.8024 587.9853,-396.1299"/>
<polygon fill="#000000" stroke="#000000" points="588.3148,-392.6454 578.0073,-395.0962 587.5934,-399.6081 588.3148,-392.6454"/>
</g>
<!-- [root] meta.count&#45;boundary (count boundary fixup)&#45;&gt;[root] aws_route_table_association.main&#45;public&#45;2&#45;a -->
<g id="edge27" class="edge">
<title>[root] meta.count&#45;boundary (count boundary fixup)&#45;&gt;[root] aws_route_table_association.main&#45;public&#45;2&#45;a</title>
<path fill="none" stroke="#000000" d="M1133.5828,-434.9941C1055.9852,-424.1032 950.3124,-409.2719 866.2164,-397.469"/>
<polygon fill="#000000" stroke="#000000" points="866.4605,-393.969 856.0711,-396.0451 865.4875,-400.9011 866.4605,-393.969"/>
</g>
<!-- [root] meta.count&#45;boundary (count boundary fixup)&#45;&gt;[root] aws_route_table_association.main&#45;public&#45;3&#45;a -->
<g id="edge28" class="edge">
<title>[root] meta.count&#45;boundary (count boundary fixup)&#45;&gt;[root] aws_route_table_association.main&#45;public&#45;3&#45;a</title>
<path fill="none" stroke="#000000" d="M1184.9302,-432.7542C1152.4758,-422.6821 1111.2655,-409.8927 1076.8364,-399.2079"/>
<polygon fill="#000000" stroke="#000000" points="1077.4419,-395.7311 1066.8538,-396.1098 1075.3671,-402.4166 1077.4419,-395.7311"/>
</g>
<!-- [root] meta.count&#45;boundary (count boundary fixup)&#45;&gt;[root] aws_subnet.main&#45;private&#45;1 -->
<g id="edge29" class="edge">
<title>[root] meta.count&#45;boundary (count boundary fixup)&#45;&gt;[root] aws_subnet.main&#45;private&#45;1</title>
<path fill="none" stroke="#000000" d="M1240.5,-431.8314C1240.5,-424.131 1240.5,-414.9743 1240.5,-406.4166"/>
<polygon fill="#000000" stroke="#000000" points="1244.0001,-406.4132 1240.5,-396.4133 1237.0001,-406.4133 1244.0001,-406.4132"/>
</g>
<!-- [root] meta.count&#45;boundary (count boundary fixup)&#45;&gt;[root] aws_subnet.main&#45;private&#45;2 -->
<g id="edge30" class="edge">
<title>[root] meta.count&#45;boundary (count boundary fixup)&#45;&gt;[root] aws_subnet.main&#45;private&#45;2</title>
<path fill="none" stroke="#000000" d="M1285.0222,-432.3868C1309.8596,-422.5611 1341.0113,-410.2373 1367.3783,-399.8064"/>
<polygon fill="#000000" stroke="#000000" points="1368.8441,-402.9905 1376.8554,-396.0572 1366.269,-396.4813 1368.8441,-402.9905"/>
</g>
<!-- [root] meta.count&#45;boundary (count boundary fixup)&#45;&gt;[root] aws_subnet.main&#45;private&#45;3 -->
<g id="edge31" class="edge">
<title>[root] meta.count&#45;boundary (count boundary fixup)&#45;&gt;[root] aws_subnet.main&#45;private&#45;3</title>
<path fill="none" stroke="#000000" d="M1323.0972,-433.6621C1379.4103,-422.5232 1454.0381,-407.7617 1512.2908,-396.2392"/>
<polygon fill="#000000" stroke="#000000" points="1513.0989,-399.6472 1522.2296,-394.2733 1511.7405,-392.7803 1513.0989,-399.6472"/>
</g>
<!-- [root] meta.count&#45;boundary (count boundary fixup)&#45;&gt;[root] aws_volume_attachment.ebs&#45;volume&#45;1&#45;attachment -->
<g id="edge32" class="edge">
<title>[root] meta.count&#45;boundary (count boundary fixup)&#45;&gt;[root] aws_volume_attachment.ebs&#45;volume&#45;1&#45;attachment</title>
<path fill="none" stroke="#000000" d="M1105.0089,-437.1785C1082.7964,-435.2917 1060.0139,-433.4863 1038.5,-432 716.4417,-409.7511 632.3027,-422.3258 306.9968,-396.0917"/>
<polygon fill="#000000" stroke="#000000" points="307.0586,-392.5852 296.808,-395.2637 306.4916,-399.5622 307.0586,-392.5852"/>
</g>
<!-- [root] var.PATH_TO_PRIVATE_KEY -->
<g id="node22" class="node">
<title>[root] var.PATH_TO_PRIVATE_KEY</title>
<ellipse fill="none" stroke="#000000" cx="1853.5" cy="-378" rx="149.4735" ry="18"/>
<text text-anchor="middle" x="1853.5" y="-374.3" font-family="Times,serif" font-size="14.00" fill="#000000">[root] var.PATH_TO_PRIVATE_KEY</text>
</g>
<!-- [root] meta.count&#45;boundary (count boundary fixup)&#45;&gt;[root] var.PATH_TO_PRIVATE_KEY -->
<g id="edge33" class="edge">
<title>[root] meta.count&#45;boundary (count boundary fixup)&#45;&gt;[root] var.PATH_TO_PRIVATE_KEY</title>
<path fill="none" stroke="#000000" d="M1360.8777,-435.861C1469.6678,-423.0831 1628.8064,-404.3914 1736.5291,-391.7388"/>
<polygon fill="#000000" stroke="#000000" points="1736.941,-395.2146 1746.4645,-390.5719 1736.1244,-388.2624 1736.941,-395.2146"/>
</g>
<!-- [root] provider.aws (close) -->
<g id="node23" class="node">
<title>[root] provider.aws (close)</title>
<ellipse fill="none" stroke="#000000" cx="924.5" cy="-450" rx="105.0817" ry="18"/>
<text text-anchor="middle" x="924.5" y="-446.3" font-family="Times,serif" font-size="14.00" fill="#000000">[root] provider.aws (close)</text>
</g>
<!-- [root] provider.aws (close)&#45;&gt;[root] aws_route_table_association.main&#45;public&#45;1&#45;a -->
<g id="edge34" class="edge">
<title>[root] provider.aws (close)&#45;&gt;[root] aws_route_table_association.main&#45;public&#45;1&#45;a</title>
<path fill="none" stroke="#000000" d="M845.2999,-438.0703C772.1809,-427.0565 662.2345,-410.4956 576.2903,-397.55"/>
<polygon fill="#000000" stroke="#000000" points="576.6082,-394.0585 566.1984,-396.0299 575.5655,-400.9804 576.6082,-394.0585"/>
</g>
<!-- [root] provider.aws (close)&#45;&gt;[root] aws_route_table_association.main&#45;public&#45;2&#45;a -->
<g id="edge35" class="edge">
<title>[root] provider.aws (close)&#45;&gt;[root] aws_route_table_association.main&#45;public&#45;2&#45;a</title>
<path fill="none" stroke="#000000" d="M879.7977,-433.6621C852.14,-423.5537 816.3193,-410.4619 786.3667,-399.5147"/>
<polygon fill="#000000" stroke="#000000" points="787.4597,-396.1878 776.8658,-396.0423 785.0567,-402.7625 787.4597,-396.1878"/>
</g>
<!-- [root] provider.aws (close)&#45;&gt;[root] aws_route_table_association.main&#45;public&#45;3&#45;a -->
<g id="edge36" class="edge">
<title>[root] provider.aws (close)&#45;&gt;[root] aws_route_table_association.main&#45;public&#45;3&#45;a</title>
<path fill="none" stroke="#000000" d="M945.2641,-432.2022C955.585,-423.3557 968.2278,-412.5191 979.4888,-402.8668"/>
<polygon fill="#000000" stroke="#000000" points="982.0766,-405.2585 987.3914,-396.0931 977.521,-399.9437 982.0766,-405.2585"/>
</g>
<!-- [root] provider.aws (close)&#45;&gt;[root] aws_subnet.main&#45;private&#45;1 -->
<g id="edge37" class="edge">
<title>[root] provider.aws (close)&#45;&gt;[root] aws_subnet.main&#45;private&#45;1</title>
<path fill="none" stroke="#000000" d="M988.0672,-435.5163C1034.9679,-424.8301 1099.4034,-410.1486 1151.4336,-398.2936"/>
<polygon fill="#000000" stroke="#000000" points="1152.3583,-401.6727 1161.3309,-396.0385 1150.8032,-394.8476 1152.3583,-401.6727"/>
</g>
<!-- [root] provider.aws (close)&#45;&gt;[root] aws_subnet.main&#45;private&#45;2 -->
<g id="edge38" class="edge">
<title>[root] provider.aws (close)&#45;&gt;[root] aws_subnet.main&#45;private&#45;2</title>
<path fill="none" stroke="#000000" d="M1000.791,-437.5831C1013.3778,-435.6411 1026.2969,-433.7126 1038.5,-432 1165.2562,-414.2112 1200.2545,-416.6104 1330.2664,-396.1378"/>
<polygon fill="#000000" stroke="#000000" points="1330.8821,-399.584 1340.2085,-394.5572 1329.7829,-392.6708 1330.8821,-399.584"/>
</g>
<!-- [root] provider.aws (close)&#45;&gt;[root] aws_subnet.main&#45;private&#45;3 -->
<g id="edge39" class="edge">
<title>[root] provider.aws (close)&#45;&gt;[root] aws_subnet.main&#45;private&#45;3</title>
<path fill="none" stroke="#000000" d="M999.5,-437.2737C1012.48,-435.3245 1025.8623,-433.4742 1038.5,-432 1245.5049,-407.8533 1301.9684,-424.0673 1512.11,-396.0961"/>
<polygon fill="#000000" stroke="#000000" points="1512.7918,-399.5359 1522.2341,-394.7304 1511.856,-392.5988 1512.7918,-399.5359"/>
</g>
<!-- [root] provider.aws (close)&#45;&gt;[root] aws_volume_attachment.ebs&#45;volume&#45;1&#45;attachment -->
<g id="edge40" class="edge">
<title>[root] provider.aws (close)&#45;&gt;[root] aws_volume_attachment.ebs&#45;volume&#45;1&#45;attachment</title>
<path fill="none" stroke="#000000" d="M828.7227,-442.4553C709.1545,-432.8533 498.0893,-415.3024 307.0561,-396.1435"/>
<polygon fill="#000000" stroke="#000000" points="307.1219,-392.6325 296.8217,-395.1136 306.421,-399.5973 307.1219,-392.6325"/>
</g>
<!-- [root] root -->
<g id="node25" class="node">
<title>[root] root</title>
<ellipse fill="none" stroke="#000000" cx="1082.5" cy="-522" rx="47.3916" ry="18"/>
<text text-anchor="middle" x="1082.5" y="-518.3" font-family="Times,serif" font-size="14.00" fill="#000000">[root] root</text>
</g>
<!-- [root] root&#45;&gt;[root] meta.count&#45;boundary (count boundary fixup) -->
<g id="edge42" class="edge">
<title>[root] root&#45;&gt;[root] meta.count&#45;boundary (count boundary fixup)</title>
<path fill="none" stroke="#000000" d="M1112.964,-508.1177C1135.4861,-497.8544 1166.6011,-483.6754 1192.4592,-471.892"/>
<polygon fill="#000000" stroke="#000000" points="1194.0741,-475.0025 1201.7224,-467.6708 1191.1713,-468.6327 1194.0741,-475.0025"/>
</g>
<!-- [root] root&#45;&gt;[root] provider.aws (close) -->
<g id="edge43" class="edge">
<title>[root] root&#45;&gt;[root] provider.aws (close)</title>
<path fill="none" stroke="#000000" d="M1052.036,-508.1177C1029.0347,-497.6361 997.0709,-483.0703 970.8975,-471.1432"/>
<polygon fill="#000000" stroke="#000000" points="972.0951,-467.8427 961.544,-466.8808 969.1923,-474.2125 972.0951,-467.8427"/>
</g>
</g>
</svg>
