<?xml version="1.0" encoding="UTF-8" standalone="no"?>
<!DOCTYPE svg PUBLIC "-//W3C//DTD SVG 1.1//EN"
 "http://www.w3.org/Graphics/SVG/1.1/DTD/svg11.dtd">
<!-- Generated by graphviz version 2.40.1 (20161225.0304)
 -->
<!-- Title: %3 Pages: 1 -->
<svg width="692pt" height="474pt"
 viewBox="0.00 0.00 691.61 473.63" xmlns="http://www.w3.org/2000/svg" xmlns:xlink="http://www.w3.org/1999/xlink">
<g id="graph0" class="graph" transform="scale(1 1) rotate(0) translate(4 469.6335)">
<title>%3</title>
<polygon fill="#ffffff" stroke="transparent" points="-4,4 -4,-469.6335 687.6134,-469.6335 687.6134,4 -4,4"/>
<!-- [root] aws_ebs_volume.ebs&#45;volume&#45;1 -->
<g id="node1" class="node">
<title>[root] aws_ebs_volume.ebs&#45;volume&#45;1</title>
<polygon fill="none" stroke="#000000" points="571.8641,-306.1728 382.8641,-306.1728 382.8641,-270.1728 571.8641,-270.1728 571.8641,-306.1728"/>
<text text-anchor="middle" x="477.3641" y="-284.4728" font-family="Times,serif" font-size="14.00" fill="#000000">aws_ebs_volume.ebs&#45;volume&#45;1</text>
</g>
<!-- [root] provider.aws -->
<g id="node18" class="node">
<title>[root] provider.aws</title>
<polygon fill="none" stroke="#000000" points="419.1149,-263.8522 339.1815,-245.8522 419.1149,-227.8522 499.0483,-245.8522 419.1149,-263.8522"/>
<text text-anchor="middle" x="419.1149" y="-242.1522" font-family="Times,serif" font-size="14.00" fill="#000000">provider.aws</text>
</g>
<!-- [root] aws_ebs_volume.ebs&#45;volume&#45;1&#45;&gt;[root] provider.aws -->
<g id="edge1" class="edge">
<title>[root] aws_ebs_volume.ebs&#45;volume&#45;1&#45;&gt;[root] provider.aws</title>
<path fill="none" stroke="#000000" d="M452.3232,-269.9794C450.4191,-268.5961 448.4913,-267.1954 446.5732,-265.8018"/>
<polygon fill="#000000" stroke="#000000" points="448.4766,-262.8585 438.3291,-259.8122 444.3621,-268.5216 448.4766,-262.8585"/>
</g>
<!-- [root] aws_instance.example -->
<g id="node2" class="node">
<title>[root] aws_instance.example</title>
<polygon fill="none" stroke="#000000" points="394.6946,-394.0279 255.6946,-394.0279 255.6946,-358.0279 394.6946,-358.0279 394.6946,-394.0279"/>
<text text-anchor="middle" x="325.1946" y="-372.3279" font-family="Times,serif" font-size="14.00" fill="#000000">aws_instance.example</text>
</g>
<!-- [root] aws_key_pair.mykeypair -->
<g id="node4" class="node">
<title>[root] aws_key_pair.mykeypair</title>
<polygon fill="none" stroke="#000000" points="487.6165,-366.2726 333.6165,-366.2726 333.6165,-330.2726 487.6165,-330.2726 487.6165,-366.2726"/>
<text text-anchor="middle" x="410.6165" y="-344.5726" font-family="Times,serif" font-size="14.00" fill="#000000">aws_key_pair.mykeypair</text>
</g>
<!-- [root] aws_instance.example&#45;&gt;[root] aws_key_pair.mykeypair -->
<g id="edge2" class="edge">
<title>[root] aws_instance.example&#45;&gt;[root] aws_key_pair.mykeypair</title>
<path fill="none" stroke="#000000" d="M380.7401,-357.9801C380.8038,-357.9594 380.8675,-357.9387 380.9311,-357.918"/>
<polygon fill="#000000" stroke="#000000" points="372.6939,-364.2784 381.1219,-357.856 370.5284,-357.6208 372.6939,-364.2784"/>
</g>
<!-- [root] aws_security_group.allow&#45;ssh -->
<g id="node9" class="node">
<title>[root] aws_security_group.allow&#45;ssh</title>
<polygon fill="none" stroke="#000000" points="408.1686,-322.4223 227.1686,-322.4223 227.1686,-286.4223 408.1686,-286.4223 408.1686,-322.4223"/>
<text text-anchor="middle" x="317.6686" y="-300.7223" font-family="Times,serif" font-size="14.00" fill="#000000">aws_security_group.allow&#45;ssh</text>
</g>
<!-- [root] aws_instance.example&#45;&gt;[root] aws_security_group.allow&#45;ssh -->
<g id="edge3" class="edge">
<title>[root] aws_instance.example&#45;&gt;[root] aws_security_group.allow&#45;ssh</title>
<path fill="none" stroke="#000000" d="M323.2955,-357.9588C322.4906,-350.3006 321.5334,-341.1941 320.6389,-332.6833"/>
<polygon fill="#000000" stroke="#000000" points="324.1195,-332.314 319.5933,-322.7347 317.1578,-333.0458 324.1195,-332.314"/>
</g>
<!-- [root] aws_subnet.main&#45;public&#45;1 -->
<g id="node13" class="node">
<title>[root] aws_subnet.main&#45;public&#45;1</title>
<polygon fill="none" stroke="#000000" points="286.7617,-72.1983 125.7617,-72.1983 125.7617,-36.1983 286.7617,-36.1983 286.7617,-72.1983"/>
<text text-anchor="middle" x="206.2617" y="-50.4983" font-family="Times,serif" font-size="14.00" fill="#000000">aws_subnet.main&#45;public&#45;1</text>
</g>
<!-- [root] aws_instance.example&#45;&gt;[root] aws_subnet.main&#45;public&#45;1 -->
<g id="edge4" class="edge">
<title>[root] aws_instance.example&#45;&gt;[root] aws_subnet.main&#45;public&#45;1</title>
<path fill="none" stroke="#000000" d="M318.4595,-357.8028C298.589,-304.0338 240.1215,-145.8222 216.4175,-81.6799"/>
<polygon fill="#000000" stroke="#000000" points="219.6724,-80.3902 212.9229,-72.2235 213.1064,-82.8167 219.6724,-80.3902"/>
</g>
<!-- [root] var.AMIS -->
<g id="node19" class="node">
<title>[root] var.AMIS</title>
<ellipse fill="none" stroke="#000000" cx="332.7207" cy="-447.6335" rx="69.5877" ry="18"/>
<text text-anchor="middle" x="332.7207" y="-443.9335" font-family="Times,serif" font-size="14.00" fill="#000000">[root] var.AMIS</text>
</g>
<!-- [root] aws_instance.example&#45;&gt;[root] var.AMIS -->
<g id="edge5" class="edge">
<title>[root] aws_instance.example&#45;&gt;[root] var.AMIS</title>
<path fill="none" stroke="#000000" d="M327.0938,-394.097C327.8987,-401.7552 328.8558,-410.8617 329.7503,-419.3725"/>
<polygon fill="#000000" stroke="#000000" points="326.2698,-419.7417 330.796,-429.3211 333.2314,-419.01 326.2698,-419.7417"/>
</g>
<!-- [root] aws_internet_gateway.main&#45;gw -->
<g id="node3" class="node">
<title>[root] aws_internet_gateway.main&#45;gw</title>
<polygon fill="none" stroke="#000000" points="397.6165,-179.2112 207.6165,-179.2112 207.6165,-143.2112 397.6165,-143.2112 397.6165,-179.2112"/>
<text text-anchor="middle" x="302.6165" y="-157.5112" font-family="Times,serif" font-size="14.00" fill="#000000">aws_internet_gateway.main&#45;gw</text>
</g>
<!-- [root] aws_vpc.main -->
<g id="node17" class="node">
<title>[root] aws_vpc.main</title>
<polygon fill="none" stroke="#000000" points="291.8673,-221.5317 196.8673,-221.5317 196.8673,-185.5317 291.8673,-185.5317 291.8673,-221.5317"/>
<text text-anchor="middle" x="244.3673" y="-199.8317" font-family="Times,serif" font-size="14.00" fill="#000000">aws_vpc.main</text>
</g>
<!-- [root] aws_internet_gateway.main&#45;gw&#45;&gt;[root] aws_vpc.main -->
<g id="edge6" class="edge">
<title>[root] aws_internet_gateway.main&#45;gw&#45;&gt;[root] aws_vpc.main</title>
<path fill="none" stroke="#000000" d="M277.5755,-179.4045C277.4907,-179.4661 277.4059,-179.5277 277.321,-179.5894"/>
<polygon fill="#000000" stroke="#000000" points="275.42,-176.6443 269.3871,-185.3537 279.5345,-182.3074 275.42,-176.6443"/>
</g>
<!-- [root] aws_key_pair.mykeypair&#45;&gt;[root] provider.aws -->
<g id="edge7" class="edge">
<title>[root] aws_key_pair.mykeypair&#45;&gt;[root] provider.aws</title>
<path fill="none" stroke="#000000" d="M412.1358,-329.9619C413.4308,-314.355 415.3124,-291.6784 416.7957,-273.8028"/>
<polygon fill="#000000" stroke="#000000" points="420.2982,-273.9166 417.6372,-263.6614 413.3222,-273.3377 420.2982,-273.9166"/>
</g>
<!-- [root] var.PATH_TO_PUBLIC_KEY -->
<g id="node20" class="node">
<title>[root] var.PATH_TO_PUBLIC_KEY</title>
<ellipse fill="none" stroke="#000000" cx="446.6165" cy="-410.6265" rx="143.7746" ry="18"/>
<text text-anchor="middle" x="446.6165" y="-406.9265" font-family="Times,serif" font-size="14.00" fill="#000000">[root] var.PATH_TO_PUBLIC_KEY</text>
</g>
<!-- [root] aws_key_pair.mykeypair&#45;&gt;[root] var.PATH_TO_PUBLIC_KEY -->
<g id="edge8" class="edge">
<title>[root] aws_key_pair.mykeypair&#45;&gt;[root] var.PATH_TO_PUBLIC_KEY</title>
<path fill="none" stroke="#000000" d="M421.0292,-366.308C424.1363,-371.6896 427.6126,-377.7107 430.9769,-383.538"/>
<polygon fill="#000000" stroke="#000000" points="428.0713,-385.5054 436.1025,-392.4157 434.1335,-382.0054 428.0713,-385.5054"/>
</g>
<!-- [root] aws_route_table.main&#45;public -->
<g id="node5" class="node">
<title>[root] aws_route_table.main&#45;public</title>
<polygon fill="none" stroke="#000000" points="448.3657,-136.8906 273.3657,-136.8906 273.3657,-100.8906 448.3657,-100.8906 448.3657,-136.8906"/>
<text text-anchor="middle" x="360.8657" y="-115.1906" font-family="Times,serif" font-size="14.00" fill="#000000">aws_route_table.main&#45;public</text>
</g>
<!-- [root] aws_route_table.main&#45;public&#45;&gt;[root] aws_internet_gateway.main&#45;gw -->
<g id="edge9" class="edge">
<title>[root] aws_route_table.main&#45;public&#45;&gt;[root] aws_internet_gateway.main&#45;gw</title>
<path fill="none" stroke="#000000" d="M335.8247,-137.0839C335.7399,-137.1455 335.6551,-137.2072 335.5702,-137.2689"/>
<polygon fill="#000000" stroke="#000000" points="333.6692,-134.3237 327.6363,-143.0332 337.7837,-139.9869 333.6692,-134.3237"/>
</g>
<!-- [root] aws_route_table_association.main&#45;public&#45;1&#45;a -->
<g id="node6" class="node">
<title>[root] aws_route_table_association.main&#45;public&#45;1&#45;a</title>
<polygon fill="none" stroke="#000000" points="506.1165,-54.5035 243.1165,-54.5035 243.1165,-18.5035 506.1165,-18.5035 506.1165,-54.5035"/>
<text text-anchor="middle" x="374.6165" y="-32.8035" font-family="Times,serif" font-size="14.00" fill="#000000">aws_route_table_association.main&#45;public&#45;1&#45;a</text>
</g>
<!-- [root] aws_route_table_association.main&#45;public&#45;1&#45;a&#45;&gt;[root] aws_route_table.main&#45;public -->
<g id="edge10" class="edge">
<title>[root] aws_route_table_association.main&#45;public&#45;1&#45;a&#45;&gt;[root] aws_route_table.main&#45;public</title>
<path fill="none" stroke="#000000" d="M371.5647,-54.7879C369.8023,-65.3476 367.5483,-78.8522 365.5641,-90.7406"/>
<polygon fill="#000000" stroke="#000000" points="362.103,-90.2176 363.9089,-100.6574 369.0075,-91.37 362.103,-90.2176"/>
</g>
<!-- [root] aws_route_table_association.main&#45;public&#45;1&#45;a&#45;&gt;[root] aws_subnet.main&#45;public&#45;1 -->
<g id="edge11" class="edge">
<title>[root] aws_route_table_association.main&#45;public&#45;1&#45;a&#45;&gt;[root] aws_subnet.main&#45;public&#45;1</title>
<path fill="none" stroke="#000000" d="M242.7922,-50.3588C242.709,-50.3675 242.6258,-50.3763 242.5428,-50.385"/>
<polygon fill="#000000" stroke="#000000" points="251.8722,-45.8814 242.2941,-50.4111 252.6064,-52.8431 251.8722,-45.8814"/>
</g>
<!-- [root] aws_route_table_association.main&#45;public&#45;2&#45;a -->
<g id="node7" class="node">
<title>[root] aws_route_table_association.main&#45;public&#45;2&#45;a</title>
<polygon fill="none" stroke="#000000" points="550.6149,-94.5701 287.6149,-94.5701 287.6149,-58.5701 550.6149,-58.5701 550.6149,-94.5701"/>
<text text-anchor="middle" x="419.1149" y="-72.8701" font-family="Times,serif" font-size="14.00" fill="#000000">aws_route_table_association.main&#45;public&#45;2&#45;a</text>
</g>
<!-- [root] aws_route_table_association.main&#45;public&#45;2&#45;a&#45;&gt;[root] aws_route_table.main&#45;public -->
<g id="edge12" class="edge">
<title>[root] aws_route_table_association.main&#45;public&#45;2&#45;a&#45;&gt;[root] aws_route_table.main&#45;public</title>
<path fill="none" stroke="#000000" d="M394.074,-94.7634C393.9892,-94.825 393.9043,-94.8867 393.8194,-94.9483"/>
<polygon fill="#000000" stroke="#000000" points="391.9184,-92.0032 385.8855,-100.7127 396.033,-97.6663 391.9184,-92.0032"/>
</g>
<!-- [root] aws_subnet.main&#45;public&#45;2 -->
<g id="node14" class="node">
<title>[root] aws_subnet.main&#45;public&#45;2</title>
<polygon fill="none" stroke="#000000" points="338.618,-42.259 177.618,-42.259 177.618,-6.259 338.618,-6.259 338.618,-42.259"/>
<text text-anchor="middle" x="258.118" y="-20.559" font-family="Times,serif" font-size="14.00" fill="#000000">aws_subnet.main&#45;public&#45;2</text>
</g>
<!-- [root] aws_route_table_association.main&#45;public&#45;2&#45;a&#45;&gt;[root] aws_subnet.main&#45;public&#45;2 -->
<g id="edge13" class="edge">
<title>[root] aws_route_table_association.main&#45;public&#45;2&#45;a&#45;&gt;[root] aws_subnet.main&#45;public&#45;2</title>
<path fill="none" stroke="#000000" d="M363.7089,-58.5676C350.6806,-54.3344 336.6779,-49.7847 323.2656,-45.4268"/>
<polygon fill="#000000" stroke="#000000" points="324.2183,-42.0562 313.6262,-42.2947 322.0551,-48.7136 324.2183,-42.0562"/>
</g>
<!-- [root] aws_route_table_association.main&#45;public&#45;3&#45;a -->
<g id="node8" class="node">
<title>[root] aws_route_table_association.main&#45;public&#45;3&#45;a</title>
<polygon fill="none" stroke="#000000" points="574.9697,-149.2719 311.9697,-149.2719 311.9697,-113.2719 574.9697,-113.2719 574.9697,-149.2719"/>
<text text-anchor="middle" x="443.4697" y="-127.5719" font-family="Times,serif" font-size="14.00" fill="#000000">aws_route_table_association.main&#45;public&#45;3&#45;a</text>
</g>
<!-- [root] aws_route_table_association.main&#45;public&#45;3&#45;a&#45;&gt;[root] aws_route_table.main&#45;public -->
<g id="edge14" class="edge">
<title>[root] aws_route_table_association.main&#45;public&#45;3&#45;a&#45;&gt;[root] aws_route_table.main&#45;public</title>
<path fill="none" stroke="#000000" d="M360.9256,-118.8996C360.9156,-118.8981 360.9069,-118.8968 360.8995,-118.8957"/>
<polygon fill="#000000" stroke="#000000" points="371.3053,-116.9584 360.8807,-118.8929 370.2364,-123.8815 371.3053,-116.9584"/>
</g>
<!-- [root] aws_subnet.main&#45;public&#45;3 -->
<g id="node15" class="node">
<title>[root] aws_subnet.main&#45;public&#45;3</title>
<polygon fill="none" stroke="#000000" points="398.1686,-36 237.1686,-36 237.1686,0 398.1686,0 398.1686,-36"/>
<text text-anchor="middle" x="317.6686" y="-14.3" font-family="Times,serif" font-size="14.00" fill="#000000">aws_subnet.main&#45;public&#45;3</text>
</g>
<!-- [root] aws_route_table_association.main&#45;public&#45;3&#45;a&#45;&gt;[root] aws_subnet.main&#45;public&#45;3 -->
<g id="edge15" class="edge">
<title>[root] aws_route_table_association.main&#45;public&#45;3&#45;a&#45;&gt;[root] aws_subnet.main&#45;public&#45;3</title>
<path fill="none" stroke="#000000" d="M423.2576,-113.0728C402.166,-94.0818 368.9497,-64.1737 345.4108,-42.9792"/>
<polygon fill="#000000" stroke="#000000" points="347.604,-40.2442 337.8305,-36.1539 342.9201,-45.4463 347.604,-40.2442"/>
</g>
<!-- [root] aws_security_group.allow&#45;ssh&#45;&gt;[root] aws_vpc.main -->
<g id="edge16" class="edge">
<title>[root] aws_security_group.allow&#45;ssh&#45;&gt;[root] aws_vpc.main</title>
<path fill="none" stroke="#000000" d="M304.5638,-286.3851C293.1685,-270.7009 276.5072,-247.7685 263.6006,-230.0041"/>
<polygon fill="#000000" stroke="#000000" points="266.3152,-227.7858 257.6057,-221.7529 260.6521,-231.9004 266.3152,-227.7858"/>
</g>
<!-- [root] aws_subnet.main&#45;private&#45;1 -->
<g id="node10" class="node">
<title>[root] aws_subnet.main&#45;private&#45;1</title>
<polygon fill="none" stroke="#000000" points="288.2617,-286.224 124.2617,-286.224 124.2617,-250.224 288.2617,-250.224 288.2617,-286.224"/>
<text text-anchor="middle" x="206.2617" y="-264.524" font-family="Times,serif" font-size="14.00" fill="#000000">aws_subnet.main&#45;private&#45;1</text>
</g>
<!-- [root] aws_subnet.main&#45;private&#45;1&#45;&gt;[root] aws_vpc.main -->
<g id="edge17" class="edge">
<title>[root] aws_subnet.main&#45;private&#45;1&#45;&gt;[root] aws_vpc.main</title>
<path fill="none" stroke="#000000" d="M216.8762,-250.2036C220.4492,-244.1376 224.5184,-237.2293 228.4105,-230.6217"/>
<polygon fill="#000000" stroke="#000000" points="231.4853,-232.2977 233.5449,-221.905 225.4538,-228.745 231.4853,-232.2977"/>
</g>
<!-- [root] aws_subnet.main&#45;private&#45;2 -->
<g id="node11" class="node">
<title>[root] aws_subnet.main&#45;private&#45;2</title>
<polygon fill="none" stroke="#000000" points="240.6165,-179.2112 76.6165,-179.2112 76.6165,-143.2112 240.6165,-143.2112 240.6165,-179.2112"/>
<text text-anchor="middle" x="158.6165" y="-157.5112" font-family="Times,serif" font-size="14.00" fill="#000000">aws_subnet.main&#45;private&#45;2</text>
</g>
<!-- [root] aws_subnet.main&#45;private&#45;2&#45;&gt;[root] aws_vpc.main -->
<g id="edge18" class="edge">
<title>[root] aws_subnet.main&#45;private&#45;2&#45;&gt;[root] aws_vpc.main</title>
<path fill="none" stroke="#000000" d="M195.4802,-179.4045C196.5015,-179.9085 197.5275,-180.4149 198.5558,-180.9224"/>
<polygon fill="#000000" stroke="#000000" points="197.2905,-184.2009 207.8069,-185.4881 200.3885,-177.9238 197.2905,-184.2009"/>
</g>
<!-- [root] aws_subnet.main&#45;private&#45;3 -->
<g id="node12" class="node">
<title>[root] aws_subnet.main&#45;private&#45;3</title>
<polygon fill="none" stroke="#000000" points="253.0659,-120.6411 89.0659,-120.6411 89.0659,-84.6411 253.0659,-84.6411 253.0659,-120.6411"/>
<text text-anchor="middle" x="171.0659" y="-98.9411" font-family="Times,serif" font-size="14.00" fill="#000000">aws_subnet.main&#45;private&#45;3</text>
</g>
<!-- [root] aws_subnet.main&#45;private&#45;3&#45;&gt;[root] aws_vpc.main -->
<g id="edge19" class="edge">
<title>[root] aws_subnet.main&#45;private&#45;3&#45;&gt;[root] aws_vpc.main</title>
<path fill="none" stroke="#000000" d="M184.1707,-120.6783C195.566,-136.3625 212.2273,-159.2949 225.1339,-177.0593"/>
<polygon fill="#000000" stroke="#000000" points="222.4193,-179.2775 231.1288,-185.3105 228.0824,-175.163 222.4193,-179.2775"/>
</g>
<!-- [root] aws_subnet.main&#45;public&#45;1&#45;&gt;[root] aws_vpc.main -->
<g id="edge20" class="edge">
<title>[root] aws_subnet.main&#45;public&#45;1&#45;&gt;[root] aws_vpc.main</title>
<path fill="none" stroke="#000000" d="M210.8581,-72.2114C217.4097,-97.8867 229.4938,-145.2435 237.2197,-175.521"/>
<polygon fill="#000000" stroke="#000000" points="233.8906,-176.6306 239.7545,-185.4547 240.6733,-174.8998 233.8906,-176.6306"/>
</g>
<!-- [root] aws_subnet.main&#45;public&#45;2&#45;&gt;[root] aws_vpc.main -->
<g id="edge21" class="edge">
<title>[root] aws_subnet.main&#45;public&#45;2&#45;&gt;[root] aws_vpc.main</title>
<path fill="none" stroke="#000000" d="M256.7239,-42.4352C254.3251,-73.7084 249.4004,-137.9135 246.5456,-175.1321"/>
<polygon fill="#000000" stroke="#000000" points="243.0402,-175.069 245.7651,-185.3074 250.0197,-175.6044 243.0402,-175.069"/>
</g>
<!-- [root] aws_subnet.main&#45;public&#45;3&#45;&gt;[root] aws_vpc.main -->
<g id="edge22" class="edge">
<title>[root] aws_subnet.main&#45;public&#45;3&#45;&gt;[root] aws_vpc.main</title>
<path fill="none" stroke="#000000" d="M310.5067,-36.1274C297.6427,-68.6871 270.5507,-137.2593 255.3344,-175.773"/>
<polygon fill="#000000" stroke="#000000" points="251.9776,-174.7442 251.5582,-185.3307 258.4879,-177.3164 251.9776,-174.7442"/>
</g>
<!-- [root] aws_volume_attachment.ebs&#45;volume&#45;1&#45;attachment -->
<g id="node16" class="node">
<title>[root] aws_volume_attachment.ebs&#45;volume&#45;1&#45;attachment</title>
<polygon fill="none" stroke="#000000" points="683.6134,-348.4933 387.6134,-348.4933 387.6134,-312.4933 683.6134,-312.4933 683.6134,-348.4933"/>
<text text-anchor="middle" x="535.6134" y="-326.7933" font-family="Times,serif" font-size="14.00" fill="#000000">aws_volume_attachment.ebs&#45;volume&#45;1&#45;attachment</text>
</g>
<!-- [root] aws_volume_attachment.ebs&#45;volume&#45;1&#45;attachment&#45;&gt;[root] aws_ebs_volume.ebs&#45;volume&#45;1 -->
<g id="edge23" class="edge">
<title>[root] aws_volume_attachment.ebs&#45;volume&#45;1&#45;attachment&#45;&gt;[root] aws_ebs_volume.ebs&#45;volume&#45;1</title>
<path fill="none" stroke="#000000" d="M510.5724,-312.3C510.4876,-312.2384 510.4028,-312.1767 510.3179,-312.1151"/>
<polygon fill="#000000" stroke="#000000" points="512.5314,-309.3971 502.384,-306.3507 508.4169,-315.0602 512.5314,-309.3971"/>
</g>
<!-- [root] aws_volume_attachment.ebs&#45;volume&#45;1&#45;attachment&#45;&gt;[root] aws_instance.example -->
<g id="edge24" class="edge">
<title>[root] aws_volume_attachment.ebs&#45;volume&#45;1&#45;attachment&#45;&gt;[root] aws_instance.example</title>
<path fill="none" stroke="#000000" d="M452.1481,-348.5552C436.6177,-351.916 420.4262,-355.4198 405.0086,-358.7561"/>
<polygon fill="#000000" stroke="#000000" points="404.037,-355.3853 395.0036,-360.9212 405.5176,-362.2269 404.037,-355.3853"/>
</g>
<!-- [root] aws_vpc.main&#45;&gt;[root] provider.aws -->
<g id="edge25" class="edge">
<title>[root] aws_vpc.main&#45;&gt;[root] provider.aws</title>
<path fill="none" stroke="#000000" d="M292.1178,-215.096C316.5425,-221.0111 346.208,-228.1956 370.7234,-234.1327"/>
<polygon fill="#000000" stroke="#000000" points="369.9931,-237.557 380.5359,-236.5091 371.6407,-230.7536 369.9931,-237.557"/>
</g>
<!-- [root] var.AWS_REGION -->
<g id="node24" class="node">
<title>[root] var.AWS_REGION</title>
<ellipse fill="none" stroke="#000000" cx="513.8964" cy="-206.1201" rx="104.7816" ry="18"/>
<text text-anchor="middle" x="513.8964" y="-202.4201" font-family="Times,serif" font-size="14.00" fill="#000000">[root] var.AWS_REGION</text>
</g>
<!-- [root] provider.aws&#45;&gt;[root] var.AWS_REGION -->
<g id="edge41" class="edge">
<title>[root] provider.aws&#45;&gt;[root] var.AWS_REGION</title>
<path fill="none" stroke="#000000" d="M447.2959,-234.0388C452.8107,-231.7271 458.7433,-229.2401 464.7138,-226.7373"/>
<polygon fill="#000000" stroke="#000000" points="466.2035,-229.908 474.0728,-222.814 463.4972,-223.4523 466.2035,-229.908"/>
</g>
<!-- [root] meta.count&#45;boundary (count boundary fixup) -->
<g id="node21" class="node">
<title>[root] meta.count&#45;boundary (count boundary fixup)</title>
<ellipse fill="none" stroke="#000000" cx="194.6165" cy="-348.2726" rx="193.0657" ry="18"/>
<text text-anchor="middle" x="194.6165" y="-344.5726" font-family="Times,serif" font-size="14.00" fill="#000000">[root] meta.count&#45;boundary (count boundary fixup)</text>
</g>
<!-- [root] meta.count&#45;boundary (count boundary fixup)&#45;&gt;[root] aws_route_table_association.main&#45;public&#45;1&#45;a -->
<g id="edge26" class="edge">
<title>[root] meta.count&#45;boundary (count boundary fixup)&#45;&gt;[root] aws_route_table_association.main&#45;public&#45;1&#45;a</title>
<path fill="none" stroke="#000000" d="M205.0721,-330.163C235.3323,-277.7508 323.1158,-125.7054 359.0265,-63.5061"/>
<polygon fill="#000000" stroke="#000000" points="362.1631,-65.0734 364.132,-54.6631 356.1009,-61.5733 362.1631,-65.0734"/>
</g>
<!-- [root] meta.count&#45;boundary (count boundary fixup)&#45;&gt;[root] aws_route_table_association.main&#45;public&#45;2&#45;a -->
<g id="edge27" class="edge">
<title>[root] meta.count&#45;boundary (count boundary fixup)&#45;&gt;[root] aws_route_table_association.main&#45;public&#45;2&#45;a</title>
<path fill="none" stroke="#000000" d="M209.695,-330.0236C248.5956,-282.9436 352.4478,-157.2549 397.6251,-102.5785"/>
<polygon fill="#000000" stroke="#000000" points="400.4305,-104.6781 404.102,-94.7397 395.0342,-100.2193 400.4305,-104.6781"/>
</g>
<!-- [root] meta.count&#45;boundary (count boundary fixup)&#45;&gt;[root] aws_route_table_association.main&#45;public&#45;3&#45;a -->
<g id="edge28" class="edge">
<title>[root] meta.count&#45;boundary (count boundary fixup)&#45;&gt;[root] aws_route_table_association.main&#45;public&#45;3&#45;a</title>
<path fill="none" stroke="#000000" d="M215.4055,-330.1445C259.8697,-291.3717 364.2705,-200.3338 414.9156,-156.1712"/>
<polygon fill="#000000" stroke="#000000" points="417.3282,-158.7112 422.5648,-149.501 412.7276,-153.4353 417.3282,-158.7112"/>
</g>
<!-- [root] meta.count&#45;boundary (count boundary fixup)&#45;&gt;[root] aws_subnet.main&#45;private&#45;1 -->
<g id="edge29" class="edge">
<title>[root] meta.count&#45;boundary (count boundary fixup)&#45;&gt;[root] aws_subnet.main&#45;private&#45;1</title>
<path fill="none" stroke="#000000" d="M197.259,-330.1084C198.7032,-320.1807 200.524,-307.6646 202.1496,-296.4904"/>
<polygon fill="#000000" stroke="#000000" points="205.6535,-296.7161 203.6297,-286.3164 198.7264,-295.7083 205.6535,-296.7161"/>
</g>
<!-- [root] meta.count&#45;boundary (count boundary fixup)&#45;&gt;[root] aws_subnet.main&#45;private&#45;2 -->
<g id="edge30" class="edge">
<title>[root] meta.count&#45;boundary (count boundary fixup)&#45;&gt;[root] aws_subnet.main&#45;private&#45;2</title>
<path fill="none" stroke="#000000" d="M191.0991,-329.9958C184.792,-297.2232 171.5209,-228.2643 164.0407,-189.3965"/>
<polygon fill="#000000" stroke="#000000" points="167.422,-188.4451 162.0951,-179.2868 160.5481,-189.768 167.422,-188.4451"/>
</g>
<!-- [root] meta.count&#45;boundary (count boundary fixup)&#45;&gt;[root] aws_subnet.main&#45;private&#45;3 -->
<g id="edge31" class="edge">
<title>[root] meta.count&#45;boundary (count boundary fixup)&#45;&gt;[root] aws_subnet.main&#45;private&#45;3</title>
<path fill="none" stroke="#000000" d="M192.8847,-330.2108C188.8187,-287.8025 178.6375,-181.6119 173.7571,-130.7094"/>
<polygon fill="#000000" stroke="#000000" points="177.2387,-130.3497 172.8002,-120.7294 170.2707,-131.0178 177.2387,-130.3497"/>
</g>
<!-- [root] meta.count&#45;boundary (count boundary fixup)&#45;&gt;[root] aws_volume_attachment.ebs&#45;volume&#45;1&#45;attachment -->
<g id="edge32" class="edge">
<title>[root] meta.count&#45;boundary (count boundary fixup)&#45;&gt;[root] aws_volume_attachment.ebs&#45;volume&#45;1&#45;attachment</title>
<path fill="none" stroke="#000000" d="M363.1169,-339.4871C367.7732,-339.2444 372.4314,-339.0015 377.0778,-338.7592"/>
<polygon fill="#000000" stroke="#000000" points="377.4209,-342.2462 387.2251,-338.2302 377.0563,-335.2557 377.4209,-342.2462"/>
</g>
<!-- [root] var.PATH_TO_PRIVATE_KEY -->
<g id="node22" class="node">
<title>[root] var.PATH_TO_PRIVATE_KEY</title>
<ellipse fill="none" stroke="#000000" cx="213.6196" cy="-435.1154" rx="149.4735" ry="18"/>
<text text-anchor="middle" x="213.6196" y="-431.4154" font-family="Times,serif" font-size="14.00" fill="#000000">[root] var.PATH_TO_PRIVATE_KEY</text>
</g>
<!-- [root] meta.count&#45;boundary (count boundary fixup)&#45;&gt;[root] var.PATH_TO_PRIVATE_KEY -->
<g id="edge33" class="edge">
<title>[root] meta.count&#45;boundary (count boundary fixup)&#45;&gt;[root] var.PATH_TO_PRIVATE_KEY</title>
<path fill="none" stroke="#000000" d="M198.6465,-366.6898C201.2084,-378.3972 204.5752,-393.7834 207.4673,-407"/>
<polygon fill="#000000" stroke="#000000" points="204.1037,-408.002 209.6605,-417.0226 210.9419,-406.5056 204.1037,-408.002"/>
</g>
<!-- [root] provider.aws (close) -->
<g id="node23" class="node">
<title>[root] provider.aws (close)</title>
<ellipse fill="none" stroke="#000000" cx="105.2907" cy="-249.0663" rx="105.0817" ry="18"/>
<text text-anchor="middle" x="105.2907" y="-245.3663" font-family="Times,serif" font-size="14.00" fill="#000000">[root] provider.aws (close)</text>
</g>
<!-- [root] provider.aws (close)&#45;&gt;[root] aws_route_table_association.main&#45;public&#45;1&#45;a -->
<g id="edge34" class="edge">
<title>[root] provider.aws (close)&#45;&gt;[root] aws_route_table_association.main&#45;public&#45;1&#45;a</title>
<path fill="none" stroke="#000000" d="M127.79,-231.3089C175.8908,-193.3458 288.802,-104.2317 343.6406,-60.9509"/>
<polygon fill="#000000" stroke="#000000" points="345.9289,-63.6037 351.6103,-54.6609 341.5922,-58.1089 345.9289,-63.6037"/>
</g>
<!-- [root] provider.aws (close)&#45;&gt;[root] aws_route_table_association.main&#45;public&#45;2&#45;a -->
<g id="edge35" class="edge">
<title>[root] provider.aws (close)&#45;&gt;[root] aws_route_table_association.main&#45;public&#45;2&#45;a</title>
<path fill="none" stroke="#000000" d="M136.8182,-231.7369C193.7066,-200.4677 313.5164,-134.6132 377.2197,-99.5982"/>
<polygon fill="#000000" stroke="#000000" points="379.1197,-102.5477 386.1972,-94.6636 375.7479,-96.4133 379.1197,-102.5477"/>
</g>
<!-- [root] provider.aws (close)&#45;&gt;[root] aws_route_table_association.main&#45;public&#45;3&#45;a -->
<g id="edge36" class="edge">
<title>[root] provider.aws (close)&#45;&gt;[root] aws_route_table_association.main&#45;public&#45;3&#45;a</title>
<path fill="none" stroke="#000000" d="M151.958,-232.8111C211.8851,-211.9373 316.03,-175.6616 382.2606,-152.5922"/>
<polygon fill="#000000" stroke="#000000" points="383.4552,-155.8824 391.7474,-149.2878 381.1526,-149.272 383.4552,-155.8824"/>
</g>
<!-- [root] provider.aws (close)&#45;&gt;[root] aws_subnet.main&#45;private&#45;1 -->
<g id="edge37" class="edge">
<title>[root] provider.aws (close)&#45;&gt;[root] aws_subnet.main&#45;private&#45;1</title>
<path fill="none" stroke="#000000" d="M175.967,-262.4761C176.0333,-262.4886 176.0996,-262.5012 176.1657,-262.5138"/>
<polygon fill="#000000" stroke="#000000" points="165.8854,-264.1219 176.3641,-262.5514 167.1931,-257.2446 165.8854,-264.1219"/>
</g>
<!-- [root] provider.aws (close)&#45;&gt;[root] aws_subnet.main&#45;private&#45;2 -->
<g id="edge38" class="edge">
<title>[root] provider.aws (close)&#45;&gt;[root] aws_subnet.main&#45;private&#45;2</title>
<path fill="none" stroke="#000000" d="M116.3398,-230.8626C123.8473,-218.4939 133.9049,-201.9239 142.3266,-188.0489"/>
<polygon fill="#000000" stroke="#000000" points="145.3847,-189.7561 147.5815,-179.3915 139.4007,-186.1239 145.3847,-189.7561"/>
</g>
<!-- [root] provider.aws (close)&#45;&gt;[root] aws_subnet.main&#45;private&#45;3 -->
<g id="edge39" class="edge">
<title>[root] provider.aws (close)&#45;&gt;[root] aws_subnet.main&#45;private&#45;3</title>
<path fill="none" stroke="#000000" d="M113.356,-231.1117C124.6979,-205.8629 145.4565,-159.6514 158.7405,-130.0792"/>
<polygon fill="#000000" stroke="#000000" points="162.0296,-131.2987 162.9346,-120.7425 155.6443,-128.4303 162.0296,-131.2987"/>
</g>
<!-- [root] provider.aws (close)&#45;&gt;[root] aws_volume_attachment.ebs&#45;volume&#45;1&#45;attachment -->
<g id="edge40" class="edge">
<title>[root] provider.aws (close)&#45;&gt;[root] aws_volume_attachment.ebs&#45;volume&#45;1&#45;attachment</title>
<path fill="none" stroke="#000000" d="M176.3497,-262.5123C245.4857,-275.5944 351.3583,-295.628 430.2866,-310.563"/>
<polygon fill="#000000" stroke="#000000" points="429.7846,-314.0301 440.261,-312.4504 431.0861,-307.1521 429.7846,-314.0301"/>
</g>
<!-- [root] root -->
<g id="node25" class="node">
<title>[root] root</title>
<ellipse fill="none" stroke="#000000" cx="109.9069" cy="-375.2369" rx="47.3916" ry="18"/>
<text text-anchor="middle" x="109.9069" y="-371.5369" font-family="Times,serif" font-size="14.00" fill="#000000">[root] root</text>
</g>
<!-- [root] root&#45;&gt;[root] meta.count&#45;boundary (count boundary fixup) -->
<g id="edge42" class="edge">
<title>[root] root&#45;&gt;[root] meta.count&#45;boundary (count boundary fixup)</title>
<path fill="none" stroke="#000000" d="M146.323,-363.6451C146.3678,-363.6308 146.4127,-363.6166 146.4575,-363.6023"/>
<polygon fill="#000000" stroke="#000000" points="138.1262,-369.9328 146.5921,-363.5594 135.9996,-363.2623 138.1262,-369.9328"/>
</g>
<!-- [root] root&#45;&gt;[root] provider.aws (close) -->
<g id="edge43" class="edge">
<title>[root] root&#45;&gt;[root] provider.aws (close)</title>
<path fill="none" stroke="#000000" d="M109.2455,-357.1597C108.4811,-336.2665 107.2138,-301.6301 106.3202,-277.2049"/>
<polygon fill="#000000" stroke="#000000" points="109.8142,-276.9752 105.9508,-267.1099 102.8189,-277.2312 109.8142,-276.9752"/>
</g>
</g>
</svg>
